<svg xmlns="http://www.w3.org/2000/svg">
    <defs>
        <symbol id="platzi">
            <svg height="26px" fill="none" viewBox="0 0 92 32" xmlns="http://www.w3.org/2000/svg">
                <g fill="#0AE98A" clip-path="url(#platzi-logo-new_svg__a)">
                    <path d="M25.334 25.135V6.106h8.77c1.897 0 3.355.555 4.386 1.663s1.546 2.606 1.546 4.473-.515 3.364-1.546 4.473c-1.03 1.108-2.499 1.662-4.385 1.662H28.63v6.748h-3.306zm3.306-9.675h5.26c.837 0 1.488-.214 1.965-.651q.7-.657.7-1.867v-1.39c0-.807-.234-1.44-.7-1.867-.467-.438-1.119-.652-1.965-.652h-5.26v6.437zm32.797 9.675c-.836 0-1.478-.243-1.935-.72-.447-.476-.72-1.088-.816-1.827h-.146c-.292.953-.827 1.682-1.604 2.168q-1.165.73-2.84.73-2.362-.001-3.646-1.226c-.856-.817-1.274-1.925-1.274-3.306 0-1.517.554-2.664 1.653-3.423q1.648-1.137 4.842-1.137h2.752V15.11q0-1.398-.758-2.168c-.506-.506-1.294-.759-2.373-.759q-1.34 0-2.197.584a5.2 5.2 0 0 0-1.43 1.488l-1.906-1.721c.506-.856 1.216-1.566 2.14-2.12.914-.554 2.12-.836 3.597-.836 1.974 0 3.481.457 4.531 1.37 1.05.915 1.576 2.237 1.576 3.948v7.633h1.604v2.606h-1.789zM55 23.055c.992 0 1.819-.224 2.46-.662.642-.437.963-1.03.963-1.77v-2.197H55.73c-2.207 0-3.306.68-3.306 2.052v.525c0 .68.233 1.196.69 1.536s1.09.515 1.887.515m18.689 2.08v-2.577l8.158-10.034h-7.895V9.879l11.668.039v2.46l-8.275 10.151h8.479v2.606zm-29.841.01a1.89 1.89 0 0 1-1.896-1.896V6.126h3.189v16.413h2.11v2.606zM89.11 8.022a1.896 1.896 0 1 0 0-3.792 1.896 1.896 0 0 0 0 3.792M63.499 9.889h-.282v2.645h2.44v9.305c0 1.05.282 1.867.846 2.44.564.574 1.4.866 2.519.866h2.78v-2.606h-2.955V12.534h3.189V9.889h-3.19V6.106h-2.868v1.887c0 1.04-.846 1.886-1.886 1.886h-.593zm24.017.039h3.19v15.207h-3.19z"></path>
                    <path fill-rule="evenodd" d="m9.65 4.803-8.07 8.07a3.81 3.81 0 0 0 0 5.388l8.08 8.08a3.81 3.81 0 0 0 5.387 0l2.693-2.694-2.693-2.693-2.694 2.693-8.08-8.08 8.07-8.07 5.387 5.387-5.387 5.386 2.694 2.694 5.387-5.387a3.81 3.81 0 0 0 0-5.387l-5.387-5.387a3.81 3.81 0 0 0-5.387 0" clip-rule="evenodd"></path>
                </g>
                <defs>
                    <clipPath id="platzi-logo-new_svg__a"><path fill="#fff" d="M.461 0h91.077v32H.461z"></path>
                    </clipPath>
                </defs>
            </svg>
        </symbol>
        <symbol id="datacamp">
            <svg viewBox="0 0 173 36" xml:space="preserve" xmlns="http://www.w3.org/2000/svg" height="24" class="mfe-app-atlas-header-0">
                <path clip-rule="evenodd" d="M42.56 27.099a5.694 5.694 0 1 1 0-11.387 5.694 5.694 0 0 1 0 11.387zm5.704-20.622v8.853a8.335 8.335 0 1 0 0 12.149v1.835h2.632V6.477h-2.632zm73.28 20.622a5.694 5.694 0 1 1 0-11.387 5.694 5.694 0 0 1 0 11.387zm8.333-5.694v-8.246h-2.631v2.171a8.334 8.334 0 0 0-11.66.243 8.333 8.333 0 0 0 0 11.663 8.334 8.334 0 0 0 11.66.243v1.835h2.632v-7.909h-.001zm20.987-7.634a1.294 1.294 0 0 1 1.109-.622h.507c1.075 0 1.947.872 1.947 1.947v14.218h-2.686V17.269c-1.239 2-5.674 9.25-7.003 11.424a1.299 1.299 0 0 1-1.108.621h-.548a1.298 1.298 0 0 1-1.298-1.298V17.238a1886.566 1886.566 0 0 0-7.31 11.954l-.074.122h-2.574v-16.16h2.684v.034l-.062 11.147 6.438-10.56a1.3 1.3 0 0 1 1.109-.622h.511c1.073 0 1.944.869 1.947 1.942 0 2.971.014 8.382.014 9.17l6.397-10.494zm-37.92 12.541a8.33 8.33 0 1 1-9.05-12.906 8.332 8.332 0 0 1 9.26 3.403l-2.524 1.312a5.533 5.533 0 1 0-.379 6.879l2.693 1.312zm51.542.8a5.694 5.694 0 0 1-5.68-5.352v-.682a5.695 5.695 0 1 1 5.684 6.035l-.004-.001zm.004-14.026a8.3 8.3 0 0 0-5.684 2.24v-2.168h-2.632V35.91h2.632v-8.4a8.331 8.331 0 0 0 10.017 1.025 8.331 8.331 0 0 0-4.333-15.45v.001zM75.277 15.68v9.938c0 .589.478 1.067 1.067 1.067h3.064v2.629h-3.062a3.7 3.7 0 0 1-3.696-3.696l-.01-9.938h-2.838v-2.56h2.838V8.702h2.635v4.427h4.672v2.55h-4.67v.001zm12.757 11.418a5.694 5.694 0 1 1 0-11.389 5.694 5.694 0 0 1 0 11.389zm5.702-13.941v2.173a8.335 8.335 0 1 0 0 12.149v1.835h2.632v-16.16l-2.632.003zM60.285 27.099a5.694 5.694 0 1 1 0-11.387 5.694 5.694 0 0 1 0 11.387zm5.702-13.941v2.171a8.335 8.335 0 1 0 0 12.149v1.835h2.63v-16.16l-2.63.005z" fill="var(--wf-brand--text, #00C74E)" fill-rule="evenodd"></path>
                <path clip-rule="evenodd" d="M11.699 8.514v8.333L2.858 21.89V3.44l8.841 5.074zm2.861 17.507v-7.51l11.84-6.757-2.88-1.65-8.96 5.112V7.68a1.442 1.442 0 0 0-.718-1.242L3.056.256C3.027.238 2.998.224 2.97.21A2.064 2.064 0 0 0 0 2.07v21.184a2.067 2.067 0 0 0 2.971 1.865l.082-.042 8.64-4.933v6.72c.002.513.277.987.722 1.243L23.502 34.4l2.88-1.651-11.822-6.728z" fill="var(--wf-brand--text, #0d4276)" fill-rule="evenodd"></path>
            </svg>
        </symbol>
        <symbol id="devtalles">
            <svg version="1.1" id="Layer_1" xmlns="http://www.w3.org/2000/svg" xmlns:xlink="http://www.w3.org/1999/xlink" x="0px" y="0px" width="112%" viewBox="0 0 973 180" xml:space="preserve">
                <path fill="#3a14c3" opacity="1.000000" stroke="none" 
                d="
                M769.000000,74.545891 
                    C755.416077,77.333969 756.753174,85.012375 758.274048,96.759621 
                    C759.230530,104.147858 760.267090,111.698647 759.725464,119.063065 
                    C759.084534,127.777306 750.695679,134.404816 741.495728,134.965118 
                    C738.203369,135.165634 734.888611,134.997253 731.293823,134.997253 
                    C731.293823,131.626938 731.293823,128.561508 731.293823,125.579636 
                    C734.059143,124.992706 736.745667,124.509109 739.386658,123.844444 
                    C745.434021,122.322510 746.993225,117.403954 746.872986,112.260010 
                    C746.677429,103.899048 745.997131,95.513611 744.904480,87.219803 
                    C743.870117,79.369164 747.646423,74.470528 753.651489,70.489548 
                    C747.591003,66.565010 744.092163,61.556400 744.950134,54.020206 
                    C745.840698,46.197338 746.439331,38.336334 746.970764,30.478830 
                    C747.520691,22.348576 743.100708,16.156422 733.892029,16.983126 
                    C733.101807,17.054068 732.292480,16.912670 731.252563,16.857117 
                    C731.252563,13.244756 731.252563,9.844589 731.252563,6.083208 
                    C741.035706,5.844671 750.541809,5.679183 756.680054,14.971802 
                    C758.198914,17.271126 759.907898,20.142723 759.811707,22.686283 
                    C759.455383,32.106689 758.899414,41.583679 757.398560,50.874668 
                    C756.354492,57.338673 759.278625,65.604866 768.588928,65.000000 
                    C769.000000,68.030594 769.000000,71.061188 769.000000,74.545891 
                z"/>
                <path fill="#3a14c3" opacity="1.000000" stroke="none" 
                    d="
                M1.000000,66.449982 
                    C13.719444,62.401112 15.877666,57.905773 13.003831,43.657764 
                    C11.683045,37.109520 10.879110,30.269739 11.196399,23.626909 
                    C11.573125,15.739676 17.974045,8.184695 26.865980,7.007034 
                    C30.715891,6.497146 34.583073,6.117657 38.753189,5.643608 
                    C38.753189,9.800526 38.753189,13.202253 38.753189,15.979992 
                    C34.910419,17.085508 30.927357,17.314495 28.116846,19.247940 
                    C23.533497,22.400978 24.000317,27.638010 24.285604,32.787918 
                    C24.827175,42.564159 24.775211,52.374477 24.882944,62.171593 
                    C24.892948,63.081242 24.555950,64.456940 23.915718,64.839874 
                    C17.639887,68.593529 20.541094,71.906525 23.510649,76.384209 
                    C27.635803,82.604378 26.193010,90.005226 25.486919,97.049438 
                    C24.963490,102.271362 23.720961,107.568848 24.184725,112.707603 
                    C24.887478,120.494461 26.936892,124.428352 38.640697,125.155052 
                    C38.640697,128.181778 38.640697,131.244156 38.640697,134.779922 
                    C30.889759,135.288437 23.198629,135.576553 16.821125,129.415482 
                    C12.879765,125.607864 11.044452,120.759659 11.161095,115.689674 
                    C11.333656,108.189133 12.805565,100.727608 13.294151,93.221481 
                    C13.553374,89.239052 13.506563,85.042549 12.520574,81.220612 
                    C11.180407,76.025780 5.832686,76.333000 1.396920,75.000748 
                    C1.000000,72.299988 1.000000,69.599968 1.000000,66.449982 
                z"/>
                <path fill="#3a14c3" opacity="1.000000" stroke="none" 
                    d="
                M102.675262,111.612396 
                    C89.818153,119.207787 76.578537,119.660446 64.141380,112.778465 
                    C52.993111,106.609665 46.932114,96.004181 46.064831,83.066353 
                    C45.479633,74.336571 46.386944,65.777138 50.596920,57.781296 
                    C56.669460,46.247974 66.032166,39.758327 79.047150,39.067856 
                    C86.189842,38.688927 93.369171,39.012634 100.531921,38.996048 
                    C106.470581,38.982296 106.987328,38.443310 106.997375,32.316715 
                    C107.008850,25.320517 107.116577,18.321505 106.948952,11.329313 
                    C106.871506,8.098598 107.983185,6.785877 111.274384,6.954952 
                    C115.095558,7.151252 118.938225,7.103522 122.764603,6.966836 
                    C125.608391,6.865251 127.049164,7.667357 127.042397,10.866284 
                    C126.971565,44.348015 126.992867,77.829956 127.006050,111.311836 
                    C127.007408,114.771599 125.616379,116.457497 121.918976,116.047386 
                    C119.615257,115.791855 117.253983,115.892532 114.929451,116.024872 
                    C111.330177,116.229790 107.962090,116.349274 106.782425,111.742081 
                    C106.669479,111.300964 104.268036,111.445808 102.675262,111.612396 
                M68.371025,71.131973 
                    C66.517586,77.804367 67.226440,84.344093 70.787148,90.130547 
                    C74.549217,96.244217 79.890862,99.639877 87.799728,99.224358 
                    C94.421806,98.876450 103.907700,94.107460 104.796646,88.010445 
                    C106.093460,79.116028 106.404480,70.070114 106.942230,61.077206 
                    C107.118454,58.130173 105.512482,56.800308 102.324692,56.935848 
                    C96.846367,57.168789 91.350945,56.992626 85.862724,57.001747 
                    C77.345078,57.015903 71.163399,61.943775 68.371025,71.131973 
                z"/>
                <path fill="#3a14c3" opacity="1.000000" stroke="none" 
                    d="
                M637.259644,42.671463 
                    C650.676758,48.150253 655.397583,59.036098 656.952087,71.948700 
                    C657.289368,74.750885 656.902588,77.632454 657.041504,80.468040 
                    C657.287415,85.487793 654.036499,86.008392 650.243408,86.004906 
                    C636.414978,85.992203 622.586609,85.991058 608.758179,86.011246 
                    C607.027832,86.013771 605.297668,86.169685 603.395691,86.262947 
                    C603.870789,93.020668 607.155334,97.730179 612.355042,99.495445 
                    C618.995605,101.749870 626.552368,102.136627 631.916321,96.371170 
                    C637.867371,89.974693 645.121338,92.075607 651.975830,92.285233 
                    C654.723572,92.369263 655.588623,95.133057 654.282837,98.430260 
                    C651.317017,105.918739 645.998230,110.965927 638.742554,113.565384 
                    C621.534729,119.730385 605.030334,119.597458 590.693115,106.272026 
                    C584.748413,100.746841 581.660095,93.543877 581.206055,85.734962 
                    C580.667786,76.476234 580.117981,67.073532 584.877563,58.291260 
                    C591.117188,46.778099 600.504272,40.058681 613.463135,39.128075 
                    C621.399841,38.558113 629.566345,38.237225 637.259644,42.671463 
                M621.490295,71.000000 
                    C625.916382,71.000000 630.342468,71.000000 634.829163,71.000000 
                    C633.425781,61.262959 627.849792,55.327999 620.172607,55.000687 
                    C611.765991,54.642281 605.572510,60.178432 603.274902,71.000000 
                    C609.129089,71.000000 614.812683,71.000000 621.490295,71.000000 
                z"/>
                <path fill="#3a14c3" opacity="1.000000" stroke="none" 
                    d="
                M183.999954,86.000000 
                    C174.592606,86.000000 165.685242,86.000000 156.730942,86.000000 
                    C157.680405,96.693794 165.760925,102.108727 175.549377,100.357758 
                    C181.013733,99.380302 185.376862,97.361137 189.134125,93.447899 
                    C189.925003,92.624199 191.374725,92.250641 192.582932,92.056961 
                    C194.044083,91.822739 195.602310,91.805580 197.063766,92.038353 
                    C200.726929,92.621773 205.978928,89.849426 207.700867,94.421867 
                    C209.549210,99.329872 205.331940,103.731392 202.214874,106.722549 
                    C195.007797,113.638443 186.006699,117.047134 175.712860,117.084244 
                    C165.742020,117.120178 156.504883,116.295998 147.975708,109.809090 
                    C139.572510,103.418007 135.173508,95.132782 134.233582,85.364403 
                    C133.150772,74.110947 134.044037,63.019924 141.202393,53.032227 
                    C147.269791,44.566689 155.404938,40.148777 165.053879,39.206303 
                    C177.052078,38.034367 189.016434,38.636784 198.683334,47.879700 
                    C205.302856,54.208889 208.993576,61.786949 209.953217,70.752487 
                    C210.252762,73.551132 210.005890,76.408913 209.998764,79.239594 
                    C209.984192,85.036041 209.051544,85.958824 202.982742,85.992393 
                    C196.821991,86.026474 190.660889,85.999977 183.999954,86.000000 
                M159.125168,70.996933 
                    C168.695572,70.996933 178.265991,70.996933 188.272598,70.996933 
                    C187.594528,68.564766 187.247345,66.819405 186.625626,65.178024 
                    C184.228012,58.848251 179.257217,55.675800 172.833099,55.076599 
                    C165.593460,54.401337 160.850754,58.869141 157.490891,64.489311 
                    C156.809921,65.628403 154.309067,69.313469 159.125168,70.996933 
                z"/>
                <path fill="#3a14c3" opacity="1.000000" stroke="none" 
                    d="
                M439.000000,40.000000 
                    C451.329163,40.000038 463.159546,40.094379 474.986725,39.941586 
                    C478.451874,39.896824 480.105438,40.610611 480.076385,44.589287 
                    C479.916016,66.580368 479.968292,88.573311 480.029572,110.565392 
                    C480.040100,114.338898 478.974365,116.370262 474.663940,116.074715 
                    C469.891632,115.747498 465.079620,115.999924 460.334442,115.999924 
                    C460.031372,113.158295 459.779602,110.797943 459.459900,107.800346 
                    C456.277435,110.312599 454.043762,112.989037 451.191254,114.167419 
                    C439.689056,118.919029 428.296661,119.292542 418.050995,110.966621 
                    C409.527954,104.040543 407.413727,89.719208 415.072083,80.304893 
                    C424.760315,68.395203 437.712402,68.355911 451.168549,69.571709 
                    C453.590790,69.790558 456.021454,69.916084 458.735077,70.104622 
                    C458.735077,65.595154 458.735077,61.530773 458.735077,56.999981 
                    C446.277618,56.999981 433.989136,56.774826 421.716156,57.112732 
                    C416.924103,57.244659 415.492462,55.634335 415.933319,51.106129 
                    C416.269043,47.657372 416.000000,44.149734 416.000000,40.000000 
                    C423.646790,40.000000 431.073425,40.000000 439.000000,40.000000 
                M457.933868,90.281685 
                    C458.303741,88.728081 458.673645,87.174477 459.155609,85.150116 
                    C452.364441,83.213326 445.547882,83.208420 439.121399,84.733704 
                    C435.502960,85.592514 431.499359,88.544098 432.070312,93.577484 
                    C432.598816,98.236794 435.800018,100.777420 440.166962,102.008698 
                    C446.132385,103.690681 454.445282,99.628067 457.933868,90.281685 
                z"/>
                <path fill="#3a14c3" opacity="1.000000" stroke="none" 
                    d="
                M698.794800,69.351730 
                    C709.302307,71.567657 718.996704,74.657707 723.514526,85.138680 
                    C727.588562,94.590088 724.900574,104.099655 717.247437,109.827652 
                    C702.116394,121.152512 685.572205,118.394524 669.243591,112.849014 
                    C664.109924,111.105522 663.708252,107.712845 666.870483,102.452812 
                    C671.182251,95.280594 670.939148,96.052750 678.174133,98.330162 
                    C683.857117,100.119049 690.227844,99.944572 696.310120,100.158203 
                    C699.831482,100.281883 704.290771,97.901886 703.526489,94.981087 
                    C702.726074,91.922035 698.645508,88.852898 695.305847,87.506386 
                    C688.221069,84.649948 680.343262,83.662712 673.427124,80.511887 
                    C665.632324,76.960800 660.077454,66.551483 664.601685,55.701187 
                    C669.186401,44.705643 677.648376,39.891621 688.712830,39.103348 
                    C698.711792,38.390980 708.688599,38.995632 718.166138,43.021862 
                    C722.469055,44.849819 723.175537,46.756012 720.609680,50.937832 
                    C720.272400,51.487423 720.029907,52.094257 719.723328,52.663677 
                    C715.979248,59.617058 714.124634,60.133747 706.505554,57.217239 
                    C700.653748,54.977234 694.603455,53.164539 688.631226,56.849297 
                    C687.203674,57.730034 684.966797,59.755451 685.230103,60.467564 
                    C686.078186,62.760891 687.495483,65.415596 689.483826,66.573570 
                    C692.088135,68.090240 695.445801,68.313240 698.794800,69.351730 
                z"/>
                <path fill="#3a14c3" opacity="1.000000" stroke="none" 
                    d="
                M284.813660,53.686424 
                    C277.020203,71.971283 269.370850,89.912758 262.020691,107.975967 
                    C259.465576,114.255272 257.490509,115.999962 250.369446,116.000008 
                    C248.702911,116.000015 247.036377,116.000000 245.369843,115.999985 
                    C237.076324,115.999924 237.188568,115.796379 234.002045,108.203247 
                    C227.637436,93.037140 220.940445,78.010811 214.434479,62.903599 
                    C212.003250,57.258190 209.657516,51.573704 207.397003,45.857910 
                    C206.075806,42.517262 207.760742,40.079556 211.314590,40.014488 
                    C214.813141,39.950439 218.409027,40.512623 221.791885,39.883766 
                    C227.310287,38.857918 229.373779,42.066883 230.953842,46.207874 
                    C233.352875,52.495182 235.616486,58.834011 237.974426,65.137184 
                    C240.449417,71.753273 242.918228,78.372833 245.527832,84.935974 
                    C245.866455,85.787613 247.122864,86.939835 247.788528,86.840714 
                    C248.800003,86.690094 250.168579,85.755386 250.518982,84.826752 
                    C255.427307,71.818649 260.307953,58.796951 264.912292,45.679207 
                    C266.294342,41.741768 268.111786,39.486591 272.645782,39.932289 
                    C276.112030,40.273018 279.638855,39.972889 283.138245,40.006805 
                    C287.799103,40.051975 289.174072,41.775139 287.854218,46.203300 
                    C287.122803,48.657249 286.013977,50.998707 284.813660,53.686424 
                z"/>
                <path fill="#3a14c3" opacity="1.000000" stroke="none" 
                    d="
                M538.000000,102.966103 
                    C538.000000,72.986832 537.997559,43.501724 538.001770,14.016619 
                    C538.002808,7.003551 538.013000,7.003553 544.745789,7.000002 
                    C559.000000,6.992485 559.000000,6.992485 559.000000,21.001013 
                    C559.000000,44.988895 559.000000,68.976776 559.000000,92.964661 
                    C559.000000,94.771980 559.000000,96.579308 559.000000,99.000130 
                    C564.214844,99.000130 569.155457,99.176331 574.076355,98.941338 
                    C577.662476,98.770096 579.328735,99.806297 579.060059,103.683075 
                    C578.787170,107.619949 578.999756,111.590477 578.999756,115.993668 
                    C566.114685,115.993668 553.666016,116.095108 541.225769,115.818260 
                    C540.124634,115.793755 538.422302,113.422005 538.149048,111.929863 
                    C537.647095,109.189491 538.002197,106.292168 538.000000,102.966103 
                z"/>
                <path fill="#3a14c3" opacity="1.000000" stroke="none" 
                    d="
                M489.000000,70.000000 
                    C489.000000,48.880070 489.000000,28.260136 489.000000,7.007574 
                    C494.848236,7.007574 500.439789,6.962014 506.030151,7.023620 
                    C509.745544,7.064564 508.978790,9.928620 508.981262,12.126217 
                    C509.010315,37.928635 508.999969,63.731094 509.000000,89.533546 
                    C509.000000,92.499496 509.000000,95.465446 509.000000,99.000580 
                    C514.758667,99.000580 520.197449,99.128708 525.626343,98.951836 
                    C528.809753,98.848137 529.990662,99.906670 530.070862,103.220901 
                    C530.380249,116.002548 530.485107,116.000000 518.036560,116.000000 
                    C508.569946,115.999992 499.103302,116.000000 489.000000,116.000000 
                    C489.000000,100.656799 489.000000,85.578400 489.000000,70.000000 
                z"/>
                <path fill="#3a14c3" opacity="1.000000" stroke="none" 
                    d="
                M387.524933,29.427238 
                    C388.280731,39.894573 388.282410,40.042255 398.823273,39.921646 
                    C402.619110,39.878220 404.133026,40.789661 404.095856,44.921398 
                    C403.989899,56.692062 404.168304,56.822735 392.492859,56.922585 
                    C388.943542,56.952938 387.913940,58.182869 387.941467,61.604469 
                    C388.072723,77.924118 387.898468,94.246490 388.073181,110.565315 
                    C388.115570,114.524811 387.242218,116.145767 382.836121,116.107224 
                    C368.001526,115.977440 368.000031,116.152176 368.000000,101.254959 
                    C367.999969,88.098473 367.888336,74.940437 368.070801,61.786484 
                    C368.122589,58.053745 366.886108,56.913261 363.188171,56.921200 
                    C351.946869,56.945332 352.133057,56.802578 351.905914,45.603558 
                    C351.818146,41.276714 353.008148,39.771980 357.496826,39.898468 
                    C367.241272,40.173054 367.247681,39.945263 368.404358,29.109974 
                    C374.627563,29.109974 380.902252,29.109974 387.524933,29.427238 
                z"/>
                <path fill="#3a14c3" opacity="1.000000" stroke="none" 
                    d="
                M265.086670,141.000000 
                    C262.856201,141.000000 261.077667,141.000000 258.367462,141.000000 
                    C261.236420,136.039978 263.515381,131.712219 266.149323,127.612495 
                    C278.450562,108.465691 290.937531,89.437874 303.184174,70.256485 
                    C311.942322,56.538998 320.362549,42.606190 329.056122,28.846899 
                    C333.680206,21.528332 338.773865,14.499589 343.219421,7.078737 
                    C344.789673,4.457495 346.489838,3.853928 349.161621,3.964728 
                    C352.643036,4.109103 356.134979,4.000048 360.634949,4.000048 
                    C356.907928,10.224112 353.672974,15.906790 350.166992,21.417023 
                    C344.633820,30.113213 338.788422,38.611938 333.312714,47.343197 
                    C326.063385,58.902657 319.219391,70.718285 311.880676,82.219284 
                    C302.077362,97.582619 291.982941,112.760490 281.973236,127.991501 
                    C280.033020,130.943771 277.424133,133.553040 275.978455,136.711731 
                    C273.691010,141.709534 269.629730,141.096588 265.086670,141.000000 
                z"/>
            </svg>
        </symbol>
        <symbol id="thm">
            <svg version="1.1" id="Layer_1" xmlns="http://www.w3.org/2000/svg" xmlns:xlink="http://www.w3.org/1999/xlink" x="0px" y="0px"
                width="100%" viewBox="0 0 824 461" enable-background="new 0 0 824 461" xml:space="preserve">
            <path fill="#000000" opacity="0.000000" stroke="none" 
                d="
            M825.000000,346.000000 
                C825.000000,384.609039 825.000000,423.218109 825.000000,462.000000 
                C765.979248,462.000000 706.958252,462.000000 647.174194,461.673950 
                C647.214844,460.894501 647.994263,460.390076 648.826050,459.995972 
                C654.943787,457.096985 661.072083,454.220032 667.648499,451.123596 
                C663.453918,446.460388 660.056335,442.683289 656.759888,439.018555 
                C648.315308,443.553741 639.672424,444.852661 630.810059,443.902283 
                C623.838867,443.154694 618.094788,437.756042 618.204895,430.027618 
                C634.649658,430.027618 651.103455,430.027618 667.519165,430.027618 
                C670.230896,421.277283 669.642822,412.928558 665.573975,405.227722 
                C658.772339,392.354889 647.486572,387.745117 633.224854,387.877258 
                C612.269958,388.071442 598.801270,403.602570 598.110840,423.052917 
                C597.437439,442.024323 605.083069,452.717529 623.032349,460.090149 
                C623.532104,460.295410 623.685242,461.344421 624.000000,462.000000 
                C608.312439,462.000000 592.624878,462.000000 576.121704,461.616943 
                C575.537476,459.974518 575.969177,458.715363 575.970642,457.455719 
                C576.007629,425.797699 576.001404,394.139648 575.987305,362.481598 
                C575.986938,361.706024 575.810913,360.930511 575.691833,359.949280 
                C570.059875,360.440582 564.514771,358.454224 560.153748,364.231689 
                C549.250488,378.676361 537.818665,392.722076 526.354004,407.237915 
                C524.231567,404.608307 522.381958,402.327026 520.543152,400.037018 
                C510.352905,387.346130 500.182343,374.639313 489.939850,361.990692 
                C489.226166,361.109344 488.018066,360.158295 486.984589,360.091187 
                C483.399078,359.858276 479.789185,360.001282 476.000000,360.001282 
                C476.000000,394.386963 476.000000,428.193481 476.000000,462.000000 
                C317.760162,462.000000 159.520325,462.000000 1.000000,462.000000 
                C1.000000,373.645966 1.000000,285.291656 1.338107,196.172028 
                C3.526724,200.474274 5.100760,205.664093 7.278095,210.587082 
                C14.659045,227.275528 26.185223,240.413071 42.052864,249.495041 
                C52.212212,255.309845 63.230259,259.711884 74.905060,259.825439 
                C119.388412,260.258118 163.878601,260.035400 208.365723,259.894928 
                C210.579514,259.887939 213.151886,258.818359 214.926163,257.434387 
                C218.972641,254.278091 220.399551,247.785828 218.631943,243.130524 
                C217.071060,239.019745 212.119263,236.005157 206.816605,236.004166 
                C166.161301,235.996582 125.505936,236.041519 84.850723,235.979752 
                C68.381210,235.954727 53.807526,230.170761 42.401340,218.598465 
                C29.181091,205.185654 22.942596,188.963699 25.839190,169.486023 
                C28.412367,152.183105 37.534252,139.486252 51.073166,129.533463 
                C61.144547,122.129745 73.088470,118.945976 85.261894,119.273712 
                C97.206200,119.595276 108.600655,123.265953 118.540771,130.721008 
                C123.481544,134.426575 132.563507,131.772797 135.861008,126.436256 
                C138.124496,122.773087 137.319443,113.315552 131.913712,109.867172 
                C122.742981,104.017059 113.337273,99.066223 102.584099,96.850204 
                C101.641228,96.655899 100.232803,94.164230 100.527222,93.187996 
                C108.154823,67.896797 123.608482,48.572239 146.797272,36.181637 
                C165.214813,26.340485 185.032547,22.882530 205.993988,26.903936 
                C223.226303,30.209917 238.403290,37.404362 251.410202,49.008308 
                C265.026245,61.155655 274.265198,76.146469 279.355316,93.733215 
                C281.960236,102.733353 282.114563,102.824387 274.709473,107.714424 
                C273.503845,108.510582 272.232635,109.207497 271.027740,110.004662 
                C266.605804,112.930183 265.026855,119.166702 266.615051,124.206757 
                C269.488434,133.325378 279.939758,134.156723 287.244507,129.254974 
                C300.029999,120.675499 314.197632,117.509079 329.203705,120.221886 
                C343.937256,122.885406 356.301361,130.255829 365.682007,142.184937 
                C371.335114,149.373886 375.476288,157.388672 376.872864,166.421234 
                C377.768494,172.213928 383.902008,177.160385 389.194824,176.808075 
                C395.624512,176.380112 401.495789,173.382568 400.832275,164.955948 
                C400.372711,159.119339 398.994995,153.153564 396.890503,147.682907 
                C387.968231,124.489281 371.506317,108.788185 348.296722,99.956573 
                C335.454590,95.069946 322.146271,94.504700 308.689056,95.052368 
                C305.577057,95.179016 304.117554,94.076462 303.988007,91.020958 
                C303.946625,90.045670 303.864532,89.041229 303.592560,88.111107 
                C296.233795,62.946320 282.850006,41.773117 262.040405,25.538118 
                C247.182999,13.946837 230.494186,6.429801 211.971069,2.930899 
                C211.219284,2.788892 210.652817,1.665927 210.000000,1.000000 
                C414.906189,1.000000 619.812378,1.000000 825.000000,1.000000 
                C825.000000,114.354073 825.000000,227.708374 824.707947,341.819275 
                C821.446350,338.386963 818.400818,334.249481 815.523865,329.997925 
                C810.367004,322.377167 806.260864,313.924255 799.515564,309.271851 
                C807.674561,297.468262 815.915649,285.545929 824.587769,273.000061 
                C817.322144,273.000061 811.176941,272.854004 805.048462,273.109131 
                C803.627502,273.168274 801.805603,274.266113 800.952209,275.450806 
                C797.185181,280.680084 793.459961,285.971130 790.185120,291.514832 
                C786.456543,297.826569 781.381775,300.270721 773.893188,298.572296 
                C773.893188,280.426392 773.893188,262.360840 773.893188,244.243622 
                C767.437927,244.243622 761.369690,244.243622 755.213562,244.243622 
                C755.213562,278.203186 755.213562,311.918732 755.213562,345.788391 
                C761.495850,345.788391 767.563477,345.788391 774.016724,345.788391 
                C774.016724,336.507965 774.016724,327.429016 774.016724,318.453949 
                C781.921265,316.551514 787.166016,319.496918 791.035156,325.931824 
                C794.516785,331.722076 798.160461,337.435974 802.114502,342.907623 
                C803.221558,344.439697 805.630249,345.737396 807.525879,345.861694 
                C813.328674,346.242188 819.172241,346.000000 825.000000,346.000000 
            M476.000000,314.500000 
                C476.000000,324.929443 476.000000,335.358917 476.000000,345.711884 
                C483.313843,345.711884 490.053070,345.711884 497.179749,345.711884 
                C497.179749,332.020477 497.179749,318.613007 497.179749,305.289032 
                C509.982635,305.289032 522.386414,305.289032 535.181580,305.289032 
                C535.181580,318.981415 535.181580,332.388916 535.181580,345.708374 
                C542.321167,345.708374 549.060669,345.708374 555.714233,345.708374 
                C555.714233,311.683960 555.714233,277.951935 555.714233,244.288055 
                C548.686157,244.288055 541.948120,244.288055 534.820374,244.288055 
                C534.820374,257.979401 534.820374,271.386871 534.820374,284.711060 
                C522.017517,284.711060 509.613770,284.711060 496.818573,284.711060 
                C496.818573,271.018738 496.818573,257.611237 496.818573,244.291565 
                C489.678864,244.291565 482.940399,244.291565 476.000000,244.291565 
                C476.000000,267.554993 476.000000,290.527496 476.000000,314.500000 
            M664.028015,195.454514 
                C655.180847,204.361588 640.562195,201.375656 637.428528,189.842407 
                C636.413025,186.105057 636.130066,182.088318 636.061279,178.189682 
                C635.880005,167.911713 636.000000,157.628403 636.000000,147.223755 
                C629.486389,147.223755 623.414978,147.223755 618.001282,147.223755 
                C618.001282,162.987976 616.749084,178.654648 618.371521,194.017776 
                C619.842285,207.945084 629.266907,218.425583 646.248169,219.090759 
                C653.959534,219.392822 661.026367,217.957932 667.625427,213.492981 
                C668.438904,222.036331 665.500488,226.688095 658.141113,228.999374 
                C649.380981,231.750595 641.217224,229.226578 633.101074,226.073181 
                C631.599243,225.489670 629.051880,224.895203 628.263245,225.646088 
                C624.860229,228.886169 621.931946,232.624847 618.805603,236.211044 
                C619.682861,237.129181 620.264771,238.003052 621.070923,238.540634 
                C628.671326,243.609161 636.946960,247.194397 646.075562,247.904648 
                C655.069763,248.604431 663.989258,247.781052 671.863831,242.630280 
                C682.832031,235.455917 687.811707,224.997574 687.966675,212.150024 
                C688.119446,199.486679 688.000000,186.820084 688.000000,174.154907 
                C688.000000,165.209763 688.000000,156.264618 688.000000,147.236603 
                C681.459839,147.236603 675.388245,147.236603 669.481018,147.236603 
                C669.231384,147.604111 669.064941,147.734756 669.064575,147.865860 
                C669.034729,158.530746 669.473267,169.224411 668.802551,179.848114 
                C668.480652,184.946198 666.063171,189.911957 664.028015,195.454514 
            M611.506714,272.000000 
                C595.747620,272.464691 585.007935,280.758820 579.401367,293.325562 
                C573.022949,307.621979 576.812683,329.050568 587.124023,337.467804 
                C602.876587,350.326843 619.216858,350.998047 635.799438,337.634003 
                C635.957336,340.756317 636.085876,343.296570 636.207581,345.702637 
                C641.004272,345.702637 645.407349,345.702637 649.731323,345.702637 
                C649.731323,321.352783 649.731323,297.301239 649.731323,273.250366 
                C645.042725,273.250366 640.627197,273.250366 635.842896,273.250366 
                C635.842896,276.196930 635.842896,278.900360 635.842896,282.353760 
                C629.154358,275.087433 621.293274,272.330566 611.506714,272.000000 
            M516.000000,204.496704 
                C516.000000,182.404984 516.000000,160.313263 516.000000,137.828033 
                C525.638367,137.828033 534.715149,137.828033 543.712280,137.828033 
                C543.712280,131.354477 543.712280,125.282753 543.712280,119.284576 
                C518.356079,119.284576 493.288727,119.284576 468.287170,119.284576 
                C468.287170,125.644318 468.287170,131.716003 468.287170,138.179321 
                C477.312683,138.179321 486.056122,138.179321 495.177429,138.179321 
                C495.177429,165.644745 495.177429,192.713669 495.177429,219.712372 
                C502.312714,219.712372 509.051971,219.712372 516.000000,219.712372 
                C516.000000,214.782761 516.000000,210.139023 516.000000,204.496704 
            M723.568054,321.041931 
                C718.275085,325.249207 712.809570,328.509613 705.501038,328.111176 
                C696.460083,327.618225 687.069214,317.985229 688.062317,309.055115 
                C689.895508,292.570404 707.040100,286.417603 718.180176,294.567688 
                C723.844421,298.711639 723.980103,298.526428 729.043091,293.460480 
                C729.631226,292.872009 730.216125,292.280273 730.804321,291.691803 
                C736.277832,286.215271 736.202698,285.872833 730.532288,280.985168 
                C714.526855,267.189178 689.834839,270.095856 677.186096,286.235413 
                C663.306213,303.945984 667.725525,329.484924 685.755676,341.183746 
                C700.466370,350.728668 720.653748,348.948730 733.002258,336.311584 
                C733.961975,335.329376 734.517822,332.501678 733.842285,331.624023 
                C730.952881,327.870148 727.531006,324.526093 723.568054,321.041931 
            M554.000000,211.458221 
                C554.000000,214.228409 554.000000,216.998596 554.000000,219.736145 
                C560.942261,219.736145 567.341431,219.736145 574.000000,219.736145 
                C574.000000,207.520035 573.948059,195.565720 574.017700,183.612122 
                C574.066895,175.161423 579.855652,167.820969 588.154175,166.027527 
                C592.237122,165.145126 596.476807,164.988159 600.788940,164.486237 
                C600.788940,158.482147 600.788940,152.408081 600.788940,146.000748 
                C587.786743,145.928284 576.853699,149.627274 569.271729,161.267609 
                C568.663330,156.077789 568.140198,151.615204 567.635010,147.305847 
                C562.975037,147.305847 558.574036,147.305847 554.227173,147.305847 
                C554.121094,147.926483 554.019897,148.242584 554.019714,148.558762 
                C554.007935,169.194626 554.004333,189.830490 554.000000,211.458221 
            M348.434418,309.947052 
                C356.926086,317.772125 371.766205,316.097900 375.411469,305.125641 
                C379.125793,293.945557 379.326721,282.887390 374.485657,271.979279 
                C372.058228,266.509735 365.122650,263.539581 359.063385,264.028870 
                C352.220520,264.581390 346.467499,268.882111 345.090393,274.927826 
                C342.421722,286.643829 341.915710,298.277863 348.434418,309.947052 
            M408.018738,240.984161 
                C413.131287,238.675690 415.831329,234.740173 417.108429,229.234268 
                C419.047974,220.872314 419.037109,212.679184 417.030823,204.374893 
                C415.397675,197.615158 410.196075,192.354950 404.437836,192.000290 
                C393.270691,191.312500 388.970490,193.923798 385.959503,202.904709 
                C383.067566,211.530502 382.999115,220.422897 385.200958,228.938171 
                C387.982513,239.695297 396.428009,244.546082 408.018738,240.984161 
            M267.000000,217.466553 
                C267.670868,222.248291 267.920654,227.138733 269.119720,231.784134 
                C270.601746,237.526016 276.243927,241.730225 281.674744,241.993347 
                C288.516296,242.324814 295.284668,241.466141 298.066406,234.256668 
                C302.584656,222.546402 303.004211,210.568497 297.413635,198.917389 
                C293.799774,191.385925 286.844330,191.379044 280.107361,192.122559 
                C274.808350,192.707367 270.547882,195.945374 269.150055,201.196060 
                C267.834473,206.137939 267.670593,211.386414 267.000000,217.466553 
            M239.289734,281.971680 
                C240.708282,280.737762 242.126816,279.503815 244.132446,277.759186 
                C244.132446,290.272705 244.132446,301.991455 244.132446,313.761292 
                C247.890778,313.761292 251.291000,313.761292 254.791016,313.761292 
                C254.791016,297.464935 254.791016,281.407959 254.791016,265.340942 
                C242.531540,262.440216 237.617859,272.898682 229.479721,277.790344 
                C235.559021,284.345459 235.559021,284.345459 239.289734,281.971680 
            M255.000000,214.500031 
                C255.000000,207.072876 255.000000,199.645706 255.000000,191.324173 
                C250.932892,192.085007 246.963699,191.841080 244.214874,193.554733 
                C239.082520,196.754288 234.659027,201.090897 229.639145,205.201157 
                C231.586624,207.567383 233.431412,209.808823 235.436401,212.244934 
                C238.234024,209.949539 240.761414,207.875839 244.139557,205.104126 
                C244.139557,217.812881 244.139557,229.336365 244.139557,240.692841 
                C248.028656,240.692841 251.431183,240.692841 255.000000,240.692841 
                C255.000000,232.091309 255.000000,223.795670 255.000000,214.500031 
            M278.577362,280.948761 
                C279.505859,280.238007 280.434357,279.527252 282.212158,278.166351 
                C282.212158,290.855438 282.212158,302.384857 282.212158,313.668671 
                C286.077240,313.668671 289.477905,313.668671 292.729858,313.668671 
                C292.729858,297.291992 292.729858,281.247803 292.729858,265.276733 
                C280.660065,262.557434 275.985138,273.419067 267.489929,277.612762 
                C269.607697,280.093170 271.261688,282.030396 273.266296,284.378265 
                C274.794830,283.446869 276.402496,282.467255 278.577362,280.948761 
            M361.000000,223.501160 
                C361.000000,229.262817 361.000000,235.024475 361.000000,240.722092 
                C364.966888,240.722092 368.370728,240.722092 371.751831,240.722092 
                C371.751831,224.376282 371.751831,208.309647 371.751831,192.225693 
                C359.620270,189.847397 354.935059,200.498337 346.841034,205.111298 
                C349.078278,207.842941 350.899170,210.066193 352.690582,212.253448 
                C355.583313,210.026535 358.078217,208.105850 361.000000,205.856583 
                C361.000000,211.889511 361.000000,217.196411 361.000000,223.501160 
            M329.321045,313.995789 
                C329.880676,312.725891 330.913177,311.460938 330.926422,310.185364 
                C331.050415,298.224518 331.000000,286.261902 331.000000,274.299774 
                C331.000000,271.218353 331.000000,268.136963 331.000000,265.086212 
                C321.550018,264.874725 315.285614,268.299347 306.954376,277.899841 
                C307.151520,278.275391 307.359985,278.696320 307.589233,279.105591 
                C310.771790,284.787231 311.648987,284.948303 316.475739,281.102478 
                C317.311493,280.436584 318.538300,280.261536 320.155212,279.640564 
                C320.155212,291.575500 320.155212,302.645905 320.155212,313.999725 
                C323.108307,313.999725 325.736267,313.999725 329.321045,313.995789 
            M380.196503,363.727234 
                C390.581635,366.843628 396.616364,365.419067 398.542145,356.518250 
                C399.839905,350.520325 399.745667,343.857727 398.558411,337.830414 
                C397.910614,334.541840 394.181824,330.519928 390.956085,329.413757 
                C386.791229,327.985565 381.049408,327.648132 378.093231,332.626038 
                C376.213715,335.791016 374.826508,339.613068 374.496918,343.256104 
                C373.856049,350.340302 373.836578,357.580353 380.196503,363.727234 
            M247.925751,331.409576 
                C238.867661,327.436584 231.591156,329.106445 229.335342,336.457581 
                C226.968918,344.169159 226.929092,352.094299 230.290695,359.801361 
                C232.974640,365.954773 238.254181,365.097809 243.254715,364.965485 
                C247.518768,364.852692 249.705200,361.944153 250.978897,358.315613 
                C254.185638,349.180237 253.807663,340.336609 247.925751,331.409576 
            M307.000000,350.306641 
                C306.662506,345.926178 306.804321,341.438873 305.858002,337.194153 
                C304.830017,332.583282 301.257141,329.688629 296.582153,329.102570 
                C292.050598,328.534515 287.458130,329.703491 285.121490,333.878540 
                C280.470276,342.189270 281.335571,351.191071 284.540985,359.587555 
                C285.506042,362.115540 289.998657,364.331818 293.154572,364.797241 
                C303.184631,366.276367 306.030975,361.155914 307.000000,350.306641 
            M353.311676,368.172943 
                C349.554443,370.595093 345.909637,373.090820 345.942047,378.284424 
                C345.973969,383.403351 345.420135,388.601746 346.131409,393.622467 
                C347.138428,400.730743 350.901306,403.926514 356.724579,403.999969 
                C364.240173,404.094818 367.346283,401.722107 368.963013,394.049377 
                C369.660889,390.737579 370.170563,387.242767 369.907349,383.898651 
                C369.109619,373.762115 366.438782,366.565186 353.311676,368.172943 
            M415.035248,403.999115 
                C419.362885,403.260925 422.352600,400.558716 422.864136,396.456635 
                C423.649597,390.157684 424.266663,383.667572 423.592285,377.405396 
                C422.939148,371.340729 417.932983,368.016541 412.091888,368.000000 
                C405.475189,367.981262 401.941559,370.375641 400.467865,377.179138 
                C399.608948,381.144409 400.118073,385.404633 399.998444,389.531769 
                C399.736694,398.561066 403.714081,405.072571 415.035248,403.999115 
            M422.000000,342.508057 
                C422.000000,338.068268 422.000000,333.628479 422.000000,329.377625 
                C412.588562,326.922760 409.046417,334.968811 403.434479,338.031219 
                C405.322479,345.093719 409.176392,342.670319 413.282806,339.837982 
                C413.282806,348.723022 413.282806,356.797150 413.282806,364.693359 
                C416.358459,364.693359 419.093445,364.693359 422.000000,364.693359 
                C422.000000,357.427124 422.000000,350.465912 422.000000,342.508057 
            M329.000000,354.476532 
                C329.000000,346.366577 329.000000,338.256592 329.000000,330.397156 
                C322.791748,328.775940 319.004456,331.744629 315.036285,335.297485 
                C309.811829,339.975128 309.585388,340.303772 315.375549,343.920471 
                C316.792328,342.691467 318.202545,341.468109 320.237915,339.702484 
                C320.237915,348.682190 320.237915,356.763092 320.237915,364.700043 
                C323.337433,364.700043 326.076080,364.700043 329.000000,364.700043 
                C329.000000,361.424469 329.000000,358.445099 329.000000,354.476532 
            M268.578552,364.999664 
                C270.324860,364.999664 272.071198,364.999664 273.760925,364.999664 
                C273.760925,352.998291 273.760925,341.610718 273.760925,330.350586 
                C265.008759,327.873322 261.571747,335.541809 255.788696,338.923859 
                C257.247040,340.744324 258.533630,342.350403 259.816650,343.952026 
                C261.709534,342.912750 263.602417,341.873474 266.000000,340.557129 
                C266.000000,347.917297 265.914062,354.536682 266.073853,361.150177 
                C266.105103,362.443726 267.088898,363.714294 268.578552,364.999664 
            M383.000000,393.488647 
                C383.000000,396.923187 383.000000,400.357727 383.000000,403.743530 
                C385.933777,403.743530 388.333344,403.743530 390.796997,403.743530 
                C390.796997,392.099396 390.796997,380.712585 390.796997,369.444489 
                C382.220703,366.570923 378.769043,374.387421 372.739288,377.472504 
                C374.384552,379.435638 375.881165,381.221405 377.245941,382.849854 
                C379.346832,381.478149 381.027435,380.380890 383.000000,379.092987 
                C383.000000,383.897736 383.000000,388.198853 383.000000,393.488647 
            M231.854950,402.985138 
                C239.735336,406.018158 244.497574,403.003998 244.973572,394.569275 
                C245.140244,391.615753 245.666306,388.434845 244.816467,385.739868 
                C243.928741,382.924744 242.076141,379.147400 239.758698,378.342010 
                C236.148346,377.087311 231.467590,376.997131 229.042633,381.743683 
                C226.278717,387.153717 226.171692,397.925140 231.854950,402.985138 
            M311.004578,432.479645 
                C314.314209,427.063324 314.239868,421.364990 313.119080,415.286835 
                C312.255768,410.604828 309.499969,408.562592 305.395630,408.088928 
                C301.662048,407.658020 298.127777,408.877716 297.097015,412.945679 
                C296.273285,416.196503 296.087738,419.668030 296.045837,423.046906 
                C295.919342,433.251678 300.954498,436.673431 311.004578,432.479645 
            M254.161804,379.278961 
                C252.049652,381.019287 249.937515,382.759613 247.963455,384.386169 
                C249.086288,389.665344 252.074707,388.060669 255.169250,386.260071 
                C255.169250,392.437042 255.169250,398.036255 255.169250,403.813843 
                C257.121063,403.813843 258.852997,403.813843 260.734833,403.813843 
                C260.734833,395.134888 260.734833,386.612366 260.734833,377.666077 
                C258.545105,378.073792 256.671387,378.422668 254.161804,379.278961 
            M329.000000,422.490234 
                C329.000000,418.041595 329.000000,413.592957 329.000000,409.170593 
                C324.578888,408.973145 316.342682,412.519165 316.186096,414.886841 
                C316.092285,416.305695 317.549927,417.827148 318.340057,419.360321 
                C320.130341,418.309326 321.296417,417.624756 323.132477,416.546875 
                C323.132477,422.819763 323.132477,428.364532 323.132477,434.072601 
                C325.350464,433.957245 327.088440,433.866882 329.000000,433.767456 
                C329.000000,430.086731 329.000000,426.783478 329.000000,422.490234 
            z"/>
            <path fill="#BB1212" opacity="1.000000" stroke="none" 
                d="
            M209.531342,1.000000 
                C210.652817,1.665927 211.219284,2.788892 211.971069,2.930899 
                C230.494186,6.429801 247.182999,13.946837 262.040405,25.538118 
                C282.850006,41.773117 296.233795,62.946320 303.592560,88.111107 
                C303.864532,89.041229 303.946625,90.045670 303.988007,91.020958 
                C304.117554,94.076462 305.577057,95.179016 308.689056,95.052368 
                C322.146271,94.504700 335.454590,95.069946 348.296722,99.956573 
                C371.506317,108.788185 387.968231,124.489281 396.890503,147.682907 
                C398.994995,153.153564 400.372711,159.119339 400.832275,164.955948 
                C401.495789,173.382568 395.624512,176.380112 389.194824,176.808075 
                C383.902008,177.160385 377.768494,172.213928 376.872864,166.421234 
                C375.476288,157.388672 371.335114,149.373886 365.682007,142.184937 
                C356.301361,130.255829 343.937256,122.885406 329.203705,120.221886 
                C314.197632,117.509079 300.029999,120.675499 287.244507,129.254974 
                C279.939758,134.156723 269.488434,133.325378 266.615051,124.206757 
                C265.026855,119.166702 266.605804,112.930183 271.027740,110.004662 
                C272.232635,109.207497 273.503845,108.510582 274.709473,107.714424 
                C282.114563,102.824387 281.960236,102.733353 279.355316,93.733215 
                C274.265198,76.146469 265.026245,61.155655 251.410202,49.008308 
                C238.403290,37.404362 223.226303,30.209917 205.993988,26.903936 
                C185.032547,22.882530 165.214813,26.340485 146.797272,36.181637 
                C123.608482,48.572239 108.154823,67.896797 100.527222,93.187996 
                C100.232803,94.164230 101.641228,96.655899 102.584099,96.850204 
                C113.337273,99.066223 122.742981,104.017059 131.913712,109.867172 
                C137.319443,113.315552 138.124496,122.773087 135.861008,126.436256 
                C132.563507,131.772797 123.481544,134.426575 118.540771,130.721008 
                C108.600655,123.265953 97.206200,119.595276 85.261894,119.273712 
                C73.088470,118.945976 61.144547,122.129745 51.073166,129.533463 
                C37.534252,139.486252 28.412367,152.183105 25.839190,169.486023 
                C22.942596,188.963699 29.181091,205.185654 42.401340,218.598465 
                C53.807526,230.170761 68.381210,235.954727 84.850723,235.979752 
                C125.505936,236.041519 166.161301,235.996582 206.816605,236.004166 
                C212.119263,236.005157 217.071060,239.019745 218.631943,243.130524 
                C220.399551,247.785828 218.972641,254.278091 214.926163,257.434387 
                C213.151886,258.818359 210.579514,259.887939 208.365723,259.894928 
                C163.878601,260.035400 119.388412,260.258118 74.905060,259.825439 
                C63.230259,259.711884 52.212212,255.309845 42.052864,249.495041 
                C26.185223,240.413071 14.659045,227.275528 7.278095,210.587082 
                C5.100760,205.664093 3.526724,200.474274 1.338107,195.703369 
                C1.000000,183.979111 1.000000,171.958206 1.405079,159.463898 
                C2.105980,158.893143 2.628438,158.848923 2.665483,158.690903 
                C6.951901,140.405258 16.380953,125.305336 30.990492,113.554375 
                C42.621159,104.199432 55.756199,98.023582 70.673370,96.015594 
                C73.046257,95.696175 74.389328,95.259918 75.212852,92.234520 
                C77.436707,84.064735 79.949974,75.846436 83.529274,68.200150 
                C90.390152,53.543591 99.840721,40.707012 112.305077,30.073471 
                C127.422691,17.176374 144.145142,7.787225 163.793869,3.903883 
                C165.968918,3.474011 167.936310,1.993333 170.000000,0.999999 
                C183.020889,1.000000 196.041794,1.000000 209.531342,1.000000 
            z"/>
            <path fill="#000000" opacity="0.000000" stroke="none" 
                d="
            M169.531342,0.999999 
                C167.936310,1.993333 165.968918,3.474011 163.793869,3.903883 
                C144.145142,7.787225 127.422691,17.176374 112.305077,30.073471 
                C99.840721,40.707012 90.390152,53.543591 83.529274,68.200150 
                C79.949974,75.846436 77.436707,84.064735 75.212852,92.234520 
                C74.389328,95.259918 73.046257,95.696175 70.673370,96.015594 
                C55.756199,98.023582 42.621159,104.199432 30.990492,113.554375 
                C16.380953,125.305336 6.951901,140.405258 2.665483,158.690903 
                C2.628438,158.848923 2.105980,158.893143 1.405079,158.995239 
                C1.000000,106.403862 1.000000,53.807728 1.000000,1.000000 
                C57.020718,1.000000 113.041702,1.000000 169.531342,0.999999 
            z"/>
            <path fill="#BB1212" opacity="1.000000" stroke="none" 
                d="
            M476.468536,462.000000 
                C476.000000,428.193481 476.000000,394.386963 476.000000,360.001282 
                C479.789185,360.001282 483.399078,359.858276 486.984589,360.091187 
                C488.018066,360.158295 489.226166,361.109344 489.939850,361.990692 
                C500.182343,374.639313 510.352905,387.346130 520.543152,400.037018 
                C522.381958,402.327026 524.231567,404.608307 526.354004,407.237915 
                C537.818665,392.722076 549.250488,378.676361 560.153748,364.231689 
                C564.514771,358.454224 570.059875,360.440582 575.691833,359.949280 
                C575.810913,360.930511 575.986938,361.706024 575.987305,362.481598 
                C576.001404,394.139648 576.007629,425.797699 575.970642,457.455719 
                C575.969177,458.715363 575.537476,459.974518 575.653076,461.616943 
                C569.645569,462.000000 563.291199,462.000000 556.815308,461.616943 
                C556.462585,459.643127 556.034607,458.052948 556.030212,456.461548 
                C555.982117,438.985992 556.006653,421.510193 555.986816,404.034485 
                C555.985291,402.692566 555.796387,401.350830 555.604126,398.816803 
                C545.257751,411.603119 535.726318,423.382324 526.089905,435.291168 
                C516.642273,423.543121 507.420990,412.076630 498.199707,400.610107 
                C497.799805,400.827606 497.399902,401.045135 497.000000,401.262665 
                C497.000000,421.508453 497.000000,441.754211 497.000000,462.000000 
                C490.312347,462.000000 483.624725,462.000000 476.468536,462.000000 
            z"/>
            <path fill="#BB1212" opacity="1.000000" stroke="none" 
                d="
            M825.000000,345.600006 
                C819.172241,346.000000 813.328674,346.242188 807.525879,345.861694 
                C805.630249,345.737396 803.221558,344.439697 802.114502,342.907623 
                C798.160461,337.435974 794.516785,331.722076 791.035156,325.931824 
                C787.166016,319.496918 781.921265,316.551514 774.016724,318.453949 
                C774.016724,327.429016 774.016724,336.507965 774.016724,345.788391 
                C767.563477,345.788391 761.495850,345.788391 755.213562,345.788391 
                C755.213562,311.918732 755.213562,278.203186 755.213562,244.243622 
                C761.369690,244.243622 767.437927,244.243622 773.893188,244.243622 
                C773.893188,262.360840 773.893188,280.426392 773.893188,298.572296 
                C781.381775,300.270721 786.456543,297.826569 790.185120,291.514832 
                C793.459961,285.971130 797.185181,280.680084 800.952209,275.450806 
                C801.805603,274.266113 803.627502,273.168274 805.048462,273.109131 
                C811.176941,272.854004 817.322144,273.000061 824.587769,273.000061 
                C815.915649,285.545929 807.674561,297.468262 799.515564,309.271851 
                C806.260864,313.924255 810.367004,322.377167 815.523865,329.997925 
                C818.400818,334.249481 821.446350,338.386963 824.707947,342.287903 
                C825.000000,343.066681 825.000000,344.133331 825.000000,345.600006 
            z"/>
            <path fill="#BB1212" opacity="1.000000" stroke="none" 
                d="
            M624.468628,462.000000 
                C623.685242,461.344421 623.532104,460.295410 623.032349,460.090149 
                C605.083069,452.717529 597.437439,442.024323 598.110840,423.052917 
                C598.801270,403.602570 612.269958,388.071442 633.224854,387.877258 
                C647.486572,387.745117 658.772339,392.354889 665.573975,405.227722 
                C669.642822,412.928558 670.230896,421.277283 667.519165,430.027618 
                C651.103455,430.027618 634.649658,430.027618 618.204895,430.027618 
                C618.094788,437.756042 623.838867,443.154694 630.810059,443.902283 
                C639.672424,444.852661 648.315308,443.553741 656.759888,439.018555 
                C660.056335,442.683289 663.453918,446.460388 667.648499,451.123596 
                C661.072083,454.220032 654.943787,457.096985 648.826050,459.995972 
                C647.994263,460.390076 647.214844,460.894501 646.705566,461.673950 
                C639.645752,462.000000 632.291504,462.000000 624.468628,462.000000 
            M633.690552,405.037537 
                C632.622803,405.360565 631.558960,405.697571 630.486633,406.004425 
                C623.515564,407.999084 619.484558,411.423523 619.323181,417.698486 
                C629.499878,417.698486 639.674744,417.698486 650.868652,417.698486 
                C649.443970,415.317383 648.514465,413.525330 647.364502,411.888062 
                C644.255188,407.460907 639.708069,405.615814 633.690552,405.037537 
            z"/>
            <path fill="#000000" opacity="0.000000" stroke="none" 
                d="
            M497.468658,462.000000 
                C497.000000,441.754211 497.000000,421.508453 497.000000,401.262665 
                C497.399902,401.045135 497.799805,400.827606 498.199707,400.610107 
                C507.420990,412.076630 516.642273,423.543121 526.089905,435.291168 
                C535.726318,423.382324 545.257751,411.603119 555.604126,398.816803 
                C555.796387,401.350830 555.985291,402.692566 555.986816,404.034485 
                C556.006653,421.510193 555.982117,438.985992 556.030212,456.461548 
                C556.034607,458.052948 556.462585,459.643127 556.346924,461.616943 
                C536.645752,462.000000 517.291565,462.000000 497.468658,462.000000 
            z"/>
            <path fill="#BB1212" opacity="1.000000" stroke="none" 
                d="
            M476.000000,314.000000 
                C476.000000,290.527496 476.000000,267.554993 476.000000,244.291565 
                C482.940399,244.291565 489.678864,244.291565 496.818573,244.291565 
                C496.818573,257.611237 496.818573,271.018738 496.818573,284.711060 
                C509.613770,284.711060 522.017517,284.711060 534.820374,284.711060 
                C534.820374,271.386871 534.820374,257.979401 534.820374,244.288055 
                C541.948120,244.288055 548.686157,244.288055 555.714233,244.288055 
                C555.714233,277.951935 555.714233,311.683960 555.714233,345.708374 
                C549.060669,345.708374 542.321167,345.708374 535.181580,345.708374 
                C535.181580,332.388916 535.181580,318.981415 535.181580,305.289032 
                C522.386414,305.289032 509.982635,305.289032 497.179749,305.289032 
                C497.179749,318.613007 497.179749,332.020477 497.179749,345.711884 
                C490.053070,345.711884 483.313843,345.711884 476.000000,345.711884 
                C476.000000,335.358917 476.000000,324.929443 476.000000,314.000000 
            z"/>
            <path fill="#BB1212" opacity="1.000000" stroke="none" 
                d="
            M664.311401,195.196075 
                C666.063171,189.911957 668.480652,184.946198 668.802551,179.848114 
                C669.473267,169.224411 669.034729,158.530746 669.064575,147.865860 
                C669.064941,147.734756 669.231384,147.604111 669.481018,147.236603 
                C675.388245,147.236603 681.459839,147.236603 688.000000,147.236603 
                C688.000000,156.264618 688.000000,165.209763 688.000000,174.154907 
                C688.000000,186.820084 688.119446,199.486679 687.966675,212.150024 
                C687.811707,224.997574 682.832031,235.455917 671.863831,242.630280 
                C663.989258,247.781052 655.069763,248.604431 646.075562,247.904648 
                C636.946960,247.194397 628.671326,243.609161 621.070923,238.540634 
                C620.264771,238.003052 619.682861,237.129181 618.805603,236.211044 
                C621.931946,232.624847 624.860229,228.886169 628.263245,225.646088 
                C629.051880,224.895203 631.599243,225.489670 633.101074,226.073181 
                C641.217224,229.226578 649.380981,231.750595 658.141113,228.999374 
                C665.500488,226.688095 668.438904,222.036331 667.625427,213.492981 
                C661.026367,217.957932 653.959534,219.392822 646.248169,219.090759 
                C629.266907,218.425583 619.842285,207.945084 618.371521,194.017776 
                C616.749084,178.654648 618.001282,162.987976 618.001282,147.223755 
                C623.414978,147.223755 629.486389,147.223755 636.000000,147.223755 
                C636.000000,157.628403 635.880005,167.911713 636.061279,178.189682 
                C636.130066,182.088318 636.413025,186.105057 637.428528,189.842407 
                C640.562195,201.375656 655.180847,204.361588 664.311401,195.196075 
            z"/>
            <path fill="#BB1212" opacity="1.000000" stroke="none" 
                d="
            M611.965698,272.000000 
                C621.293274,272.330566 629.154358,275.087433 635.842896,282.353760 
                C635.842896,278.900360 635.842896,276.196930 635.842896,273.250366 
                C640.627197,273.250366 645.042725,273.250366 649.731323,273.250366 
                C649.731323,297.301239 649.731323,321.352783 649.731323,345.702637 
                C645.407349,345.702637 641.004272,345.702637 636.207581,345.702637 
                C636.085876,343.296570 635.957336,340.756317 635.799438,337.634003 
                C619.216858,350.998047 602.876587,350.326843 587.124023,337.467804 
                C576.812683,329.050568 573.022949,307.621979 579.401367,293.325562 
                C585.007935,280.758820 595.747620,272.464691 611.965698,272.000000 
            M609.214966,327.741180 
                C615.681213,328.838440 621.883362,327.922546 626.358704,322.978424 
                C633.379883,315.221710 634.418579,306.492310 626.963074,297.241943 
                C622.651245,291.892029 614.033508,287.547455 604.064941,294.014343 
                C597.097595,298.534241 595.260742,305.414459 596.032532,313.202881 
                C596.648254,319.415497 602.385620,325.600037 609.214966,327.741180 
            z"/>
            <path fill="#BB1212" opacity="1.000000" stroke="none" 
                d="
            M516.000000,204.996002 
                C516.000000,210.139023 516.000000,214.782761 516.000000,219.712372 
                C509.051971,219.712372 502.312714,219.712372 495.177429,219.712372 
                C495.177429,192.713669 495.177429,165.644745 495.177429,138.179321 
                C486.056122,138.179321 477.312683,138.179321 468.287170,138.179321 
                C468.287170,131.716003 468.287170,125.644318 468.287170,119.284576 
                C493.288727,119.284576 518.356079,119.284576 543.712280,119.284576 
                C543.712280,125.282753 543.712280,131.354477 543.712280,137.828033 
                C534.715149,137.828033 525.638367,137.828033 516.000000,137.828033 
                C516.000000,160.313263 516.000000,182.404984 516.000000,204.996002 
            z"/>
            <path fill="#BB1212" opacity="1.000000" stroke="none" 
                d="
            M723.935669,321.037292 
                C727.531006,324.526093 730.952881,327.870148 733.842285,331.624023 
                C734.517822,332.501678 733.961975,335.329376 733.002258,336.311584 
                C720.653748,348.948730 700.466370,350.728668 685.755676,341.183746 
                C667.725525,329.484924 663.306213,303.945984 677.186096,286.235413 
                C689.834839,270.095856 714.526855,267.189178 730.532288,280.985168 
                C736.202698,285.872833 736.277832,286.215271 730.804321,291.691803 
                C730.216125,292.280273 729.631226,292.872009 729.043091,293.460480 
                C723.980103,298.526428 723.844421,298.711639 718.180176,294.567688 
                C707.040100,286.417603 689.895508,292.570404 688.062317,309.055115 
                C687.069214,317.985229 696.460083,327.618225 705.501038,328.111176 
                C712.809570,328.509613 718.275085,325.249207 723.935669,321.037292 
            z"/>
            <path fill="#BB1212" opacity="1.000000" stroke="none" 
                d="
            M554.000000,210.962280 
                C554.004333,189.830490 554.007935,169.194626 554.019714,148.558762 
                C554.019897,148.242584 554.121094,147.926483 554.227173,147.305847 
                C558.574036,147.305847 562.975037,147.305847 567.635010,147.305847 
                C568.140198,151.615204 568.663330,156.077789 569.271729,161.267609 
                C576.853699,149.627274 587.786743,145.928284 600.788940,146.000748 
                C600.788940,152.408081 600.788940,158.482147 600.788940,164.486237 
                C596.476807,164.988159 592.237122,165.145126 588.154175,166.027527 
                C579.855652,167.820969 574.066895,175.161423 574.017700,183.612122 
                C573.948059,195.565720 574.000000,207.520035 574.000000,219.736145 
                C567.341431,219.736145 560.942261,219.736145 554.000000,219.736145 
                C554.000000,216.998596 554.000000,214.228409 554.000000,210.962280 
            z"/>
            <path fill="#BB1212" opacity="1.000000" stroke="none" 
                d="
            M348.231506,309.618958 
                C341.915710,298.277863 342.421722,286.643829 345.090393,274.927826 
                C346.467499,268.882111 352.220520,264.581390 359.063385,264.028870 
                C365.122650,263.539581 372.058228,266.509735 374.485657,271.979279 
                C379.326721,282.887390 379.125793,293.945557 375.411469,305.125641 
                C371.766205,316.097900 356.926086,317.772125 348.231506,309.618958 
            M364.001556,275.501984 
                C359.608734,272.802612 357.278229,273.368958 356.028687,278.008179 
                C354.004547,285.523010 353.601257,293.202576 356.071838,300.683044 
                C356.638672,302.399384 359.000458,304.855835 360.257263,304.701416 
                C362.179962,304.465210 365.001556,302.553894 365.449585,300.834534 
                C367.598175,292.588776 368.086975,284.210541 364.001556,275.501984 
            z"/>
            <path fill="#BB1212" opacity="1.000000" stroke="none" 
                d="
            M407.606079,240.996490 
                C396.428009,244.546082 387.982513,239.695297 385.200958,228.938171 
                C382.999115,220.422897 383.067566,211.530502 385.959503,202.904709 
                C388.970490,193.923798 393.270691,191.312500 404.437836,192.000290 
                C410.196075,192.354950 415.397675,197.615158 417.030823,204.374893 
                C419.037109,212.679184 419.047974,220.872314 417.108429,229.234268 
                C415.831329,234.740173 413.131287,238.675690 407.606079,240.996490 
            M399.121948,201.348984 
                C398.081207,203.467209 396.278656,205.537933 396.143036,207.712585 
                C395.742340,214.138885 395.602966,220.645065 396.226257,227.035645 
                C396.432251,229.147690 399.269989,231.003067 400.904449,232.975800 
                C402.618134,231.301529 405.677887,229.726837 405.810394,227.935608 
                C406.357391,220.541748 406.199951,213.075394 405.922089,205.649887 
                C405.791962,202.170929 403.250336,200.783646 399.121948,201.348984 
            z"/>
            <path fill="#BB1212" opacity="1.000000" stroke="none" 
                d="
            M267.000000,216.983276 
                C267.670593,211.386414 267.834473,206.137939 269.150055,201.196060 
                C270.547882,195.945374 274.808350,192.707367 280.107361,192.122559 
                C286.844330,191.379044 293.799774,191.385925 297.413635,198.917389 
                C303.004211,210.568497 302.584656,222.546402 298.066406,234.256668 
                C295.284668,241.466141 288.516296,242.324814 281.674744,241.993347 
                C276.243927,241.730225 270.601746,237.526016 269.119720,231.784134 
                C267.920654,227.138733 267.670868,222.248291 267.000000,216.983276 
            M279.311676,205.159607 
                C279.212006,212.739792 278.782837,220.340576 279.254395,227.885056 
                C279.366241,229.674683 282.498138,231.275543 284.240845,232.963211 
                C285.822845,231.280960 288.650635,229.682495 288.770416,227.901901 
                C289.279205,220.337845 289.218597,212.706238 288.780304,205.133209 
                C288.696167,203.679031 286.085266,201.485703 284.437378,201.283249 
                C283.081879,201.116714 281.425934,203.396210 279.311676,205.159607 
            z"/>
            <path fill="#BB1212" opacity="1.000000" stroke="none" 
                d="
            M238.912598,282.006409 
                C235.559021,284.345459 235.559021,284.345459 229.479721,277.790344 
                C237.617859,272.898682 242.531540,262.440216 254.791016,265.340942 
                C254.791016,281.407959 254.791016,297.464935 254.791016,313.761292 
                C251.291000,313.761292 247.890778,313.761292 244.132446,313.761292 
                C244.132446,301.991455 244.132446,290.272705 244.132446,277.759186 
                C242.126816,279.503815 240.708282,280.737762 238.912598,282.006409 
            z"/>
            <path fill="#BB1212" opacity="1.000000" stroke="none" 
                d="
            M255.000000,215.000031 
                C255.000000,223.795670 255.000000,232.091309 255.000000,240.692841 
                C251.431183,240.692841 248.028656,240.692841 244.139557,240.692841 
                C244.139557,229.336365 244.139557,217.812881 244.139557,205.104126 
                C240.761414,207.875839 238.234024,209.949539 235.436401,212.244934 
                C233.431412,209.808823 231.586624,207.567383 229.639145,205.201157 
                C234.659027,201.090897 239.082520,196.754288 244.214874,193.554733 
                C246.963699,191.841080 250.932892,192.085007 255.000000,191.324173 
                C255.000000,199.645706 255.000000,207.072876 255.000000,215.000031 
            z"/>
            <path fill="#BB1212" opacity="1.000000" stroke="none" 
                d="
            M278.293762,281.218201 
                C276.402496,282.467255 274.794830,283.446869 273.266296,284.378265 
                C271.261688,282.030396 269.607697,280.093170 267.489929,277.612762 
                C275.985138,273.419067 280.660065,262.557434 292.729858,265.276733 
                C292.729858,281.247803 292.729858,297.291992 292.729858,313.668671 
                C289.477905,313.668671 286.077240,313.668671 282.212158,313.668671 
                C282.212158,302.384857 282.212158,290.855438 282.212158,278.166351 
                C280.434357,279.527252 279.505859,280.238007 278.293762,281.218201 
            z"/>
            <path fill="#BB1212" opacity="1.000000" stroke="none" 
                d="
            M361.000000,223.002243 
                C361.000000,217.196411 361.000000,211.889511 361.000000,205.856583 
                C358.078217,208.105850 355.583313,210.026535 352.690582,212.253448 
                C350.899170,210.066193 349.078278,207.842941 346.841034,205.111298 
                C354.935059,200.498337 359.620270,189.847397 371.751831,192.225693 
                C371.751831,208.309647 371.751831,224.376282 371.751831,240.722092 
                C368.370728,240.722092 364.966888,240.722092 361.000000,240.722092 
                C361.000000,235.024475 361.000000,229.262817 361.000000,223.002243 
            z"/>
            <path fill="#BB1212" opacity="1.000000" stroke="none" 
                d="
            M328.842651,313.997742 
                C325.736267,313.999725 323.108307,313.999725 320.155212,313.999725 
                C320.155212,302.645905 320.155212,291.575500 320.155212,279.640564 
                C318.538300,280.261536 317.311493,280.436584 316.475739,281.102478 
                C311.648987,284.948303 310.771790,284.787231 307.589233,279.105591 
                C307.359985,278.696320 307.151520,278.275391 306.954376,277.899841 
                C315.285614,268.299347 321.550018,264.874725 331.000000,265.086212 
                C331.000000,268.136963 331.000000,271.218353 331.000000,274.299774 
                C331.000000,286.261902 331.050415,298.224518 330.926422,310.185364 
                C330.913177,311.460938 329.880676,312.725891 328.842651,313.997742 
            z"/>
            <path fill="#BB1212" opacity="1.000000" stroke="none" 
                d="
            M379.933716,363.422363 
                C373.836578,357.580353 373.856049,350.340302 374.496918,343.256104 
                C374.826508,339.613068 376.213715,335.791016 378.093231,332.626038 
                C381.049408,327.648132 386.791229,327.985565 390.956085,329.413757 
                C394.181824,330.519928 397.910614,334.541840 398.558411,337.830414 
                C399.745667,343.857727 399.839905,350.520325 398.542145,356.518250 
                C396.616364,365.419067 390.581635,366.843628 379.933716,363.422363 
            M388.256500,336.037262 
                C386.772858,336.927704 384.092102,337.715210 384.005188,338.725739 
                C383.536804,344.173401 383.542084,349.685089 383.820007,355.152496 
                C383.870880,356.153198 385.953094,357.812744 387.064606,357.786163 
                C388.209747,357.758789 390.183136,356.131622 390.293610,355.051056 
                C390.930939,348.817017 392.739624,342.410156 388.256500,336.037262 
            z"/>
            <path fill="#BB1212" opacity="1.000000" stroke="none" 
                d="
            M248.198792,331.700073 
                C253.807663,340.336609 254.185638,349.180237 250.978897,358.315613 
                C249.705200,361.944153 247.518768,364.852692 243.254715,364.965485 
                C238.254181,365.097809 232.974640,365.954773 230.290695,359.801361 
                C226.929092,352.094299 226.968918,344.169159 229.335342,336.457581 
                C231.591156,329.106445 238.867661,327.436584 248.198792,331.700073 
            M243.999634,353.856201 
                C243.999603,349.727570 244.334839,345.558929 243.848938,341.488281 
                C243.627548,339.633545 241.783997,337.972473 240.676239,336.223541 
                C239.423950,337.576447 237.238129,338.835815 237.091461,340.299500 
                C236.619720,345.006927 236.651169,349.809662 237.027985,354.532623 
                C237.157974,356.162140 238.870575,357.665436 240.235947,359.818970 
                C241.919083,357.533478 242.956757,356.124451 243.999634,353.856201 
            z"/>
            <path fill="#BB1212" opacity="1.000000" stroke="none" 
                d="
            M307.000000,350.770386 
                C306.030975,361.155914 303.184631,366.276367 293.154572,364.797241 
                C289.998657,364.331818 285.506042,362.115540 284.540985,359.587555 
                C281.335571,351.191071 280.470276,342.189270 285.121490,333.878540 
                C287.458130,329.703491 292.050598,328.534515 296.582153,329.102570 
                C301.257141,329.688629 304.830017,332.583282 305.858002,337.194153 
                C306.804321,341.438873 306.662506,345.926178 307.000000,350.770386 
            M299.000000,350.226959 
                C298.666901,346.665558 298.619873,343.041229 297.856812,339.574463 
                C297.560577,338.228638 295.646545,337.238892 294.469452,336.086945 
                C293.316193,337.501373 291.396332,338.802124 291.166351,340.353424 
                C290.658966,343.776093 290.720490,347.355103 291.088470,350.813019 
                C291.389038,353.637268 292.470337,356.378418 293.205505,359.156403 
                C294.075073,359.209290 294.944641,359.262207 295.814209,359.315094 
                C296.876129,356.585724 297.938049,353.856384 299.000000,350.226959 
            z"/>
            <path fill="#BB1212" opacity="1.000000" stroke="none" 
                d="
            M353.722656,368.092255 
                C366.438782,366.565186 369.109619,373.762115 369.907349,383.898651 
                C370.170563,387.242767 369.660889,390.737579 368.963013,394.049377 
                C367.346283,401.722107 364.240173,404.094818 356.724579,403.999969 
                C350.901306,403.926514 347.138428,400.730743 346.131409,393.622467 
                C345.420135,388.601746 345.973969,383.403351 345.942047,378.284424 
                C345.909637,373.090820 349.554443,370.595093 353.722656,368.092255 
            M361.998138,383.786621 
                C361.663239,382.050690 361.602783,380.194336 360.910065,378.615387 
                C360.312988,377.254456 359.110229,375.414459 357.964447,375.249359 
                C356.826813,375.085449 354.371704,376.682312 354.313782,377.619507 
                C353.968292,383.205933 353.998383,388.833282 354.305969,394.424683 
                C354.356201,395.337585 356.565125,396.966553 357.504730,396.793121 
                C358.799957,396.554077 360.522614,395.093109 360.847076,393.840790 
                C361.613312,390.883606 361.661377,387.740326 361.998138,383.786621 
            z"/>
            <path fill="#BB1212" opacity="1.000000" stroke="none" 
                d="
            M414.605225,403.999542 
                C403.714081,405.072571 399.736694,398.561066 399.998444,389.531769 
                C400.118073,385.404633 399.608948,381.144409 400.467865,377.179138 
                C401.941559,370.375641 405.475189,367.981262 412.091888,368.000000 
                C417.932983,368.016541 422.939148,371.340729 423.592285,377.405396 
                C424.266663,383.667572 423.649597,390.157684 422.864136,396.456635 
                C422.352600,400.558716 419.362885,403.260925 414.605225,403.999542 
            M415.981628,391.951813 
                C415.659821,387.244232 415.517151,382.512207 414.880981,377.847473 
                C414.735443,376.780182 412.986816,375.417755 411.789337,375.195160 
                C411.038177,375.055542 409.248657,376.696289 409.114410,377.697723 
                C408.510498,382.202881 407.950562,386.784302 408.178192,391.297699 
                C408.276489,393.246155 410.320282,395.096436 411.480316,396.991333 
                C412.896332,395.593231 414.312317,394.195160 415.981628,391.951813 
            z"/>
            <path fill="#BB1212" opacity="1.000000" stroke="none" 
                d="
            M422.000000,343.006378 
                C422.000000,350.465912 422.000000,357.427124 422.000000,364.693359 
                C419.093445,364.693359 416.358459,364.693359 413.282806,364.693359 
                C413.282806,356.797150 413.282806,348.723022 413.282806,339.837982 
                C409.176392,342.670319 405.322479,345.093719 403.434479,338.031219 
                C409.046417,334.968811 412.588562,326.922760 422.000000,329.377625 
                C422.000000,333.628479 422.000000,338.068268 422.000000,343.006378 
            z"/>
            <path fill="#BB1212" opacity="1.000000" stroke="none" 
                d="
            M329.000000,354.971130 
                C329.000000,358.445099 329.000000,361.424469 329.000000,364.700043 
                C326.076080,364.700043 323.337433,364.700043 320.237915,364.700043 
                C320.237915,356.763092 320.237915,348.682190 320.237915,339.702484 
                C318.202545,341.468109 316.792328,342.691467 315.375549,343.920471 
                C309.585388,340.303772 309.811829,339.975128 315.036285,335.297485 
                C319.004456,331.744629 322.791748,328.775940 329.000000,330.397156 
                C329.000000,338.256592 329.000000,346.366577 329.000000,354.971130 
            z"/>
            <path fill="#BB1212" opacity="1.000000" stroke="none" 
                d="
            M268.105957,364.997559 
                C267.088898,363.714294 266.105103,362.443726 266.073853,361.150177 
                C265.914062,354.536682 266.000000,347.917297 266.000000,340.557129 
                C263.602417,341.873474 261.709534,342.912750 259.818420,343.954224 
                C258.533630,342.350403 257.247040,340.744324 255.788696,338.923859 
                C261.571747,335.541809 265.008759,327.873322 273.760925,330.350586 
                C273.760925,341.610718 273.760925,352.998291 273.760925,364.999664 
                C272.071198,364.999664 270.324860,364.999664 268.105957,364.997559 
            z"/>
            <path fill="#BB1212" opacity="1.000000" stroke="none" 
                d="
            M383.000000,392.994324 
                C383.000000,388.198853 383.000000,383.897736 383.000000,379.092987 
                C381.027435,380.380890 379.346832,381.478149 377.245941,382.849854 
                C375.881165,381.221405 374.384552,379.435638 372.739288,377.472504 
                C378.769043,374.387421 382.220703,366.570923 390.796997,369.444489 
                C390.796997,380.712585 390.796997,392.099396 390.796997,403.743530 
                C388.333344,403.743530 385.933777,403.743530 383.000000,403.743530 
                C383.000000,400.357727 383.000000,396.923187 383.000000,392.994324 
            z"/>
            <path fill="#BB1212" opacity="1.000000" stroke="none" 
                d="
            M231.485046,402.813446 
                C226.171692,397.925140 226.278717,387.153717 229.042633,381.743683 
                C231.467590,376.997131 236.148346,377.087311 239.758698,378.342010 
                C242.076141,379.147400 243.928741,382.924744 244.816467,385.739868 
                C245.666306,388.434845 245.140244,391.615753 244.973572,394.569275 
                C244.497574,403.003998 239.735336,406.018158 231.485046,402.813446 
            M238.723953,385.195007 
                C237.539139,382.856598 236.018158,381.615143 234.236069,384.519379 
                C232.749924,386.941345 234.474182,396.796021 236.467407,398.878052 
                C239.042252,396.286957 239.042252,396.286957 238.723953,385.195007 
            z"/>
            <path fill="#BB1212" opacity="1.000000" stroke="none" 
                d="
            M310.682251,432.720703 
                C300.954498,436.673431 295.919342,433.251678 296.045837,423.046906 
                C296.087738,419.668030 296.273285,416.196503 297.097015,412.945679 
                C298.127777,408.877716 301.662048,407.658020 305.395630,408.088928 
                C309.499969,408.562592 312.255768,410.604828 313.119080,415.286835 
                C314.239868,421.364990 314.314209,427.063324 310.682251,432.720703 
            M305.291534,414.036499 
                C304.409485,414.316101 302.762482,414.588867 302.759918,414.876312 
                C302.720398,419.306458 302.854553,423.740814 303.106903,428.165131 
                C303.124268,428.469879 304.572784,429.094940 305.041748,428.881439 
                C305.821106,428.526672 306.908813,427.592316 306.885712,426.936646 
                C306.739685,422.792023 306.323730,418.656921 305.291534,414.036499 
            z"/>
            <path fill="#BB1212" opacity="1.000000" stroke="none" 
                d="
            M254.479736,379.025269 
                C256.671387,378.422668 258.545105,378.073792 260.734833,377.666077 
                C260.734833,386.612366 260.734833,395.134888 260.734833,403.813843 
                C258.852997,403.813843 257.121063,403.813843 255.169250,403.813843 
                C255.169250,398.036255 255.169250,392.437042 255.169250,386.260071 
                C252.074707,388.060669 249.086288,389.665344 247.963455,384.386169 
                C249.937515,382.759613 252.049652,381.019287 254.479736,379.025269 
            z"/>
            <path fill="#BB1212" opacity="1.000000" stroke="none" 
                d="
            M329.000000,422.985229 
                C329.000000,426.783478 329.000000,430.086731 329.000000,433.767456 
                C327.088440,433.866882 325.350464,433.957245 323.132477,434.072601 
                C323.132477,428.364532 323.132477,422.819763 323.132477,416.546875 
                C321.296417,417.624756 320.130341,418.309326 318.340057,419.360321 
                C317.549927,417.827148 316.092285,416.305695 316.186096,414.886841 
                C316.342682,412.519165 324.578888,408.973145 329.000000,409.170593 
                C329.000000,413.592957 329.000000,418.041595 329.000000,422.985229 
            z"/>
            <path fill="#000000" opacity="0.000000" stroke="none" 
                d="
            M634.107544,405.021576 
                C639.708069,405.615814 644.255188,407.460907 647.364502,411.888062 
                C648.514465,413.525330 649.443970,415.317383 650.868652,417.698486 
                C639.674744,417.698486 629.499878,417.698486 619.323181,417.698486 
                C619.484558,411.423523 623.515564,407.999084 630.486633,406.004425 
                C631.558960,405.697571 632.622803,405.360565 634.107544,405.021576 
            z"/>
            <path fill="#000000" opacity="0.000000" stroke="none" 
                d="
            M608.924561,327.434052 
                C602.385620,325.600037 596.648254,319.415497 596.032532,313.202881 
                C595.260742,305.414459 597.097595,298.534241 604.064941,294.014343 
                C614.033508,287.547455 622.651245,291.892029 626.963074,297.241943 
                C634.418579,306.492310 633.379883,315.221710 626.358704,322.978424 
                C621.883362,327.922546 615.681213,328.838440 608.924561,327.434052 
            z"/>
            <path fill="#000000" opacity="0.000000" stroke="none" 
                d="
            M364.295227,275.787933 
                C368.086975,284.210541 367.598175,292.588776 365.449585,300.834534 
                C365.001556,302.553894 362.179962,304.465210 360.257263,304.701416 
                C359.000458,304.855835 356.638672,302.399384 356.071838,300.683044 
                C353.601257,293.202576 354.004547,285.523010 356.028687,278.008179 
                C357.278229,273.368958 359.608734,272.802612 364.295227,275.787933 
            z"/>
            <path fill="#000000" opacity="0.000000" stroke="none" 
                d="
            M399.492035,201.187256 
                C403.250336,200.783646 405.791962,202.170929 405.922089,205.649887 
                C406.199951,213.075394 406.357391,220.541748 405.810394,227.935608 
                C405.677887,229.726837 402.618134,231.301529 400.904449,232.975800 
                C399.269989,231.003067 396.432251,229.147690 396.226257,227.035645 
                C395.602966,220.645065 395.742340,214.138885 396.143036,207.712585 
                C396.278656,205.537933 398.081207,203.467209 399.492035,201.187256 
            z"/>
            <path fill="#000000" opacity="0.000000" stroke="none" 
                d="
            M279.607422,204.875610 
                C281.425934,203.396210 283.081879,201.116714 284.437378,201.283249 
                C286.085266,201.485703 288.696167,203.679031 288.780304,205.133209 
                C289.218597,212.706238 289.279205,220.337845 288.770416,227.901901 
                C288.650635,229.682495 285.822845,231.280960 284.240845,232.963226 
                C282.498138,231.275543 279.366241,229.674683 279.254395,227.885056 
                C278.782837,220.340576 279.212006,212.739792 279.607422,204.875610 
            z"/>
            <path fill="#000000" opacity="0.000000" stroke="none" 
                d="
            M388.613647,336.253784 
                C392.739624,342.410156 390.930939,348.817017 390.293610,355.051056 
                C390.183136,356.131622 388.209747,357.758789 387.064606,357.786163 
                C385.953094,357.812744 383.870880,356.153198 383.820007,355.152496 
                C383.542084,349.685089 383.536804,344.173401 384.005188,338.725739 
                C384.092102,337.715210 386.772858,336.927704 388.613647,336.253784 
            z"/>
            <path fill="#000000" opacity="0.000000" stroke="none" 
                d="
            M243.997040,354.285797 
                C242.956757,356.124451 241.919083,357.533478 240.235947,359.818970 
                C238.870575,357.665436 237.157974,356.162140 237.027985,354.532623 
                C236.651169,349.809662 236.619720,345.006927 237.091461,340.299500 
                C237.238129,338.835815 239.423950,337.576447 240.676239,336.223541 
                C241.783997,337.972473 243.627548,339.633545 243.848938,341.488281 
                C244.334839,345.558929 243.999603,349.727570 243.997040,354.285797 
            z"/>
            <path fill="#000000" opacity="0.000000" stroke="none" 
                d="
            M299.000000,350.677002 
                C297.938049,353.856384 296.876129,356.585724 295.814209,359.315094 
                C294.944641,359.262207 294.075073,359.209290 293.205505,359.156403 
                C292.470337,356.378418 291.389038,353.637268 291.088470,350.813019 
                C290.720490,347.355103 290.658966,343.776093 291.166351,340.353424 
                C291.396332,338.802124 293.316193,337.501373 294.469452,336.086945 
                C295.646545,337.238892 297.560577,338.228638 297.856812,339.574463 
                C298.619873,343.041229 298.666901,346.665558 299.000000,350.677002 
            z"/>
            <path fill="#000000" opacity="0.000000" stroke="none" 
                d="
            M361.999023,384.229462 
                C361.661377,387.740326 361.613312,390.883606 360.847076,393.840790 
                C360.522614,395.093109 358.799957,396.554077 357.504730,396.793121 
                C356.565125,396.966553 354.356201,395.337585 354.305969,394.424683 
                C353.998383,388.833282 353.968292,383.205933 354.313782,377.619507 
                C354.371704,376.682312 356.826813,375.085449 357.964447,375.249359 
                C359.110229,375.414459 360.312988,377.254456 360.910065,378.615387 
                C361.602783,380.194336 361.663239,382.050690 361.999023,384.229462 
            z"/>
            <path fill="#000000" opacity="0.000000" stroke="none" 
                d="
            M415.854980,392.374451 
                C414.312317,394.195160 412.896332,395.593231 411.480286,396.991333 
                C410.320282,395.096436 408.276489,393.246155 408.178192,391.297699 
                C407.950562,386.784302 408.510498,382.202881 409.114410,377.697723 
                C409.248657,376.696289 411.038177,375.055542 411.789337,375.195160 
                C412.986816,375.417755 414.735443,376.780182 414.880981,377.847473 
                C415.517151,382.512207 415.659821,387.244232 415.854980,392.374451 
            z"/>
            <path fill="#000000" opacity="0.000000" stroke="none" 
                d="
            M238.852386,385.619629 
                C239.042252,396.286957 239.042252,396.286957 236.467407,398.878052 
                C234.474182,396.796021 232.749924,386.941345 234.236069,384.519379 
                C236.018158,381.615143 237.539139,382.856598 238.852386,385.619629 
            z"/>
            <path fill="#000000" opacity="0.000000" stroke="none" 
                d="
            M305.644226,414.277588 
                C306.323730,418.656921 306.739685,422.792023 306.885712,426.936646 
                C306.908813,427.592316 305.821106,428.526672 305.041748,428.881439 
                C304.572784,429.094940 303.124268,428.469879 303.106903,428.165131 
                C302.854553,423.740814 302.720398,419.306458 302.759918,414.876312 
                C302.762482,414.588867 304.409485,414.316101 305.644226,414.277588 
            z"/>
            </svg>
        </symbol>
        <symbol id="udemy">
            <svg viewBox="0 0 91 34" fill="none" xmlns="http://www.w3.org/2000/svg">
                <path d="M14.05 8.112L7.024 4.056 0 8.112V4.056L7.025 0l7.026 4.056v4.056h-.001z" fill="#A435F0"/>
                <path d="M0 11.518h3.68v8.941c0 2.31 1.725 3.436 3.345 3.436 1.634 0 3.346-1.156 3.346-3.467v-8.91h3.68v9.154c0 2.128-.669 3.77-2.007 4.896-1.339 1.125-3.011 1.673-5.05 1.673-2.037 0-3.71-.547-5.017-1.673C.669 24.443 0 22.862 0 20.763v-9.245zM45.866 22.63c-1.114.992-2.383 1.478-3.83 1.478-2.64 0-4.41-1.504-4.61-3.833h11.89s.08-.752.08-1.458c0-2.19-.7-4.015-2.13-5.505-1.398-1.49-3.222-2.22-5.443-2.22-2.341 0-4.258.73-5.779 2.22-1.49 1.49-2.25 3.436-2.25 5.87v.12c0 2.403.76 4.319 2.25 5.749 1.49 1.429 3.467 2.159 5.87 2.159 2.794 0 5.017-1.102 6.685-3.002l-2.733-1.578zm-6.994-7.463c.82-.639 1.825-.973 2.95-.973 1.064 0 1.946.334 2.707 1.004.726.61 1.118 1.359 1.152 2.22H37.52c.118-.89.568-1.64 1.353-2.25zM82.91 29.276C81.417 32.801 79.855 34 77.46 34H75.8v-3.262h1.342c.824 0 1.59-.31 2.32-1.994l.73-1.686-6.296-15.54h3.741l4.471 11.192 4.593-11.192h3.74l-7.53 17.758zM28.377 5.649v7.257c-1.206-1.08-3.082-1.723-4.896-1.723-2.16 0-3.984.76-5.474 2.31-1.46 1.521-2.19 3.406-2.19 5.687 0 2.282.73 4.167 2.19 5.718 1.49 1.521 3.315 2.282 5.474 2.282 2.49 0 4.064-.979 4.896-1.746v1.411h3.65V5.65h-3.65zm-1.095 16.878c-.882.882-2.007 1.339-3.315 1.339-1.308 0-2.372-.457-3.254-1.339-.85-.882-1.277-2.007-1.277-3.345 0-1.339.426-2.464 1.277-3.346.882-.882 1.946-1.338 3.254-1.338s2.433.456 3.315 1.338c.912.882 1.37 2.007 1.37 3.346 0 1.338-.458 2.463-1.37 3.345zM68.222 11.214c-2.772 0-4.213 1.15-5.2 2.258-.395-.753-1.507-2.258-4.105-2.258-2.196 0-3.49 1.11-4.136 1.9V11.52h-3.618v15.327h3.618v-8.82c0-2.068 1.278-3.558 2.98-3.558 1.735 0 2.738 1.308 2.738 3.406v8.971h3.619v-8.82c0-2.098 1.246-3.558 3.04-3.558 1.734 0 2.737 1.308 2.737 3.405v8.972h3.65v-9.488c0-3.996-2.148-6.142-5.323-6.142z" fill="#565266"/></svg>
        </symbol>
    </defs>
</svg>