<svg xmlns="http://www.w3.org/2000/svg" xmlns:xlink="http://www.w3.org/1999/xlink" width="500" zoomAndPan="magnify" viewBox="0 0 375 374.999991" height="500" preserveAspectRatio="xMidYMid meet" version="1.0"><defs><g/><clipPath id="d14e5ebf08"><path d="M 0.410156 0.410156 L 375 0.410156 L 375 375 L 0.410156 375 Z M 0.410156 0.410156 " clip-rule="nonzero"/></clipPath><clipPath id="fad2a71d8f"><path d="M 187.703125 0.410156 C 84.265625 0.410156 0.410156 84.265625 0.410156 187.703125 C 0.410156 291.144531 84.265625 375 187.703125 375 C 291.144531 375 375 291.144531 375 187.703125 C 375 84.265625 291.144531 0.410156 187.703125 0.410156 Z M 187.703125 0.410156 " clip-rule="nonzero"/></clipPath></defs><g clip-path="url(#d14e5ebf08)"><g clip-path="url(#fad2a71d8f)"><path fill="#ffffff" d="M 0.410156 0.410156 L 375 0.410156 L 375 375 L 0.410156 375 Z M 0.410156 0.410156 " fill-opacity="1" fill-rule="nonzero"/></g></g><g fill="#000000" fill-opacity="1"><g transform="translate(25.415042, 248.252914)"><g><path d="M 49.25 17.8125 L 35.3125 17.8125 C 28.726562 17.8125 23.757812 15.570312 20.40625 11.09375 C 17.0625 6.613281 15.390625 0.539062 15.390625 -7.125 L 15.390625 -38.234375 C 15.390625 -43.421875 14.253906 -47.007812 11.984375 -49 C 9.722656 -51 7.023438 -52.484375 3.890625 -53.453125 L 3.890625 -69.984375 C 7.023438 -70.953125 9.722656 -72.4375 11.984375 -74.4375 C 14.253906 -76.4375 15.390625 -80.03125 15.390625 -85.21875 L 15.390625 -116.3125 C 15.390625 -123.976562 17.0625 -130.050781 20.40625 -134.53125 C 23.757812 -139.019531 28.726562 -141.265625 35.3125 -141.265625 L 49.25 -141.265625 L 49.25 -126.84375 L 42.765625 -126.84375 C 39.421875 -126.84375 37.15625 -125.757812 35.96875 -123.59375 C 34.78125 -121.4375 34.1875 -118.847656 34.1875 -115.828125 L 34.1875 -84.71875 C 34.1875 -78.132812 32.914062 -73.03125 30.375 -69.40625 C 27.832031 -65.789062 24.347656 -63.226562 19.921875 -61.71875 C 24.347656 -60.207031 27.832031 -57.671875 30.375 -54.109375 C 32.914062 -50.546875 34.1875 -45.414062 34.1875 -38.71875 L 34.1875 -7.609375 C 34.1875 -4.585938 34.78125 -2 35.96875 0.15625 C 37.15625 2.320312 39.421875 3.40625 42.765625 3.40625 L 49.25 3.40625 Z M 49.25 17.8125 "/></g></g></g><g fill="#000000" fill-opacity="1"><g transform="translate(78.389053, 248.252914)"><g><path d="M 39.53125 0 L 17.5 0 L 17.5 -73.390625 L 3.71875 -73.390625 L 3.71875 -90.875 L 17.5 -90.875 L 17.5 -100.109375 C 17.5 -107.671875 19.628906 -113.476562 23.890625 -117.53125 C 28.160156 -121.582031 34.398438 -123.609375 42.609375 -123.609375 L 56.21875 -123.609375 L 56.21875 -106.265625 L 47.796875 -106.265625 C 45.410156 -106.265625 43.4375 -105.585938 41.875 -104.234375 C 40.3125 -102.890625 39.53125 -100.488281 39.53125 -97.03125 L 39.53125 -90.875 L 56.21875 -90.875 L 56.21875 -73.390625 L 39.53125 -73.390625 Z M 39.53125 0 "/></g></g></g><g fill="#000000" fill-opacity="1"><g transform="translate(138.005076, 248.252914)"><g><path d="M 36.125 17.8125 L 18.140625 17.8125 L 18.140625 -141.265625 L 36.125 -141.265625 Z M 36.125 17.8125 "/></g></g></g><g fill="#000000" fill-opacity="1"><g transform="translate(192.437099, 248.252914)"><g><path d="M 46.5 1.78125 C 38.613281 1.78125 31.644531 -0.210938 25.59375 -4.203125 C 19.550781 -8.203125 14.851562 -13.765625 11.5 -20.890625 C 8.15625 -28.023438 6.484375 -36.234375 6.484375 -45.515625 C 6.484375 -54.804688 8.15625 -63.015625 11.5 -70.140625 C 14.851562 -77.273438 19.550781 -82.835938 25.59375 -86.828125 C 31.644531 -90.828125 38.613281 -92.828125 46.5 -92.828125 C 51.894531 -92.828125 56.617188 -91.878906 60.671875 -89.984375 C 64.722656 -88.097656 68.582031 -84.5625 72.25 -79.375 L 72.25 -123.609375 L 94.125 -123.609375 L 94.125 0 L 72.25 0 L 72.25 -11.5 C 68.582031 -6.425781 64.722656 -2.941406 60.671875 -1.046875 C 56.617188 0.835938 51.894531 1.78125 46.5 1.78125 Z M 51.515625 -17.015625 C 58.535156 -17.015625 64.203125 -19.660156 68.515625 -24.953125 C 72.835938 -30.242188 75 -37.097656 75 -45.515625 C 75 -53.941406 72.835938 -60.800781 68.515625 -66.09375 C 64.203125 -71.382812 58.535156 -74.03125 51.515625 -74.03125 C 44.597656 -74.03125 39.035156 -71.359375 34.828125 -66.015625 C 30.617188 -60.671875 28.515625 -53.835938 28.515625 -45.515625 C 28.515625 -37.304688 30.617188 -30.503906 34.828125 -25.109375 C 39.035156 -19.710938 44.597656 -17.015625 51.515625 -17.015625 Z M 51.515625 -17.015625 "/></g></g></g><g fill="#000000" fill-opacity="1"><g transform="translate(296.603127, 248.252914)"><g><path d="M 17.65625 17.8125 L 3.890625 17.8125 L 3.890625 3.40625 L 10.203125 3.40625 C 13.660156 3.40625 15.957031 2.320312 17.09375 0.15625 C 18.226562 -2 18.796875 -4.585938 18.796875 -7.609375 L 18.796875 -38.71875 C 18.796875 -45.414062 20.085938 -50.546875 22.671875 -54.109375 C 25.265625 -57.671875 28.722656 -60.207031 33.046875 -61.71875 C 28.722656 -63.226562 25.265625 -65.789062 22.671875 -69.40625 C 20.085938 -73.03125 18.796875 -78.132812 18.796875 -84.71875 L 18.796875 -115.828125 C 18.796875 -118.847656 18.226562 -121.4375 17.09375 -123.59375 C 15.957031 -125.757812 13.660156 -126.84375 10.203125 -126.84375 L 3.890625 -126.84375 L 3.890625 -141.265625 L 17.65625 -141.265625 C 24.351562 -141.265625 29.347656 -139.019531 32.640625 -134.53125 C 35.929688 -130.050781 37.578125 -123.976562 37.578125 -116.3125 L 37.578125 -85.21875 C 37.578125 -80.03125 38.738281 -76.4375 41.0625 -74.4375 C 43.382812 -72.4375 46.0625 -70.953125 49.09375 -69.984375 L 49.09375 -53.453125 C 46.0625 -52.484375 43.382812 -51 41.0625 -49 C 38.738281 -47.007812 37.578125 -43.421875 37.578125 -38.234375 L 37.578125 -7.125 C 37.578125 0.539062 35.929688 6.613281 32.640625 11.09375 C 29.347656 15.570312 24.351562 17.8125 17.65625 17.8125 Z M 17.65625 17.8125 "/></g></g></g></svg>