<svg xmlns="http://www.w3.org/2000/svg" xmlns:xlink="http://www.w3.org/1999/xlink" width="500" zoomAndPan="magnify" viewBox="0 0 375 374.999991" height="500" preserveAspectRatio="xMidYMid meet" version="1.0"><defs><g/></defs><g fill="#000000" fill-opacity="1"><g transform="translate(0.410161, 257.630841)"><g><path d="M 56.84375 20.5625 L 40.765625 20.5625 C 33.160156 20.5625 27.425781 17.972656 23.5625 12.796875 C 19.695312 7.628906 17.765625 0.617188 17.765625 -8.234375 L 17.765625 -44.125 C 17.765625 -50.113281 16.453125 -54.257812 13.828125 -56.5625 C 11.210938 -58.875 8.097656 -60.585938 4.484375 -61.703125 L 4.484375 -80.78125 C 8.097656 -81.90625 11.210938 -83.617188 13.828125 -85.921875 C 16.453125 -88.234375 17.765625 -92.378906 17.765625 -98.359375 L 17.765625 -134.265625 C 17.765625 -143.117188 19.695312 -150.128906 23.5625 -155.296875 C 27.425781 -160.472656 33.160156 -163.0625 40.765625 -163.0625 L 56.84375 -163.0625 L 56.84375 -146.421875 L 49.375 -146.421875 C 45.507812 -146.421875 42.890625 -145.171875 41.515625 -142.671875 C 40.140625 -140.179688 39.453125 -137.191406 39.453125 -133.703125 L 39.453125 -97.796875 C 39.453125 -90.191406 37.988281 -84.300781 35.0625 -80.125 C 32.132812 -75.945312 28.113281 -72.988281 23 -71.25 C 28.113281 -69.5 32.132812 -66.566406 35.0625 -62.453125 C 37.988281 -58.335938 39.453125 -52.414062 39.453125 -44.6875 L 39.453125 -8.78125 C 39.453125 -5.289062 40.140625 -2.300781 41.515625 0.1875 C 42.890625 2.675781 45.507812 3.921875 49.375 3.921875 L 56.84375 3.921875 Z M 56.84375 20.5625 "/></g></g></g><g fill="#000000" fill-opacity="1"><g transform="translate(61.557885, 257.630841)"><g><path d="M 45.625 0 L 20.203125 0 L 20.203125 -84.71875 L 4.296875 -84.71875 L 4.296875 -104.90625 L 20.203125 -104.90625 L 20.203125 -115.5625 C 20.203125 -124.289062 22.660156 -130.992188 27.578125 -135.671875 C 32.503906 -140.347656 39.707031 -142.6875 49.1875 -142.6875 L 64.890625 -142.6875 L 64.890625 -122.671875 L 55.171875 -122.671875 C 52.421875 -122.671875 50.140625 -121.890625 48.328125 -120.328125 C 46.523438 -118.773438 45.625 -116.003906 45.625 -112.015625 L 45.625 -104.90625 L 64.890625 -104.90625 L 64.890625 -84.71875 L 45.625 -84.71875 Z M 45.625 0 "/></g></g></g><g fill="#000000" fill-opacity="1"><g transform="translate(130.372452, 257.630841)"><g><path d="M 41.703125 20.5625 L 20.9375 20.5625 L 20.9375 -163.0625 L 41.703125 -163.0625 Z M 41.703125 20.5625 "/></g></g></g><g fill="#000000" fill-opacity="1"><g transform="translate(193.203132, 257.630841)"><g><path d="M 53.671875 2.0625 C 44.566406 2.0625 36.523438 -0.242188 29.546875 -4.859375 C 22.566406 -9.472656 17.144531 -15.894531 13.28125 -24.125 C 9.414062 -32.351562 7.484375 -41.828125 7.484375 -52.546875 C 7.484375 -63.265625 9.414062 -72.738281 13.28125 -80.96875 C 17.144531 -89.195312 22.566406 -95.617188 29.546875 -100.234375 C 36.523438 -104.847656 44.566406 -107.15625 53.671875 -107.15625 C 59.898438 -107.15625 65.351562 -106.0625 70.03125 -103.875 C 74.707031 -101.695312 79.164062 -97.613281 83.40625 -91.625 L 83.40625 -142.6875 L 108.640625 -142.6875 L 108.640625 0 L 83.40625 0 L 83.40625 -13.28125 C 79.164062 -7.414062 74.707031 -3.390625 70.03125 -1.203125 C 65.351562 0.972656 59.898438 2.0625 53.671875 2.0625 Z M 59.46875 -19.640625 C 67.570312 -19.640625 74.113281 -22.691406 79.09375 -28.796875 C 84.082031 -34.910156 86.578125 -42.828125 86.578125 -52.546875 C 86.578125 -62.273438 84.082031 -70.191406 79.09375 -76.296875 C 74.113281 -82.398438 67.570312 -85.453125 59.46875 -85.453125 C 51.488281 -85.453125 45.066406 -82.367188 40.203125 -76.203125 C 35.335938 -70.035156 32.90625 -62.148438 32.90625 -52.546875 C 32.90625 -43.066406 35.335938 -35.210938 40.203125 -28.984375 C 45.066406 -22.753906 51.488281 -19.640625 59.46875 -19.640625 Z M 59.46875 -19.640625 "/></g></g></g><g fill="#000000" fill-opacity="1"><g transform="translate(313.441619, 257.630841)"><g><path d="M 20.390625 20.5625 L 4.484375 20.5625 L 4.484375 3.921875 L 11.78125 3.921875 C 15.769531 3.921875 18.414062 2.675781 19.71875 0.1875 C 21.03125 -2.300781 21.6875 -5.289062 21.6875 -8.78125 L 21.6875 -44.6875 C 21.6875 -52.414062 23.179688 -58.335938 26.171875 -62.453125 C 29.171875 -66.566406 33.160156 -69.5 38.140625 -71.25 C 33.160156 -72.988281 29.171875 -75.945312 26.171875 -80.125 C 23.179688 -84.300781 21.6875 -90.191406 21.6875 -97.796875 L 21.6875 -133.703125 C 21.6875 -137.191406 21.03125 -140.179688 19.71875 -142.671875 C 18.414062 -145.171875 15.769531 -146.421875 11.78125 -146.421875 L 4.484375 -146.421875 L 4.484375 -163.0625 L 20.390625 -163.0625 C 28.117188 -163.0625 33.882812 -160.472656 37.6875 -155.296875 C 41.488281 -150.128906 43.390625 -143.117188 43.390625 -134.265625 L 43.390625 -98.359375 C 43.390625 -92.378906 44.726562 -88.234375 47.40625 -85.921875 C 50.082031 -83.617188 53.164062 -81.90625 56.65625 -80.78125 L 56.65625 -61.703125 C 53.164062 -60.585938 50.082031 -58.875 47.40625 -56.5625 C 44.726562 -54.257812 43.390625 -50.113281 43.390625 -44.125 L 43.390625 -8.234375 C 43.390625 0.617188 41.488281 7.628906 37.6875 12.796875 C 33.882812 17.972656 28.117188 20.5625 20.390625 20.5625 Z M 20.390625 20.5625 "/></g></g></g></svg>