<svg xmlns="http://www.w3.org/2000/svg" xmlns:xlink="http://www.w3.org/1999/xlink" width="500" zoomAndPan="magnify" viewBox="0 0 375 374.999991" height="500" preserveAspectRatio="xMidYMid meet" version="1.0"><defs><g/></defs><g fill="#ff0000" fill-opacity="1"><g transform="translate(10.816079, 256.476538)"><g><path d="M 54.71875 19.796875 L 39.234375 19.796875 C 31.921875 19.796875 26.398438 17.304688 22.671875 12.328125 C 18.953125 7.347656 17.09375 0.597656 17.09375 -7.921875 L 17.09375 -42.484375 C 17.09375 -48.242188 15.832031 -52.234375 13.3125 -54.453125 C 10.800781 -56.671875 7.800781 -58.320312 4.3125 -59.40625 L 4.3125 -77.765625 C 7.800781 -78.835938 10.800781 -80.484375 13.3125 -82.703125 C 15.832031 -84.929688 17.09375 -88.925781 17.09375 -94.6875 L 17.09375 -129.234375 C 17.09375 -137.753906 18.953125 -144.503906 22.671875 -149.484375 C 26.398438 -154.460938 31.921875 -156.953125 39.234375 -156.953125 L 54.71875 -156.953125 L 54.71875 -140.9375 L 47.515625 -140.9375 C 43.796875 -140.9375 41.273438 -139.734375 39.953125 -137.328125 C 38.640625 -134.929688 37.984375 -132.054688 37.984375 -128.703125 L 37.984375 -94.140625 C 37.984375 -86.816406 36.570312 -81.144531 33.75 -77.125 C 30.925781 -73.101562 27.054688 -70.253906 22.140625 -68.578125 C 27.054688 -66.898438 30.925781 -64.082031 33.75 -60.125 C 36.570312 -56.164062 37.984375 -50.460938 37.984375 -43.015625 L 37.984375 -8.453125 C 37.984375 -5.097656 38.640625 -2.222656 39.953125 0.171875 C 41.273438 2.578125 43.796875 3.78125 47.515625 3.78125 L 54.71875 3.78125 Z M 54.71875 19.796875 "/></g></g><g transform="translate(69.676075, 256.476538)"><g><path d="M 43.921875 0 L 19.4375 0 L 19.4375 -81.546875 L 4.140625 -81.546875 L 4.140625 -100.984375 L 19.4375 -100.984375 L 19.4375 -111.234375 C 19.4375 -119.640625 21.804688 -126.09375 26.546875 -130.59375 C 31.285156 -135.09375 38.21875 -137.34375 47.34375 -137.34375 L 62.453125 -137.34375 L 62.453125 -118.078125 L 53.09375 -118.078125 C 50.457031 -118.078125 48.269531 -117.328125 46.53125 -115.828125 C 44.789062 -114.328125 43.921875 -111.65625 43.921875 -107.8125 L 43.921875 -100.984375 L 62.453125 -100.984375 L 62.453125 -81.546875 L 43.921875 -81.546875 Z M 43.921875 0 "/></g></g></g><g fill="#ff0000" fill-opacity="1"><g transform="translate(135.916073, 256.476538)"><g><path d="M 40.140625 19.796875 L 20.15625 19.796875 L 20.15625 -156.953125 L 40.140625 -156.953125 Z M 40.140625 19.796875 "/></g></g><g transform="translate(196.396069, 256.476538)"><g><path d="M 51.65625 1.984375 C 42.894531 1.984375 35.15625 -0.234375 28.4375 -4.671875 C 21.71875 -9.117188 16.5 -15.300781 12.78125 -23.21875 C 9.0625 -31.132812 7.203125 -40.253906 7.203125 -50.578125 C 7.203125 -60.898438 9.0625 -70.019531 12.78125 -77.9375 C 16.5 -85.851562 21.71875 -92.03125 28.4375 -96.46875 C 35.15625 -100.914062 42.894531 -103.140625 51.65625 -103.140625 C 57.65625 -103.140625 62.90625 -102.085938 67.40625 -99.984375 C 71.90625 -97.890625 76.195312 -93.960938 80.28125 -88.203125 L 80.28125 -137.34375 L 104.578125 -137.34375 L 104.578125 0 L 80.28125 0 L 80.28125 -12.78125 C 76.195312 -7.132812 71.90625 -3.257812 67.40625 -1.15625 C 62.90625 0.9375 57.65625 1.984375 51.65625 1.984375 Z M 57.234375 -18.90625 C 65.035156 -18.90625 71.335938 -21.84375 76.140625 -27.71875 C 80.941406 -33.601562 83.34375 -41.222656 83.34375 -50.578125 C 83.34375 -59.941406 80.941406 -67.5625 76.140625 -73.4375 C 71.335938 -79.320312 65.035156 -82.265625 57.234375 -82.265625 C 49.554688 -82.265625 43.378906 -79.289062 38.703125 -73.34375 C 34.023438 -67.40625 31.6875 -59.816406 31.6875 -50.578125 C 31.6875 -41.460938 34.023438 -33.90625 38.703125 -27.90625 C 43.378906 -21.90625 49.554688 -18.90625 57.234375 -18.90625 Z M 57.234375 -18.90625 "/></g></g></g><g fill="#ff0000" fill-opacity="1"><g transform="translate(312.136068, 256.476538)"><g><path d="M 19.625 19.796875 L 4.3125 19.796875 L 4.3125 3.78125 L 11.34375 3.78125 C 15.175781 3.78125 17.722656 2.578125 18.984375 0.171875 C 20.242188 -2.222656 20.875 -5.097656 20.875 -8.453125 L 20.875 -43.015625 C 20.875 -50.460938 22.3125 -56.164062 25.1875 -60.125 C 28.070312 -64.082031 31.914062 -66.898438 36.71875 -68.578125 C 31.914062 -70.253906 28.070312 -73.101562 25.1875 -77.125 C 22.3125 -81.144531 20.875 -86.816406 20.875 -94.140625 L 20.875 -128.703125 C 20.875 -132.054688 20.242188 -134.929688 18.984375 -137.328125 C 17.722656 -139.734375 15.175781 -140.9375 11.34375 -140.9375 L 4.3125 -140.9375 L 4.3125 -156.953125 L 19.625 -156.953125 C 27.0625 -156.953125 32.609375 -154.460938 36.265625 -149.484375 C 39.929688 -144.503906 41.765625 -137.753906 41.765625 -129.234375 L 41.765625 -94.6875 C 41.765625 -88.925781 43.050781 -84.929688 45.625 -82.703125 C 48.207031 -80.484375 51.179688 -78.835938 54.546875 -77.765625 L 54.546875 -59.40625 C 51.179688 -58.320312 48.207031 -56.671875 45.625 -54.453125 C 43.050781 -52.234375 41.765625 -48.242188 41.765625 -42.484375 L 41.765625 -7.921875 C 41.765625 0.597656 39.929688 7.347656 36.265625 12.328125 C 32.609375 17.304688 27.0625 19.796875 19.625 19.796875 Z M 19.625 19.796875 "/></g></g></g><g fill="#00ffff" fill-opacity="1"><g transform="translate(3.9935, 255.026357)"><g><path d="M 54.71875 19.796875 L 39.234375 19.796875 C 31.921875 19.796875 26.398438 17.304688 22.671875 12.328125 C 18.953125 7.347656 17.09375 0.597656 17.09375 -7.921875 L 17.09375 -42.484375 C 17.09375 -48.242188 15.832031 -52.234375 13.3125 -54.453125 C 10.800781 -56.671875 7.800781 -58.320312 4.3125 -59.40625 L 4.3125 -77.765625 C 7.800781 -78.835938 10.800781 -80.484375 13.3125 -82.703125 C 15.832031 -84.929688 17.09375 -88.925781 17.09375 -94.6875 L 17.09375 -129.234375 C 17.09375 -137.753906 18.953125 -144.503906 22.671875 -149.484375 C 26.398438 -154.460938 31.921875 -156.953125 39.234375 -156.953125 L 54.71875 -156.953125 L 54.71875 -140.9375 L 47.515625 -140.9375 C 43.796875 -140.9375 41.273438 -139.734375 39.953125 -137.328125 C 38.640625 -134.929688 37.984375 -132.054688 37.984375 -128.703125 L 37.984375 -94.140625 C 37.984375 -86.816406 36.570312 -81.144531 33.75 -77.125 C 30.925781 -73.101562 27.054688 -70.253906 22.140625 -68.578125 C 27.054688 -66.898438 30.925781 -64.082031 33.75 -60.125 C 36.570312 -56.164062 37.984375 -50.460938 37.984375 -43.015625 L 37.984375 -8.453125 C 37.984375 -5.097656 38.640625 -2.222656 39.953125 0.171875 C 41.273438 2.578125 43.796875 3.78125 47.515625 3.78125 L 54.71875 3.78125 Z M 54.71875 19.796875 "/></g></g><g transform="translate(62.853496, 255.026357)"><g><path d="M 43.921875 0 L 19.4375 0 L 19.4375 -81.546875 L 4.140625 -81.546875 L 4.140625 -100.984375 L 19.4375 -100.984375 L 19.4375 -111.234375 C 19.4375 -119.640625 21.804688 -126.09375 26.546875 -130.59375 C 31.285156 -135.09375 38.21875 -137.34375 47.34375 -137.34375 L 62.453125 -137.34375 L 62.453125 -118.078125 L 53.09375 -118.078125 C 50.457031 -118.078125 48.269531 -117.328125 46.53125 -115.828125 C 44.789062 -114.328125 43.921875 -111.65625 43.921875 -107.8125 L 43.921875 -100.984375 L 62.453125 -100.984375 L 62.453125 -81.546875 L 43.921875 -81.546875 Z M 43.921875 0 "/></g></g></g><g fill="#00ffff" fill-opacity="1"><g transform="translate(129.093494, 255.026357)"><g><path d="M 40.140625 19.796875 L 20.15625 19.796875 L 20.15625 -156.953125 L 40.140625 -156.953125 Z M 40.140625 19.796875 "/></g></g><g transform="translate(189.57349, 255.026357)"><g><path d="M 51.65625 1.984375 C 42.894531 1.984375 35.15625 -0.234375 28.4375 -4.671875 C 21.71875 -9.117188 16.5 -15.300781 12.78125 -23.21875 C 9.0625 -31.132812 7.203125 -40.253906 7.203125 -50.578125 C 7.203125 -60.898438 9.0625 -70.019531 12.78125 -77.9375 C 16.5 -85.851562 21.71875 -92.03125 28.4375 -96.46875 C 35.15625 -100.914062 42.894531 -103.140625 51.65625 -103.140625 C 57.65625 -103.140625 62.90625 -102.085938 67.40625 -99.984375 C 71.90625 -97.890625 76.195312 -93.960938 80.28125 -88.203125 L 80.28125 -137.34375 L 104.578125 -137.34375 L 104.578125 0 L 80.28125 0 L 80.28125 -12.78125 C 76.195312 -7.132812 71.90625 -3.257812 67.40625 -1.15625 C 62.90625 0.9375 57.65625 1.984375 51.65625 1.984375 Z M 57.234375 -18.90625 C 65.035156 -18.90625 71.335938 -21.84375 76.140625 -27.71875 C 80.941406 -33.601562 83.34375 -41.222656 83.34375 -50.578125 C 83.34375 -59.941406 80.941406 -67.5625 76.140625 -73.4375 C 71.335938 -79.320312 65.035156 -82.265625 57.234375 -82.265625 C 49.554688 -82.265625 43.378906 -79.289062 38.703125 -73.34375 C 34.023438 -67.40625 31.6875 -59.816406 31.6875 -50.578125 C 31.6875 -41.460938 34.023438 -33.90625 38.703125 -27.90625 C 43.378906 -21.90625 49.554688 -18.90625 57.234375 -18.90625 Z M 57.234375 -18.90625 "/></g></g></g><g fill="#00ffff" fill-opacity="1"><g transform="translate(305.31349, 255.026357)"><g><path d="M 19.625 19.796875 L 4.3125 19.796875 L 4.3125 3.78125 L 11.34375 3.78125 C 15.175781 3.78125 17.722656 2.578125 18.984375 0.171875 C 20.242188 -2.222656 20.875 -5.097656 20.875 -8.453125 L 20.875 -43.015625 C 20.875 -50.460938 22.3125 -56.164062 25.1875 -60.125 C 28.070312 -64.082031 31.914062 -66.898438 36.71875 -68.578125 C 31.914062 -70.253906 28.070312 -73.101562 25.1875 -77.125 C 22.3125 -81.144531 20.875 -86.816406 20.875 -94.140625 L 20.875 -128.703125 C 20.875 -132.054688 20.242188 -134.929688 18.984375 -137.328125 C 17.722656 -139.734375 15.175781 -140.9375 11.34375 -140.9375 L 4.3125 -140.9375 L 4.3125 -156.953125 L 19.625 -156.953125 C 27.0625 -156.953125 32.609375 -154.460938 36.265625 -149.484375 C 39.929688 -144.503906 41.765625 -137.753906 41.765625 -129.234375 L 41.765625 -94.6875 C 41.765625 -88.925781 43.050781 -84.929688 45.625 -82.703125 C 48.207031 -80.484375 51.179688 -78.835938 54.546875 -77.765625 L 54.546875 -59.40625 C 51.179688 -58.320312 48.207031 -56.671875 45.625 -54.453125 C 43.050781 -52.234375 41.765625 -48.242188 41.765625 -42.484375 L 41.765625 -7.921875 C 41.765625 0.597656 39.929688 7.347656 36.265625 12.328125 C 32.609375 17.304688 27.0625 19.796875 19.625 19.796875 Z M 19.625 19.796875 "/></g></g></g><g fill="#000000" fill-opacity="1"><g transform="translate(7.404789, 255.751447)"><g><path d="M 54.71875 19.796875 L 39.234375 19.796875 C 31.921875 19.796875 26.398438 17.304688 22.671875 12.328125 C 18.953125 7.347656 17.09375 0.597656 17.09375 -7.921875 L 17.09375 -42.484375 C 17.09375 -48.242188 15.832031 -52.234375 13.3125 -54.453125 C 10.800781 -56.671875 7.800781 -58.320312 4.3125 -59.40625 L 4.3125 -77.765625 C 7.800781 -78.835938 10.800781 -80.484375 13.3125 -82.703125 C 15.832031 -84.929688 17.09375 -88.925781 17.09375 -94.6875 L 17.09375 -129.234375 C 17.09375 -137.753906 18.953125 -144.503906 22.671875 -149.484375 C 26.398438 -154.460938 31.921875 -156.953125 39.234375 -156.953125 L 54.71875 -156.953125 L 54.71875 -140.9375 L 47.515625 -140.9375 C 43.796875 -140.9375 41.273438 -139.734375 39.953125 -137.328125 C 38.640625 -134.929688 37.984375 -132.054688 37.984375 -128.703125 L 37.984375 -94.140625 C 37.984375 -86.816406 36.570312 -81.144531 33.75 -77.125 C 30.925781 -73.101562 27.054688 -70.253906 22.140625 -68.578125 C 27.054688 -66.898438 30.925781 -64.082031 33.75 -60.125 C 36.570312 -56.164062 37.984375 -50.460938 37.984375 -43.015625 L 37.984375 -8.453125 C 37.984375 -5.097656 38.640625 -2.222656 39.953125 0.171875 C 41.273438 2.578125 43.796875 3.78125 47.515625 3.78125 L 54.71875 3.78125 Z M 54.71875 19.796875 "/></g></g><g transform="translate(66.264785, 255.751447)"><g><path d="M 43.921875 0 L 19.4375 0 L 19.4375 -81.546875 L 4.140625 -81.546875 L 4.140625 -100.984375 L 19.4375 -100.984375 L 19.4375 -111.234375 C 19.4375 -119.640625 21.804688 -126.09375 26.546875 -130.59375 C 31.285156 -135.09375 38.21875 -137.34375 47.34375 -137.34375 L 62.453125 -137.34375 L 62.453125 -118.078125 L 53.09375 -118.078125 C 50.457031 -118.078125 48.269531 -117.328125 46.53125 -115.828125 C 44.789062 -114.328125 43.921875 -111.65625 43.921875 -107.8125 L 43.921875 -100.984375 L 62.453125 -100.984375 L 62.453125 -81.546875 L 43.921875 -81.546875 Z M 43.921875 0 "/></g></g></g><g fill="#000000" fill-opacity="1"><g transform="translate(132.504783, 255.751447)"><g><path d="M 40.140625 19.796875 L 20.15625 19.796875 L 20.15625 -156.953125 L 40.140625 -156.953125 Z M 40.140625 19.796875 "/></g></g><g transform="translate(192.984779, 255.751447)"><g><path d="M 51.65625 1.984375 C 42.894531 1.984375 35.15625 -0.234375 28.4375 -4.671875 C 21.71875 -9.117188 16.5 -15.300781 12.78125 -23.21875 C 9.0625 -31.132812 7.203125 -40.253906 7.203125 -50.578125 C 7.203125 -60.898438 9.0625 -70.019531 12.78125 -77.9375 C 16.5 -85.851562 21.71875 -92.03125 28.4375 -96.46875 C 35.15625 -100.914062 42.894531 -103.140625 51.65625 -103.140625 C 57.65625 -103.140625 62.90625 -102.085938 67.40625 -99.984375 C 71.90625 -97.890625 76.195312 -93.960938 80.28125 -88.203125 L 80.28125 -137.34375 L 104.578125 -137.34375 L 104.578125 0 L 80.28125 0 L 80.28125 -12.78125 C 76.195312 -7.132812 71.90625 -3.257812 67.40625 -1.15625 C 62.90625 0.9375 57.65625 1.984375 51.65625 1.984375 Z M 57.234375 -18.90625 C 65.035156 -18.90625 71.335938 -21.84375 76.140625 -27.71875 C 80.941406 -33.601562 83.34375 -41.222656 83.34375 -50.578125 C 83.34375 -59.941406 80.941406 -67.5625 76.140625 -73.4375 C 71.335938 -79.320312 65.035156 -82.265625 57.234375 -82.265625 C 49.554688 -82.265625 43.378906 -79.289062 38.703125 -73.34375 C 34.023438 -67.40625 31.6875 -59.816406 31.6875 -50.578125 C 31.6875 -41.460938 34.023438 -33.90625 38.703125 -27.90625 C 43.378906 -21.90625 49.554688 -18.90625 57.234375 -18.90625 Z M 57.234375 -18.90625 "/></g></g></g><g fill="#000000" fill-opacity="1"><g transform="translate(308.724779, 255.751447)"><g><path d="M 19.625 19.796875 L 4.3125 19.796875 L 4.3125 3.78125 L 11.34375 3.78125 C 15.175781 3.78125 17.722656 2.578125 18.984375 0.171875 C 20.242188 -2.222656 20.875 -5.097656 20.875 -8.453125 L 20.875 -43.015625 C 20.875 -50.460938 22.3125 -56.164062 25.1875 -60.125 C 28.070312 -64.082031 31.914062 -66.898438 36.71875 -68.578125 C 31.914062 -70.253906 28.070312 -73.101562 25.1875 -77.125 C 22.3125 -81.144531 20.875 -86.816406 20.875 -94.140625 L 20.875 -128.703125 C 20.875 -132.054688 20.242188 -134.929688 18.984375 -137.328125 C 17.722656 -139.734375 15.175781 -140.9375 11.34375 -140.9375 L 4.3125 -140.9375 L 4.3125 -156.953125 L 19.625 -156.953125 C 27.0625 -156.953125 32.609375 -154.460938 36.265625 -149.484375 C 39.929688 -144.503906 41.765625 -137.753906 41.765625 -129.234375 L 41.765625 -94.6875 C 41.765625 -88.925781 43.050781 -84.929688 45.625 -82.703125 C 48.207031 -80.484375 51.179688 -78.835938 54.546875 -77.765625 L 54.546875 -59.40625 C 51.179688 -58.320312 48.207031 -56.671875 45.625 -54.453125 C 43.050781 -52.234375 41.765625 -48.242188 41.765625 -42.484375 L 41.765625 -7.921875 C 41.765625 0.597656 39.929688 7.347656 36.265625 12.328125 C 32.609375 17.304688 27.0625 19.796875 19.625 19.796875 Z M 19.625 19.796875 "/></g></g></g></svg>