<svg xmlns="http://www.w3.org/2000/svg">
  <defs>
    <!-- astro icon -->
    <symbol id="astro" viewBox="0 0 85 107">
      <path d="M27.5894 91.1365C22.7555 86.7178 21.3444 77.4335 23.3583 70.7072C26.8503 74.948 31.6888 76.2914 36.7005 77.0497C44.4375 78.2199 52.0359 77.7822 59.2232 74.2459C60.0454 73.841 60.8052 73.3027 61.7036 72.7574C62.378 74.714 62.5535 76.6892 62.318 78.6996C61.7452 83.5957 59.3086 87.3778 55.4332 90.2448C53.8835 91.3916 52.2437 92.4167 50.6432 93.4979C45.7262 96.8213 44.3959 100.718 46.2435 106.386C46.2874 106.525 46.3267 106.663 46.426 107C43.9155 105.876 42.0817 104.24 40.6845 102.089C39.2087 99.8193 38.5066 97.3081 38.4696 94.5909C38.4511 93.2686 38.4511 91.9345 38.2733 90.6309C37.8391 87.4527 36.3471 86.0297 33.5364 85.9478C30.6518 85.8636 28.37 87.6469 27.7649 90.4554C27.7187 90.6707 27.6517 90.8837 27.5847 91.1341L27.5894 91.1365Z" fill="#F041FF"/>
      <path d="M0 69.5866C0 69.5866 14.3139 62.6137 28.6678 62.6137L39.4901 29.1204C39.8953 27.5007 41.0783 26.3999 42.4139 26.3999C43.7495 26.3999 44.9325 27.5007 45.3377 29.1204L56.1601 62.6137C73.1601 62.6137 84.8278 69.5866 84.8278 69.5866C84.8278 69.5866 60.5145 3.35233 60.467 3.21944C59.7692 1.2612 58.5911 0 57.0029 0H27.8274C26.2392 0 25.1087 1.2612 24.3634 3.21944C24.3108 3.34983 0 69.5866 0 69.5866Z" fill="currentColor"/>
    </symbol>

    <!-- javascript icon -->
    <symbol id="javascript" viewBox="0 0 630 630">
      <rect width="630" height="630" fill="#f7df1e"/>
      <path fill="black" d="m423.2 492.19c12.69 20.72 29.2 35.95 58.4 35.95 24.53 0 40.2-12.26 40.2-29.2 0-20.3-16.1-27.49-43.1-39.3l-14.8-6.35c-42.72-18.2-71.1-41-71.1-89.2 0-44.4 33.83-78.2 86.7-78.2 37.64 0 64.7 13.1 84.2 47.4l-46.1 29.6c-10.15-18.2-21.1-25.37-38.1-25.37-17.34 0-28.33 11-28.33 25.37 0 17.76 11 24.95 36.4 35.95l14.8 6.34c50.3 21.57 78.7 43.56 78.7 93 0 53.3-41.87 82.5-98.1 82.5-54.98 0-90.5-26.2-107.88-60.54zm-209.13 5.13c9.3 16.5 17.76 30.45 38.1 30.45 19.45 0 31.72-7.61 31.72-37.2v-201.3h59.2v202.1c0 61.3-35.94 89.2-88.4 89.2-47.4 0-74.85-24.53-88.81-54.075z"/>
    </symbol>

    <!-- typescript icon -->
    <symbol id="typescript" fill="none" viewBox="0 0 512 512">
      <rect fill="#3178c6" height="512" rx="50" width="512"/>
      <rect fill="#3178c6" height="512" rx="50" width="512"/>
      <path clip-rule="evenodd" fill="#fff" fill-rule="evenodd" d="m316.939 407.424v50.061c8.138 4.172 17.763 7.3 28.875 9.386s22.823 3.129 35.135 3.129c11.999 0 23.397-1.147 34.196-3.442 10.799-2.294 20.268-6.075 28.406-11.342 8.138-5.266 14.581-12.15 19.328-20.65s7.121-19.007 7.121-31.522c0-9.074-1.356-17.026-4.069-23.857s-6.625-12.906-11.738-18.225c-5.112-5.319-11.242-10.091-18.389-14.315s-15.207-8.213-24.18-11.967c-6.573-2.712-12.468-5.345-17.685-7.9-5.217-2.556-9.651-5.163-13.303-7.822-3.652-2.66-6.469-5.476-8.451-8.448-1.982-2.973-2.974-6.336-2.974-10.091 0-3.441.887-6.544 2.661-9.308s4.278-5.136 7.512-7.118c3.235-1.981 7.199-3.52 11.894-4.615 4.696-1.095 9.912-1.642 15.651-1.642 4.173 0 8.581.313 13.224.938 4.643.626 9.312 1.591 14.008 2.894 4.695 1.304 9.259 2.947 13.694 4.928 4.434 1.982 8.529 4.276 12.285 6.884v-46.776c-7.616-2.92-15.937-5.084-24.962-6.492s-19.381-2.112-31.066-2.112c-11.895 0-23.163 1.278-33.805 3.833s-20.006 6.544-28.093 11.967c-8.086 5.424-14.476 12.333-19.171 20.729-4.695 8.395-7.043 18.433-7.043 30.114 0 14.914 4.304 27.638 12.912 38.172 8.607 10.533 21.675 19.45 39.204 26.751 6.886 2.816 13.303 5.579 19.25 8.291s11.086 5.528 15.415 8.448c4.33 2.92 7.747 6.101 10.252 9.543 2.504 3.441 3.756 7.352 3.756 11.733 0 3.233-.783 6.231-2.348 8.995s-3.939 5.162-7.121 7.196-7.147 3.624-11.894 4.771c-4.748 1.148-10.303 1.721-16.668 1.721-10.851 0-21.597-1.903-32.24-5.71-10.642-3.806-20.502-9.516-29.579-17.13zm-84.159-123.342h64.22v-41.082h-179v41.082h63.906v182.918h50.874z"/>
    </symbol>

    <!-- tailwind icon -->
    <symbol id="tailwind" viewBox="0 0 47 40" fill="none">
      <path fill="#6366f1" d="M23.5 6.5C17.5 6.5 13.75 9.5 12.25 15.5C14.5 12.5 17.125 11.375 20.125 12.125C21.8367 12.5529 23.0601 13.7947 24.4142 15.1692C26.6202 17.4084 29.1734 20 34.75 20C40.75 20 44.5 17 46 11C43.75 14 41.125 15.125 38.125 14.375C36.4133 13.9471 35.1899 12.7053 33.8357 11.3308C31.6297 9.09158 29.0766 6.5 23.5 6.5ZM12.25 20C6.25 20 2.5 23 1 29C3.25 26 5.875 24.875 8.875 25.625C10.5867 26.0529 11.8101 27.2947 13.1642 28.6693C15.3702 30.9084 17.9234 33.5 23.5 33.5C29.5 33.5 33.25 30.5 34.75 24.5C32.5 27.5 29.875 28.625 26.875 27.875C25.1633 27.4471 23.9399 26.2053 22.5858 24.8307C20.3798 22.5916 17.8266 20 12.25 20Z"/>
    </symbol>
    
    <!-- angular icon -->
    <symbol id="angular" viewBox="0 0 47 40" height="20" width="20">
      <path fill="#bdbdbd" d="M23.933 2L3 9.285 6.308 36.408 23.955 46 41.693 36.278 45 9.156z"></path><path fill="#b71c1c" d="M42.818 10.527L24 4.135 24 43.695 39.832 35.017z"></path><path fill="#dd2c00" d="M23.941 4.115L5.181 10.644 8.168 35.143 23.951 43.721 24 43.695 24 4.135z"></path><path fill="#bdbdbd" d="M24 5.996L24 15.504 32.578 34 36.987 34z"></path><path fill="#eee" d="M11.013 34L15.422 34 24 15.504 24 5.996z"></path><path fill="#bdbdbd" d="M24 24H30V28H24z"></path><path fill="#eee" d="M18 24H24V28H18z"></path>
    </symbol>
    
    <!-- react icon -->
    <symbol id="react" fill="#61DAFB" viewBox="0 0 47 40" height="20" width="20">
      <path fill="#80deea" d="M24,34C11.1,34,1,29.6,1,24c0-5.6,10.1-10,23-10c12.9,0,23,4.4,23,10C47,29.6,36.9,34,24,34z M24,16	c-12.6,0-21,4.1-21,8c0,3.9,8.4,8,21,8s21-4.1,21-8C45,20.1,36.6,16,24,16z"></path><path fill="#80deea" d="M15.1,44.6c-1,0-1.8-0.2-2.6-0.7C7.6,41.1,8.9,30.2,15.3,19l0,0c3-5.2,6.7-9.6,10.3-12.4c3.9-3,7.4-3.9,9.8-2.5	c2.5,1.4,3.4,4.9,2.8,9.8c-0.6,4.6-2.6,10-5.6,15.2c-3,5.2-6.7,9.6-10.3,12.4C19.7,43.5,17.2,44.6,15.1,44.6z M32.9,5.4	c-1.6,0-3.7,0.9-6,2.7c-3.4,2.7-6.9,6.9-9.8,11.9l0,0c-6.3,10.9-6.9,20.3-3.6,22.2c1.7,1,4.5,0.1,7.6-2.3c3.4-2.7,6.9-6.9,9.8-11.9	c2.9-5,4.8-10.1,5.4-14.4c0.5-4-0.1-6.8-1.8-7.8C34,5.6,33.5,5.4,32.9,5.4z"></path><path fill="#80deea" d="M33,44.6c-5,0-12.2-6.1-17.6-15.6C8.9,17.8,7.6,6.9,12.5,4.1l0,0C17.4,1.3,26.2,7.8,32.7,19	c3,5.2,5,10.6,5.6,15.2c0.7,4.9-0.3,8.3-2.8,9.8C34.7,44.4,33.9,44.6,33,44.6z M13.5,5.8c-3.3,1.9-2.7,11.3,3.6,22.2	c6.3,10.9,14.1,16.1,17.4,14.2c1.7-1,2.3-3.8,1.8-7.8c-0.6-4.3-2.5-9.4-5.4-14.4C24.6,9.1,16.8,3.9,13.5,5.8L13.5,5.8z"></path><circle cx="24" cy="24" r="4" fill="#80deea"></circle>
    </symbol>
    
    <!-- docker icon -->
    <symbol id="docker" viewBox="0 0 47 40" height="20" width="20">
      <path fill="#2395ec" d="M47.527,19.847c-0.13-0.102-1.345-1.007-3.908-1.007c-0.677,0.003-1.352,0.06-2.019,0.171 c-0.496-3.354-3.219-4.93-3.345-5.003l-0.688-0.392l-0.453,0.644c-0.567,0.866-1.068,1.76-1.311,2.763 c-0.459,1.915-0.18,3.713,0.806,5.25C35.417,22.928,33.386,22.986,33,23H1.582c-0.826,0.001-1.496,0.66-1.501,1.474 c-0.037,2.733,0.353,5.553,1.306,8.119c1.089,2.818,2.71,4.894,4.818,6.164C8.567,40.184,12.405,41,16.756,41 c1.965,0.006,3.927-0.169,5.859-0.524c2.686-0.487,5.271-1.413,7.647-2.74c1.958-1.119,3.72-2.542,5.219-4.215 c2.505-2.798,3.997-5.913,5.107-8.682c0.149,0,0.298,0,0.442,0c2.743,0,4.429-1.083,5.359-1.99 c0.618-0.579,1.101-1.284,1.414-2.065L48,20.216L47.527,19.847z"></path><path fill="#2395ec" d="M8,22H5c-0.552,0-1-0.448-1-1v-3c0-0.552,0.448-1,1-1h3c0.552,0,1,0.448,1,1v3 C9,21.552,8.552,22,8,22z"></path><path fill="#2395ec" d="M14,22h-3c-0.552,0-1-0.448-1-1v-3c0-0.552,0.448-1,1-1h3c0.552,0,1,0.448,1,1v3 C15,21.552,14.552,22,14,22z"></path><path fill="#2395ec" d="M20,22h-3c-0.552,0-1-0.448-1-1v-3c0-0.552,0.448-1,1-1h3c0.552,0,1,0.448,1,1v3 C21,21.552,20.552,22,20,22z"></path><path fill="#2395ec" d="M26,22h-3c-0.552,0-1-0.448-1-1v-3c0-0.552,0.448-1,1-1h3c0.552,0,1,0.448,1,1v3 C27,21.552,26.552,22,26,22z"></path><path fill="#2395ec" d="M14,16h-3c-0.552,0-1-0.448-1-1v-3c0-0.552,0.448-1,1-1h3c0.552,0,1,0.448,1,1v3 C15,15.552,14.552,16,14,16z"></path><path fill="#2395ec" d="M20,16h-3c-0.552,0-1-0.448-1-1v-3c0-0.552,0.448-1,1-1h3c0.552,0,1,0.448,1,1v3 C21,15.552,20.552,16,20,16z"></path><path fill="#2395ec" d="M26,16h-3c-0.552,0-1-0.448-1-1v-3c0-0.552,0.448-1,1-1h3c0.552,0,1,0.448,1,1v3 C27,15.552,26.552,16,26,16z"></path><path fill="#2395ec" d="M26,10h-3c-0.552,0-1-0.448-1-1V6c0-0.552,0.448-1,1-1h3c0.552,0,1,0.448,1,1v3 C27,9.552,26.552,10,26,10z"></path><path fill="#2395ec" d="M32,22h-3c-0.552,0-1-0.448-1-1v-3c0-0.552,0.448-1,1-1h3c0.552,0,1,0.448,1,1v3 C33,21.552,32.552,22,32,22z"></path>
    </symbol>

    <!-- flutter icon -->
    <symbol id="flutter" viewBox="0 0 47 40" height="20" width="20">
      <polygon fill="#40c4ff" points="26,4 6,24 12,30 38,4"></polygon><polygon fill="#40c4ff" points="38,22 27,33 21,27 26,22"></polygon><rect width="8.485" height="8.485" x="16.757" y="28.757" fill="#03a9f4" transform="rotate(-45.001 21 33)"></rect><polygon fill="#01579b" points="38,44 26,44 21,39 27,33"></polygon><polygon fill="#084994" points="21,39 30,36 27,33"></polygon>
    </symbol>

    <!-- gcp icon -->
    <symbol id="gcp" viewBox="0 0 47 40" height="20" width="20">
      <path fill="#CFD8DC" d="M30,13H18l-7,11l7,11h12l7-11L30,13z M24,29c-2.8,0-5-2.2-5-5s2.2-5,5-5s5,2.2,5,5S26.8,29,24,29z"></path><path fill="#2196F3" d="M34.8,7.2C34.3,6.5,33.5,6,32.6,6H15.4c-0.9,0-1.7,0.5-2.2,1.2l-5.8,9.5L12,24l6.3-10h20.6L34.8,7.2z M16,11c-0.6,0-1-0.4-1-1s0.4-1,1-1c0.6,0,1,0.4,1,1S16.6,11,16,11z M32,11c-0.6,0-1-0.4-1-1s0.4-1,1-1c0.6,0,1,0.4,1,1S32.6,11,32,11z"></path><path fill="#FFC107" d="M18.3,34L7.4,16.8l-3.6,5.9c-0.5,0.8-0.5,1.9,0,2.7l9.4,15.4c0.5,0.8,1.3,1.2,2.2,1.2h9.1l5.1-8H18.3z M8,25c-0.6,0-1-0.4-1-1s0.4-1,1-1c0.6,0,1,0.4,1,1S8.6,25,8,25z M16,39c-0.6,0-1-0.4-1-1s0.4-1,1-1c0.6,0,1,0.4,1,1S16.6,39,16,39z"></path><path fill="#1976D2" d="M7.4 16.8L12 24 14.4 20.3 8.5 15z"></path><path fill="#F9A825" d="M24.6 42L29.7 34 24.9 34 22.6 42z"></path><path fill="#DD2C00" d="M44.2,22.7L38.9,14h-9.2L36,24L24.6,42h8c0.9,0,1.7-0.5,2.2-1.2l9.5-15.4C44.8,24.5,44.8,23.5,44.2,22.7z M32,39c-0.6,0-1-0.4-1-1s0.4-1,1-1c0.6,0,1,0.4,1,1S32.6,39,32,39z M40,25c-0.6,0-1-0.4-1-1s0.4-1,1-1c0.6,0,1,0.4,1,1S40.6,25,40,25z"></path><path fill="#BF360C" d="M38.9 14L29.7 14 32.2 17.9 40.1 16z"></path>
    </symbol>

    <!-- firebase icon -->
    <symbol id="firebase" viewBox="0 0 47 40" height="20" width="20">
      <path fill="#ffa000" d="M25.01,8.565c-0.386-0.753-1.466-0.755-1.848,0l-2.347,4.426L15.404,2.547 c-0.471-0.874-1.798-0.653-1.952,0.325L8.003,37.997L30.25,18.75L25.01,8.565z"></path><path fill="#f57f17" d="M25.795 22.604L20.815 12.992 8.003 37.997z"></path><path fill="#ffca28" d="M35.859,11.838c-0.13-0.802-1.115-1.12-1.69-0.544L8.003,38.002l14.479,7.614 c0.917,0.512,2.034,0.512,2.951,0.001L40,38.005L35.859,11.838z"></path>
    </symbol>

    <!-- node icon -->
    <symbol id="node" viewBox="0 0 47 40" height="20" width="20">
      <path fill="#21a366" d="M24.007,45.419c-0.574,0-1.143-0.15-1.646-0.44l-5.24-3.103c-0.783-0.438-0.401-0.593-0.143-0.682	c1.044-0.365,1.255-0.448,2.369-1.081c0.117-0.067,0.27-0.043,0.39,0.028l4.026,2.389c0.145,0.079,0.352,0.079,0.486,0l15.697-9.061	c0.145-0.083,0.24-0.251,0.24-0.424V14.932c0-0.181-0.094-0.342-0.243-0.432L24.253,5.446c-0.145-0.086-0.338-0.086-0.483,0	L8.082,14.499c-0.152,0.086-0.249,0.255-0.249,0.428v18.114c0,0.173,0.094,0.338,0.244,0.42l4.299,2.483	c2.334,1.167,3.76-0.208,3.76-1.591V16.476c0-0.255,0.2-0.452,0.456-0.452h1.988c0.248,0,0.452,0.196,0.452,0.452v17.886	c0,3.112-1.697,4.9-4.648,4.9c-0.908,0-1.623,0-3.619-0.982l-4.118-2.373C5.629,35.317,5,34.216,5,33.042V14.928	c0-1.179,0.629-2.279,1.646-2.861L22.36,3.002c0.994-0.562,2.314-0.562,3.301,0l15.694,9.069C42.367,12.656,43,13.753,43,14.932	v18.114c0,1.175-0.633,2.271-1.646,2.861L25.66,44.971c-0.503,0.291-1.073,0.44-1.654,0.44"></path><path fill="#21a366" d="M28.856,32.937c-6.868,0-8.308-3.153-8.308-5.797c0-0.251,0.203-0.452,0.455-0.452h2.028	c0.224,0,0.413,0.163,0.448,0.384c0.306,2.066,1.218,3.108,5.371,3.108c3.308,0,4.715-0.747,4.715-2.502	c0-1.01-0.401-1.76-5.54-2.263c-4.299-0.424-6.955-1.371-6.955-4.809c0-3.167,2.672-5.053,7.147-5.053	c5.026,0,7.517,1.745,7.831,5.493c0.012,0.13-0.035,0.255-0.122,0.35c-0.086,0.09-0.208,0.145-0.334,0.145h-2.039	c-0.212,0-0.397-0.149-0.44-0.354c-0.491-2.173-1.678-2.868-4.904-2.868c-3.611,0-4.031,1.257-4.031,2.2	c0,1.143,0.495,1.477,5.367,2.122c4.825,0.64,7.116,1.544,7.116,4.935c0,3.418-2.853,5.379-7.827,5.379"></path>
    </symbol>

    <!-- next icon -->
    <symbol id="next" viewBox="0 0 47 40" height="20" width="20">
      <linearGradient id="NRNx2IPDe7PJlJvrxOKgWa_MWiBjkuHeMVq_gr1" x1="24" x2="24" y1="43.734" y2="4.266" gradientUnits="userSpaceOnUse"><stop offset="0" stop-color="#0a070a"></stop><stop offset=".465" stop-color="#2b2b2b"></stop><stop offset="1" stop-color="#4b4b4b"></stop></linearGradient><circle cx="24" cy="24" r="19.734" fill="url(#NRNx2IPDe7PJlJvrxOKgWa_MWiBjkuHeMVq_gr1)"></circle><rect width="3.023" height="15.996" x="15.992" y="16.027" fill="#fff"></rect><linearGradient id="NRNx2IPDe7PJlJvrxOKgWb_MWiBjkuHeMVq_gr2" x1="30.512" x2="30.512" y1="33.021" y2="18.431" gradientUnits="userSpaceOnUse"><stop offset=".377" stop-color="#fff" stop-opacity="0"></stop><stop offset=".666" stop-color="#fff" stop-opacity=".3"></stop><stop offset=".988" stop-color="#fff"></stop></linearGradient><rect width="2.953" height="14.59" x="29.035" y="15.957" fill="url(#NRNx2IPDe7PJlJvrxOKgWb_MWiBjkuHeMVq_gr2)"></rect><linearGradient id="NRNx2IPDe7PJlJvrxOKgWc_MWiBjkuHeMVq_gr3" x1="22.102" x2="36.661" y1="21.443" y2="40.529" gradientUnits="userSpaceOnUse"><stop offset=".296" stop-color="#fff"></stop><stop offset=".521" stop-color="#fff" stop-opacity=".5"></stop><stop offset=".838" stop-color="#fff" stop-opacity="0"></stop></linearGradient><polygon fill="url(#NRNx2IPDe7PJlJvrxOKgWc_MWiBjkuHeMVq_gr3)" points="36.781,38.094 34.168,39.09 15.992,16.027 19.508,16.027"></polygon>
    </symbol>

    <!-- python icon -->
    <symbol id="python" viewBox="0 0 47 40" height="20" width="20">
      <path fill="#0277BD" d="M24.047,5c-1.555,0.005-2.633,0.142-3.936,0.367c-3.848,0.67-4.549,2.077-4.549,4.67V14h9v2H15.22h-4.35c-2.636,0-4.943,1.242-5.674,4.219c-0.826,3.417-0.863,5.557,0,9.125C5.851,32.005,7.294,34,9.931,34h3.632v-5.104c0-2.966,2.686-5.896,5.764-5.896h7.236c2.523,0,5-1.862,5-4.377v-8.586c0-2.439-1.759-4.263-4.218-4.672C27.406,5.359,25.589,4.994,24.047,5z M19.063,9c0.821,0,1.5,0.677,1.5,1.502c0,0.833-0.679,1.498-1.5,1.498c-0.837,0-1.5-0.664-1.5-1.498C17.563,9.68,18.226,9,19.063,9z"></path><path fill="#FFC107" d="M23.078,43c1.555-0.005,2.633-0.142,3.936-0.367c3.848-0.67,4.549-2.077,4.549-4.67V34h-9v-2h9.343h4.35c2.636,0,4.943-1.242,5.674-4.219c0.826-3.417,0.863-5.557,0-9.125C41.274,15.995,39.831,14,37.194,14h-3.632v5.104c0,2.966-2.686,5.896-5.764,5.896h-7.236c-2.523,0-5,1.862-5,4.377v8.586c0,2.439,1.759,4.263,4.218,4.672C19.719,42.641,21.536,43.006,23.078,43z M28.063,39c-0.821,0-1.5-0.677-1.5-1.502c0-0.833,0.679-1.498,1.5-1.498c0.837,0,1.5,0.664,1.5,1.498C29.563,38.32,28.899,39,28.063,39z"></path>
    </symbol>

    <!-- java icon -->
    <symbol id="java" viewBox="0 0 47 40" height="20" width="20">
      <path fill="#F44336" d="M23.65,24.898c-0.998-1.609-1.722-2.943-2.725-5.455C19.229,15.2,31.24,11.366,26.37,3.999c2.111,5.089-7.577,8.235-8.477,12.473C17.07,20.37,23.645,24.898,23.65,24.898z"></path><path fill="#F44336" d="M23.878,17.27c-0.192,2.516,2.229,3.857,2.299,5.695c0.056,1.496-1.447,2.743-1.447,2.743s2.728-0.536,3.579-2.818c0.945-2.534-1.834-4.269-1.548-6.298c0.267-1.938,6.031-5.543,6.031-5.543S24.311,11.611,23.878,17.27z"></path><g><path fill="#1565C0" d="M32.084 25.055c1.754-.394 3.233.723 3.233 2.01 0 2.901-4.021 5.643-4.021 5.643s6.225-.742 6.225-5.505C37.521 24.053 34.464 23.266 32.084 25.055zM29.129 27.395c0 0 1.941-1.383 2.458-1.902-4.763 1.011-15.638 1.147-15.638.269 0-.809 3.507-1.638 3.507-1.638s-7.773-.112-7.773 2.181C11.683 28.695 21.858 28.866 29.129 27.395z"></path><path fill="#1565C0" d="M27.935,29.571c-4.509,1.499-12.814,1.02-10.354-0.993c-1.198,0-2.974,0.963-2.974,1.889c0,1.857,8.982,3.291,15.63,0.572L27.935,29.571z"></path><path fill="#1565C0" d="M18.686,32.739c-1.636,0-2.695,1.054-2.695,1.822c0,2.391,9.76,2.632,13.627,0.205l-2.458-1.632C24.271,34.404,17.014,34.579,18.686,32.739z"></path><path fill="#1565C0" d="M36.281,36.632c0-0.936-1.055-1.377-1.433-1.588c2.228,5.373-22.317,4.956-22.317,1.784c0-0.721,1.807-1.427,3.477-1.093l-1.42-0.839C11.26,34.374,9,35.837,9,37.017C9,42.52,36.281,42.255,36.281,36.632z"></path><path fill="#1565C0" d="M39,38.604c-4.146,4.095-14.659,5.587-25.231,3.057C24.341,46.164,38.95,43.628,39,38.604z"></path></g>
    </symbol>

    <!-- express icon -->
    <symbol id="express" viewBox="0 0 47 40" height="20" width="20">
      <linearGradient id="Xfeb2ANkiLrn2PxL5jJHLa_PZQVBAxaueDJ_gr1" x1="3.851" x2="34.471" y1="2.596" y2="33.216" gradientUnits="userSpaceOnUse"><stop offset="0" stop-color="#6d7479"></stop><stop offset="1" stop-color="#323538"></stop></linearGradient><path fill="url(#Xfeb2ANkiLrn2PxL5jJHLa_PZQVBAxaueDJ_gr1)" d="M33.244,25l-9.121-12h1.18c0.84,0,1.631,0.392,2.139,1.061l7.059,9.287l7.059-9.287	C42.067,13.392,42.858,13,43.698,13h1.18l-9.121,12l9.547,12.56h-1.18c-0.84,0-1.631-0.392-2.139-1.061L34.5,26.652l-7.485,9.847	c-0.508,0.668-1.299,1.061-2.139,1.061h-1.18L33.244,25z M4,26v0.783c0,4.199,2.776,8.032,6.868,8.972	c4.439,1.02,8.49-1.247,10.228-4.842C21.366,30.355,21.928,30,22.547,30h1.028c-1.319,4.655-5.616,8.059-10.707,7.999	C6.777,37.927,2,32.694,2,26.142V26v-2l0-0.716c0-5.427,3.812-10.273,9.171-11.136C18.055,11.039,24,16.325,24,23v3H4z M4,24h18v-1	c0-5.648-5.202-10.08-11.076-8.768C6.804,15.153,4,19.002,4,23.71V24z"></path>
    </symbol>

    <!-- dart icon -->
    <symbol id="dart" viewBox="0 0 47 40" height="20" width="20">
      <path fill="#1565c0" d="M10,12l3,25l-8.019-8.019c-1.189-1.189-1.508-2.996-0.796-4.52L10,12z"></path><path fill="#42a5f5" d="M27.319,6.319C26.474,5.474,25.329,5,24.135,5c-0.745,0-1.479,0.185-2.135,0.538L10,12v20.343 c0,1.061,0.421,2.078,1.172,2.828L13,37h22v-5l7-11L27.319,6.319z"></path><path fill="#1565c0" d="M10,12h21.343c1.061,0,2.078,0.421,2.828,1.172L42,21v16h-7L10,12z"></path><polygon fill="#85cbf8" points="35,37 13,37 19,43 35,43"></polygon>
    </symbol>

    <!-- postgres icon -->
    <symbol id="postgres" viewBox="0 0 47 40" height="20" width="20">
      <path fill="#fff" d="M44.083,29.79c-0.183-0.829-0.935-1.796-2.452-1.796c-0.31,0-0.649,0.039-1.035,0.119c-0.708,0.146-1.311,0.217-1.842,0.241c4.133-7.04,6.816-16.819,4.159-20.214c-3.501-4.473-8.214-5.141-10.711-5.141L31.967,3c-0.929,0.015-1.893,0.129-2.863,0.339l-3.583,0.774C25.033,4.052,24.536,4.009,24.018,4l-0.03,0l-0.016,0l-0.152-0.001c-1.593,0-3.046,0.338-4.341,0.973l-1.251-0.493c-1.72-0.678-4.308-1.485-6.868-1.485c-0.144,0-0.287,0.003-0.431,0.008C8.407,3.093,6.241,4.05,4.664,5.769C2.696,7.915,1.8,11.054,2.003,15.1C2.013,15.309,4.461,36,11.4,36h0.025l0.064-0.001c0.901-0.022,1.76-0.384,2.563-1.077c0.613,0.46,1.406,0.732,2.145,0.84c0.488,0.115,1.366,0.278,2.418,0.278c1.284,0,2.442-0.263,3.44-0.738c-0.001,0.88-0.006,1.994-0.016,3.418l-0.001,0.075l0.005,0.075c0.097,1.419,0.342,2.698,0.711,3.701c1.051,2.859,2.866,4.434,5.111,4.434c0.093,0,0.188-0.003,0.284-0.009c1.846-0.114,3.717-1.151,5.004-2.772c1.393-1.755,1.715-3.607,1.839-5.026L35,39.111v-0.088v-4.079l0.103,0.01l0.436,0.038l0.042,0.004l0.042,0.002c0.124,0.006,0.252,0.008,0.381,0.008c1.507,0,3.362-0.391,4.616-0.974C41.819,33.476,44.559,31.948,44.083,29.79z"></path><path fill="#0277bd" d="M33,34c0-0.205,0.012-0.376,0.018-0.565C33.008,33.184,33,33,33,33s0.012-0.009,0.032-0.022c0.149-2.673,0.886-3.703,1.675-4.29c-0.11-0.153-0.237-0.318-0.356-0.475c-0.333-0.437-0.748-0.979-1.192-1.674l-0.082-0.158c-0.067-0.164-0.229-0.447-0.435-0.819c-1.183-2.14-3.645-6.592-1.96-9.404c0.738-1.232,2.122-1.942,4.121-2.117C33.986,11.718,30.925,6.115,23.985,6c-0.002,0-0.004,0-0.006,0c-6.041-0.098-8.026,5.392-8.672,8.672c0.89-0.377,1.906-0.606,2.836-0.606c0.014,0,0.029,0,0.043,0c2.29,0.017,3.865,1.239,4.323,3.354c0.335,1.552,0.496,2.91,0.492,4.153c-0.01,2.719-0.558,4.149-1.042,5.411l-0.154,0.408c-0.124,0.334-0.255,0.645-0.379,0.937c-0.126,0.298-0.237,0.563-0.318,0.802c0.484,0.11,0.864,0.265,1.125,0.38l0.151,0.066c0.047,0.02,0.094,0.043,0.137,0.069c0.848,0.516,1.376,1.309,1.489,2.233c0.061,0.498,0.051,3.893,0.03,6.855c0.087,1.285,0.305,2.364,0.593,3.146c0.409,1.114,1.431,3.241,3.394,3.119c1.37-0.085,2.687-0.919,3.561-2.019c0.938-1.181,1.284-2.487,1.414-3.958V34z"></path><path fill="#0277bd" d="M15.114 28.917c-1.613-1.683-2.399-3.947-2.104-6.056.285-2.035.124-4.027.037-5.098-.029-.357-.048-.623-.047-.77 0-.008.002-.015.003-.023 0-.004-.002-.007-.002-.011.121-3.021 1.286-7.787 4.493-10.62C15.932 5.724 13.388 4.913 11 5 7.258 5.136 3.636 7.724 4 15c.137 2.73 3.222 19.103 7.44 19 .603-.015 1.229-.402 1.872-1.176 1.017-1.223 2.005-2.332 2.708-3.104C15.705 29.481 15.401 29.217 15.114 28.917zM37.023 14.731c.015.154.002.286-.022.408.031.92-.068 1.813-.169 2.677-.074.636-.15 1.293-.171 1.952-.021.645.07 1.282.166 1.956.225 1.578.459 3.359-.765 5.437.225.296.423.571.581.837 4.61-7.475 6.468-16.361 4.695-18.626C38.655 5.944 34.941 4.952 31.999 5c-.921.015-1.758.139-2.473.294C34.602 7.754 36.863 13.026 37.023 14.731zM41 30.071c-2.665.55-3.947.257-4.569-.126-.1.072-.2.133-.293.19-.372.225-.961.583-1.105 2.782.083.016.156.025.246.044L35.714 33c1.32.06 3.049-.31 4.063-.781C41.962 31.205 43.153 29.627 41 30.071zM22.023 32.119c-.037-.298-.198-.539-.492-.732l-.108-.047C21.062 31.181 20.653 31 20 31h-.004c-.127.01-.253.019-.38.019-.052 0-.103-.007-.155-.009-.474.365-1.148.647-2.816.99-2.98.759-1.221 1.655-.078 1.794 1.106.277 3.735.614 5.481-.809C22.043 32.537 22.035 32.229 22.023 32.119z"></path><path fill="#0277bd" d="M20.681 18.501c-.292.302-.753.566-1.262.484-.828-.134-1.463-1.133-1.417-1.508h0c.044-.374.751-.569 1.578-.435.287.047.548.128.768.228-.32-.688-.899-1.085-1.782-1.182-1.565-.174-3.226.644-3.56 1.097.007.11.02.251.033.417.093 1.147.265 3.284-.05 5.537-.208 1.485.393 3.169 1.567 4.395.757.79 1.641 1.29 2.513 1.438.111-.478.309-.944.513-1.425.113-.265.233-.547.346-.852l.162-.427c.443-1.155.9-2.35.909-4.703C21.003 20.66 20.892 19.627 20.681 18.501zM34.847 22.007c-.104-.729-.211-1.484-.185-2.303.023-.742.105-1.442.184-2.119.062-.533.11-1.045.138-1.55-1.289.107-2.145.479-2.551 1.108.168-.057.358-.102.568-.129.892-.116 1.543.141 1.618.637.055.363-.253.705-.388.836-.277.269-.626.442-.981.488-.064.008-.129.012-.192.012-.353 0-.69-.121-.949-.3.112 1.973 1.567 4.612 2.283 5.907.153.277.271.498.369.688C35.154 24.163 35.009 23.143 34.847 22.007z"></path>
    </symbol>

    <!-- jwt icon -->
    <symbol id="jwt" viewBox="0 0 47 47">
      <polygon fill="#546e7a" points="21.906,31.772 24.507,29.048 27.107,31.772 27.107,43 21.906,43"></polygon><polygon fill="#f50057" points="17.737,29.058 21.442,28.383 21.945,32.115 15.345,41.199 11.138,38.141"></polygon><polygon fill="#d500f9" points="15.962,24.409 19.355,26.041 17.569,29.356 6.89,32.825 5.283,27.879"></polygon><polygon fill="#29b6f6" points="17.256,19.607 19.042,22.922 15.649,24.554 4.97,21.084 6.577,16.137"></polygon><polygon fill="#00e5ff" points="21.126,16.482 20.623,20.214 16.918,19.539 10.318,10.455 14.526,7.398"></polygon><polygon fill="#546e7a" points="26.094,16.228 23.493,18.952 20.893,16.228 20.893,5 26.094,5"></polygon><polygon fill="#f50057" points="30.262,18.943 26.558,19.618 26.055,15.886 32.654,6.802 36.862,9.859"></polygon><polygon fill="#d500f9" points="32.039,23.59 28.645,21.958 30.431,18.643 41.11,15.174 42.717,20.12"></polygon><polygon fill="#29b6f6" points="30.744,28.393 28.958,25.078 32.351,23.447 43.03,26.916 41.423,31.863"></polygon><polygon fill="#00e5ff" points="26.874,31.518 27.378,27.786 31.082,28.461 37.682,37.545 33.474,40.602"></polygon>
    </symbol>

    <!-- nestjs icon -->
    <symbol id="nestjs" viewBox="0 0 47 40" height="20" width="20">
      <path fill="#f50057" d="M24.5,32.88c0,0-0.01-0.04-0.02-0.12C24.5,32.84,24.5,32.88,24.5,32.88z"></path><path fill="#f50057" d="M27.375,8.625c0,0-0.375-1.375,0.125-2.5s0.5-1.875-0.5-3c2-0.125,2.75,1.25,2.75,1.25l0.025,0.159 c0.118,0.766-0.278,1.494-0.946,1.888C28.219,6.781,27.563,7.437,27.375,8.625z"></path><path fill="#f50057" d="M41.63,36.24c0.02-0.21,0.34-3.04-0.38-4.36c-1.5,4.24-3,8.12-7.37,10.87 c0.62-1.25,1.62-3.25,2.62-6.25c-3,4-9,8-13.5,8.25c3.04-1.68,4.75-3.84,5.5-5.25c0,0-1.75,0.5-3.88,0.75 c2.88-1.75,4.88-4.87,3.88-9.75c-2,6.25-4.75,8.25-8.38,8.62c-3.62,0.38-6.87-1.5-6.87-1.5l1.25-0.12c0,0-3.25-2.5-2.12-5.75 c0.05-0.16,0.11-0.31,0.18-0.45c0.82-1.82,3.61-0.9,3.32,1.07v0.01c0,0,0.87,2.37,3.24,1.74c0.76-1.24,1.26-2.5,1.26-2.5l0.37,1.63 c0,0,1.75-0.75,1.75-2.13c1.5,0.57,1.88,1.28,1.97,1.59c-0.26-1.4-2.52-11.03-14.49-10.89l-2.09,1.94 c-0.14,0.13-0.36,0.02-0.34-0.16L7.71,22l0.14-0.14c-0.04,0.01-0.09,0-0.13,0L7.71,22l-0.82,0.76c-0.14,0.13-0.36,0.02-0.34-0.16 l0.1-1.02c-1.74-0.74-1.9-2.7-1.9-2.7S2.58,18.27,3.5,15.5C4,14,5.2,13.85,5.71,13.97c0.65,0.15,1.32,0.16,1.94-0.09 c0.9-0.36,2.05-1.05,2.85-2.38C12,9,14.25,8,19.12,8c6.45,0,9.05,1.98,9.35,2.22c-0.18-0.21-1.27-1.66,1.03-3.84 c2.27-2.16,1.86-2.67,1.77-2.75c0.34,0.1,4.75,1.6,5.23,7.37c0.5,6-6.5,7.25-6.5,7.25s9,1.75,9.12-6.75 c1.76,1,5.38,4.75,5.88,12.88C45.49,32.26,41.84,36.03,41.63,36.24z"></path><path fill="#f50057" d="M7.85,21.86L7.71,22l0.01-0.14C7.76,21.86,7.81,21.87,7.85,21.86z"></path><path fill="#f50057" d="M7.85,21.86L7.71,22l0.01-0.14C7.76,21.86,7.81,21.87,7.85,21.86z"></path>
    </symbol>
    
    <!-- kubernetes icon -->
    <symbol id="kubernetes" viewBox="0 0 47 40" height="20" width="20">
      <path fill="#0277bd" d="M25.875,24.208c0.102,0.131,0.145,0.32,0.116,0.495l-0.276,1.208	c-0.029,0.189-0.16,0.335-0.319,0.422l-1.118,0.524c-0.16,0.087-0.363,0.087-0.523,0l-1.118-0.524	c-0.16-0.087-0.29-0.233-0.319-0.422l-0.276-1.208c-0.029-0.175,0.015-0.364,0.116-0.495l0.784-0.975	C23.043,23.087,23.218,23,23.406,23h1.22c0.189,0,0.363,0.087,0.465,0.233L25.875,24.208z"></path><path fill="#0277bd" d="M25.312,15.33l0.048,0.375c0.134,1.037,0.23,2.085,0.326,3.122c0.038,0.413,0.077,0.817,0.105,1.23	c0.019,0.317,0.374,0.48,0.633,0.298c0.326-0.24,0.662-0.48,1.007-0.711c0.863-0.586,1.716-1.172,2.598-1.739l0.326-0.202	C28.984,16.454,27.239,15.599,25.312,15.33z M25.312,15.33l0.048,0.375c0.134,1.037,0.23,2.085,0.326,3.122	c0.038,0.413,0.077,0.817,0.105,1.23c0.019,0.317,0.374,0.48,0.633,0.298c0.326-0.24,0.662-0.48,1.007-0.711	c0.863-0.586,1.716-1.172,2.598-1.739l0.326-0.202C28.984,16.454,27.239,15.599,25.312,15.33z M25.312,15.33l0.048,0.375	c0.134,1.037,0.23,2.085,0.326,3.122c0.038,0.413,0.077,0.817,0.105,1.23c0.019,0.317,0.374,0.48,0.633,0.298	c0.326-0.24,0.662-0.48,1.007-0.711c0.863-0.586,1.716-1.172,2.598-1.739l0.326-0.202C28.984,16.454,27.239,15.599,25.312,15.33z M25.312,15.33l0.048,0.375c0.134,1.037,0.23,2.085,0.326,3.122c0.038,0.413,0.077,0.817,0.105,1.23	c0.019,0.317,0.374,0.48,0.633,0.298c0.326-0.24,0.662-0.48,1.007-0.711c0.863-0.586,1.716-1.172,2.598-1.739l0.326-0.202	C28.984,16.454,27.239,15.599,25.312,15.33z M25.312,15.33l0.048,0.375c0.134,1.037,0.23,2.085,0.326,3.122	c0.038,0.413,0.077,0.817,0.105,1.23c0.019,0.317,0.374,0.48,0.633,0.298c0.326-0.24,0.662-0.48,1.007-0.711	c0.863-0.586,1.716-1.172,2.598-1.739l0.326-0.202C28.984,16.454,27.239,15.599,25.312,15.33z M32.119,19.835l-0.259,0.279	c-0.719,0.769-1.457,1.508-2.196,2.248c-0.47,0.48-0.978,0.941-1.467,1.412c0.652,0.163,1.304,0.336,1.956,0.528	c1.007,0.288,2.004,0.567,3.001,0.893l0.355,0.115c0.01-0.154,0.01-0.317,0.01-0.48C33.519,22.996,33.011,21.286,32.119,19.835z M32.119,19.835l-0.259,0.279c-0.719,0.769-1.457,1.508-2.196,2.248c-0.47,0.48-0.978,0.941-1.467,1.412	c0.652,0.163,1.304,0.336,1.956,0.528c1.007,0.288,2.004,0.567,3.001,0.893l0.355,0.115c0.01-0.154,0.01-0.317,0.01-0.48	C33.519,22.996,33.011,21.286,32.119,19.835z M25.312,15.33l0.048,0.375c0.134,1.037,0.23,2.085,0.326,3.122	c0.038,0.413,0.077,0.817,0.105,1.23c0.019,0.317,0.374,0.48,0.633,0.298c0.326-0.24,0.662-0.48,1.007-0.711	c0.863-0.586,1.716-1.172,2.598-1.739l0.326-0.202C28.984,16.454,27.239,15.599,25.312,15.33z M25.312,15.33l0.048,0.375	c0.134,1.037,0.23,2.085,0.326,3.122c0.038,0.413,0.077,0.817,0.105,1.23c0.019,0.317,0.374,0.48,0.633,0.298	c0.326-0.24,0.662-0.48,1.007-0.711c0.863-0.586,1.716-1.172,2.598-1.739l0.326-0.202C28.984,16.454,27.239,15.599,25.312,15.33z M32.627,28.02c-1.045-0.067-2.081-0.163-3.126-0.259c-0.451-0.038-0.892-0.086-1.342-0.135c-0.288-0.038-0.518,0.25-0.412,0.528	c0.163,0.432,0.316,0.865,0.47,1.307c0.336,0.98,0.681,1.969,0.997,2.968l0.105,0.346c1.668-1.143,2.963-2.795,3.643-4.736	L32.627,28.02z M32.119,19.835l-0.259,0.279c-0.719,0.769-1.457,1.508-2.196,2.248c-0.47,0.48-0.978,0.941-1.467,1.412	c0.652,0.163,1.304,0.336,1.956,0.528c1.007,0.288,2.004,0.567,3.001,0.893l0.355,0.115c0.01-0.154,0.01-0.317,0.01-0.48	C33.519,22.996,33.011,21.286,32.119,19.835z M32.119,19.835l-0.259,0.279c-0.719,0.769-1.457,1.508-2.196,2.248	c-0.47,0.48-0.978,0.941-1.467,1.412c0.652,0.163,1.304,0.336,1.956,0.528c1.007,0.288,2.004,0.567,3.001,0.893l0.355,0.115	c0.01-0.154,0.01-0.317,0.01-0.48C33.519,22.996,33.011,21.286,32.119,19.835z M32.627,28.02c-1.045-0.067-2.081-0.163-3.126-0.259	c-0.451-0.038-0.892-0.086-1.342-0.135c-0.288-0.038-0.518,0.25-0.412,0.528c0.163,0.432,0.316,0.865,0.47,1.307	c0.336,0.98,0.681,1.969,0.997,2.968l0.105,0.346c1.668-1.143,2.963-2.795,3.643-4.736L32.627,28.02z M25.312,15.33l0.048,0.375	c0.134,1.037,0.23,2.085,0.326,3.122c0.038,0.413,0.077,0.817,0.105,1.23c0.019,0.317,0.374,0.48,0.633,0.298	c0.326-0.24,0.662-0.48,1.007-0.711c0.863-0.586,1.716-1.172,2.598-1.739l0.326-0.202C28.984,16.454,27.239,15.599,25.312,15.33z M25.312,15.33l0.048,0.375c0.134,1.037,0.23,2.085,0.326,3.122c0.038,0.413,0.077,0.817,0.105,1.23	c0.019,0.317,0.374,0.48,0.633,0.298c0.326-0.24,0.662-0.48,1.007-0.711c0.863-0.586,1.716-1.172,2.598-1.739l0.326-0.202	C28.984,16.454,27.239,15.599,25.312,15.33z M32.627,28.02c-1.045-0.067-2.081-0.163-3.126-0.259	c-0.451-0.038-0.892-0.086-1.342-0.135c-0.288-0.038-0.518,0.25-0.412,0.528c0.163,0.432,0.316,0.865,0.47,1.307	c0.336,0.98,0.681,1.969,0.997,2.968l0.105,0.346c1.668-1.143,2.963-2.795,3.643-4.736L32.627,28.02z M32.119,19.835l-0.259,0.279	c-0.719,0.769-1.457,1.508-2.196,2.248c-0.47,0.48-0.978,0.941-1.467,1.412c0.652,0.163,1.304,0.336,1.956,0.528	c1.007,0.288,2.004,0.567,3.001,0.893l0.355,0.115c0.01-0.154,0.01-0.317,0.01-0.48C33.519,22.996,33.011,21.286,32.119,19.835z M32.119,19.835l-0.259,0.279c-0.719,0.769-1.457,1.508-2.196,2.248c-0.47,0.48-0.978,0.941-1.467,1.412	c0.652,0.163,1.304,0.336,1.956,0.528c1.007,0.288,2.004,0.567,3.001,0.893l0.355,0.115c0.01-0.154,0.01-0.317,0.01-0.48	C33.519,22.996,33.011,21.286,32.119,19.835z M32.627,28.02c-1.045-0.067-2.081-0.163-3.126-0.259	c-0.451-0.038-0.892-0.086-1.342-0.135c-0.288-0.038-0.518,0.25-0.412,0.528c0.163,0.432,0.316,0.865,0.47,1.307	c0.336,0.98,0.681,1.969,0.997,2.968l0.105,0.346c1.668-1.143,2.963-2.795,3.643-4.736L32.627,28.02z M25.312,15.33l0.048,0.375	c0.134,1.037,0.23,2.085,0.326,3.122c0.038,0.413,0.077,0.817,0.105,1.23c0.019,0.317,0.374,0.48,0.633,0.298	c0.326-0.24,0.662-0.48,1.007-0.711c0.863-0.586,1.716-1.172,2.598-1.739l0.326-0.202C28.984,16.454,27.239,15.599,25.312,15.33z M26.606,33.62c-0.556-0.884-1.074-1.796-1.592-2.699c-0.23-0.394-0.451-0.788-0.662-1.191c-0.153-0.279-0.547-0.279-0.7,0	c-0.221,0.413-0.451,0.817-0.69,1.21c-0.527,0.903-1.055,1.806-1.611,2.69l-0.24,0.384c0.892,0.279,1.841,0.423,2.819,0.423	c1.007,0,1.985-0.154,2.896-0.452L26.606,33.62z M25.312,15.33l0.048,0.375c0.134,1.037,0.23,2.085,0.326,3.122	c0.038,0.413,0.077,0.817,0.105,1.23c0.019,0.317,0.374,0.48,0.633,0.298c0.326-0.24,0.662-0.48,1.007-0.711	c0.863-0.586,1.716-1.172,2.598-1.739l0.326-0.202C28.984,16.454,27.239,15.599,25.312,15.33z M32.627,28.02	c-1.045-0.067-2.081-0.163-3.126-0.259c-0.451-0.038-0.892-0.086-1.342-0.135c-0.288-0.038-0.518,0.25-0.412,0.528	c0.163,0.432,0.316,0.865,0.47,1.307c0.336,0.98,0.681,1.969,0.997,2.968l0.105,0.346c1.668-1.143,2.963-2.795,3.643-4.736	L32.627,28.02z M32.119,19.835l-0.259,0.279c-0.719,0.769-1.457,1.508-2.196,2.248c-0.47,0.48-0.978,0.941-1.467,1.412	c0.652,0.163,1.304,0.336,1.956,0.528c1.007,0.288,2.004,0.567,3.001,0.893l0.355,0.115c0.01-0.154,0.01-0.317,0.01-0.48	C33.519,22.996,33.011,21.286,32.119,19.835z M32.119,19.835l-0.259,0.279c-0.719,0.769-1.457,1.508-2.196,2.248	c-0.47,0.48-0.978,0.941-1.467,1.412c0.652,0.163,1.304,0.336,1.956,0.528c1.007,0.288,2.004,0.567,3.001,0.893l0.355,0.115	c0.01-0.154,0.01-0.317,0.01-0.48C33.519,22.996,33.011,21.286,32.119,19.835z M32.627,28.02c-1.045-0.067-2.081-0.163-3.126-0.259	c-0.451-0.038-0.892-0.086-1.342-0.135c-0.288-0.038-0.518,0.25-0.412,0.528c0.163,0.432,0.316,0.865,0.47,1.307	c0.336,0.98,0.681,1.969,0.997,2.968l0.105,0.346c1.668-1.143,2.963-2.795,3.643-4.736L32.627,28.02z M25.312,15.33l0.048,0.375	c0.134,1.037,0.23,2.085,0.326,3.122c0.038,0.413,0.077,0.817,0.105,1.23c0.019,0.317,0.374,0.48,0.633,0.298	c0.326-0.24,0.662-0.48,1.007-0.711c0.863-0.586,1.716-1.172,2.598-1.739l0.326-0.202C28.984,16.454,27.239,15.599,25.312,15.33z M26.606,33.62c-0.556-0.884-1.074-1.796-1.592-2.699c-0.23-0.394-0.451-0.788-0.662-1.191c-0.153-0.279-0.547-0.279-0.7,0	c-0.221,0.413-0.451,0.817-0.69,1.21c-0.527,0.903-1.055,1.806-1.611,2.69l-0.24,0.384c0.892,0.279,1.841,0.423,2.819,0.423	c1.007,0,1.985-0.154,2.896-0.452L26.606,33.62z M19.875,27.492c-0.451,0.058-0.892,0.125-1.342,0.173	c-1.045,0.125-2.071,0.25-3.116,0.346l-0.518,0.048c0.7,1.96,2.023,3.631,3.72,4.765l0.134-0.404	c0.326-0.999,0.671-1.979,1.026-2.968c0.163-0.48,0.336-0.951,0.518-1.431C20.412,27.741,20.172,27.444,19.875,27.492z M26.606,33.62c-0.556-0.884-1.074-1.796-1.592-2.699c-0.23-0.394-0.451-0.788-0.662-1.191c-0.153-0.279-0.547-0.279-0.7,0	c-0.221,0.413-0.451,0.817-0.69,1.21c-0.527,0.903-1.055,1.806-1.611,2.69l-0.24,0.384c0.892,0.279,1.841,0.423,2.819,0.423	c1.007,0,1.985-0.154,2.896-0.452L26.606,33.62z M25.312,15.33l0.048,0.375c0.134,1.037,0.23,2.085,0.326,3.122	c0.038,0.413,0.077,0.817,0.105,1.23c0.019,0.317,0.374,0.48,0.633,0.298c0.326-0.24,0.662-0.48,1.007-0.711	c0.863-0.586,1.716-1.172,2.598-1.739l0.326-0.202C28.984,16.454,27.239,15.599,25.312,15.33z M32.627,28.02	c-1.045-0.067-2.081-0.163-3.126-0.259c-0.451-0.038-0.892-0.086-1.342-0.135c-0.288-0.038-0.518,0.25-0.412,0.528	c0.163,0.432,0.316,0.865,0.47,1.307c0.336,0.98,0.681,1.969,0.997,2.968l0.105,0.346c1.668-1.143,2.963-2.795,3.643-4.736	L32.627,28.02z M32.119,19.835l-0.259,0.279c-0.719,0.769-1.457,1.508-2.196,2.248c-0.47,0.48-0.978,0.941-1.467,1.412	c0.652,0.163,1.304,0.336,1.956,0.528c1.007,0.288,2.004,0.567,3.001,0.893l0.355,0.115c0.01-0.154,0.01-0.317,0.01-0.48	C33.519,22.996,33.011,21.286,32.119,19.835z M32.119,19.835l-0.259,0.279c-0.719,0.769-1.457,1.508-2.196,2.248	c-0.47,0.48-0.978,0.941-1.467,1.412c0.652,0.163,1.304,0.336,1.956,0.528c1.007,0.288,2.004,0.567,3.001,0.893l0.355,0.115	c0.01-0.154,0.01-0.317,0.01-0.48C33.519,22.996,33.011,21.286,32.119,19.835z M32.627,28.02c-1.045-0.067-2.081-0.163-3.126-0.259	c-0.451-0.038-0.892-0.086-1.342-0.135c-0.288-0.038-0.518,0.25-0.412,0.528c0.163,0.432,0.316,0.865,0.47,1.307	c0.336,0.98,0.681,1.969,0.997,2.968l0.105,0.346c1.668-1.143,2.963-2.795,3.643-4.736L32.627,28.02z M25.312,15.33l0.048,0.375	c0.134,1.037,0.23,2.085,0.326,3.122c0.038,0.413,0.077,0.817,0.105,1.23c0.019,0.317,0.374,0.48,0.633,0.298	c0.326-0.24,0.662-0.48,1.007-0.711c0.863-0.586,1.716-1.172,2.598-1.739l0.326-0.202C28.984,16.454,27.239,15.599,25.312,15.33z M26.606,33.62c-0.556-0.884-1.074-1.796-1.592-2.699c-0.23-0.394-0.451-0.788-0.662-1.191c-0.153-0.279-0.547-0.279-0.7,0	c-0.221,0.413-0.451,0.817-0.69,1.21c-0.527,0.903-1.055,1.806-1.611,2.69l-0.24,0.384c0.892,0.279,1.841,0.423,2.819,0.423	c1.007,0,1.985-0.154,2.896-0.452L26.606,33.62z M19.875,27.492c-0.451,0.058-0.892,0.125-1.342,0.173	c-1.045,0.125-2.071,0.25-3.116,0.346l-0.518,0.048c0.7,1.96,2.023,3.631,3.72,4.765l0.134-0.404	c0.326-0.999,0.671-1.979,1.026-2.968c0.163-0.48,0.336-0.951,0.518-1.431C20.412,27.741,20.172,27.444,19.875,27.492z M19.875,27.492c-0.451,0.058-0.892,0.125-1.342,0.173c-1.045,0.125-2.071,0.25-3.116,0.346l-0.518,0.048	c0.7,1.96,2.023,3.631,3.72,4.765l0.134-0.404c0.326-0.999,0.671-1.979,1.026-2.968c0.163-0.48,0.336-0.951,0.518-1.431	C20.412,27.741,20.172,27.444,19.875,27.492z M26.606,33.62c-0.556-0.884-1.074-1.796-1.592-2.699	c-0.23-0.394-0.451-0.788-0.662-1.191c-0.153-0.279-0.547-0.279-0.7,0c-0.221,0.413-0.451,0.817-0.69,1.21	c-0.527,0.903-1.055,1.806-1.611,2.69l-0.24,0.384c0.892,0.279,1.841,0.423,2.819,0.423c1.007,0,1.985-0.154,2.896-0.452	L26.606,33.62z M25.312,15.33l0.048,0.375c0.134,1.037,0.23,2.085,0.326,3.122c0.038,0.413,0.077,0.817,0.105,1.23	c0.019,0.317,0.374,0.48,0.633,0.298c0.326-0.24,0.662-0.48,1.007-0.711c0.863-0.586,1.716-1.172,2.598-1.739l0.326-0.202	C28.984,16.454,27.239,15.599,25.312,15.33z M32.627,28.02c-1.045-0.067-2.081-0.163-3.126-0.259	c-0.451-0.038-0.892-0.086-1.342-0.135c-0.288-0.038-0.518,0.25-0.412,0.528c0.163,0.432,0.316,0.865,0.47,1.307	c0.336,0.98,0.681,1.969,0.997,2.968l0.105,0.346c1.668-1.143,2.963-2.795,3.643-4.736L32.627,28.02z M32.119,19.835l-0.259,0.279	c-0.719,0.769-1.457,1.508-2.196,2.248c-0.47,0.48-0.978,0.941-1.467,1.412c0.652,0.163,1.304,0.336,1.956,0.528	c1.007,0.288,2.004,0.567,3.001,0.893l0.355,0.115c0.01-0.154,0.01-0.317,0.01-0.48C33.519,22.996,33.011,21.286,32.119,19.835z M32.119,19.835l-0.259,0.279c-0.719,0.769-1.457,1.508-2.196,2.248c-0.47,0.48-0.978,0.941-1.467,1.412	c0.652,0.163,1.304,0.336,1.956,0.528c1.007,0.288,2.004,0.567,3.001,0.893l0.355,0.115c0.01-0.154,0.01-0.317,0.01-0.48	C33.519,22.996,33.011,21.286,32.119,19.835z M32.627,28.02c-1.045-0.067-2.081-0.163-3.126-0.259	c-0.451-0.038-0.892-0.086-1.342-0.135c-0.288-0.038-0.518,0.25-0.412,0.528c0.163,0.432,0.316,0.865,0.47,1.307	c0.336,0.98,0.681,1.969,0.997,2.968l0.105,0.346c1.668-1.143,2.963-2.795,3.643-4.736L32.627,28.02z M25.312,15.33l0.048,0.375	c0.134,1.037,0.23,2.085,0.326,3.122c0.038,0.413,0.077,0.817,0.105,1.23c0.019,0.317,0.374,0.48,0.633,0.298	c0.326-0.24,0.662-0.48,1.007-0.711c0.863-0.586,1.716-1.172,2.598-1.739l0.326-0.202C28.984,16.454,27.239,15.599,25.312,15.33z M26.606,33.62c-0.556-0.884-1.074-1.796-1.592-2.699c-0.23-0.394-0.451-0.788-0.662-1.191c-0.153-0.279-0.547-0.279-0.7,0	c-0.221,0.413-0.451,0.817-0.69,1.21c-0.527,0.903-1.055,1.806-1.611,2.69l-0.24,0.384c0.892,0.279,1.841,0.423,2.819,0.423	c1.007,0,1.985-0.154,2.896-0.452L26.606,33.62z M19.875,27.492c-0.451,0.058-0.892,0.125-1.342,0.173	c-1.045,0.125-2.071,0.25-3.116,0.346l-0.518,0.048c0.7,1.96,2.023,3.631,3.72,4.765l0.134-0.404	c0.326-0.999,0.671-1.979,1.026-2.968c0.163-0.48,0.336-0.951,0.518-1.431C20.412,27.741,20.172,27.444,19.875,27.492z M19.338,23.111c-0.326-0.298-0.642-0.596-0.959-0.913c-0.748-0.74-1.486-1.47-2.215-2.229l-0.307-0.317	c-0.959,1.489-1.515,3.266-1.515,5.178c0,0.183,0.01,0.355,0.01,0.528l0.451-0.154c0.988-0.355,1.985-0.663,2.972-0.989	c0.47-0.154,0.94-0.288,1.409-0.432C19.482,23.697,19.568,23.322,19.338,23.111z M19.875,27.492	c-0.451,0.058-0.892,0.125-1.342,0.173c-1.045,0.125-2.071,0.25-3.116,0.346l-0.518,0.048c0.7,1.96,2.023,3.631,3.72,4.765	l0.134-0.404c0.326-0.999,0.671-1.979,1.026-2.968c0.163-0.48,0.336-0.951,0.518-1.431C20.412,27.741,20.172,27.444,19.875,27.492z M26.606,33.62c-0.556-0.884-1.074-1.796-1.592-2.699c-0.23-0.394-0.451-0.788-0.662-1.191c-0.153-0.279-0.547-0.279-0.7,0	c-0.221,0.413-0.451,0.817-0.69,1.21c-0.527,0.903-1.055,1.806-1.611,2.69l-0.24,0.384c0.892,0.279,1.841,0.423,2.819,0.423	c1.007,0,1.985-0.154,2.896-0.452L26.606,33.62z M25.312,15.33l0.048,0.375c0.134,1.037,0.23,2.085,0.326,3.122	c0.038,0.413,0.077,0.817,0.105,1.23c0.019,0.317,0.374,0.48,0.633,0.298c0.326-0.24,0.662-0.48,1.007-0.711	c0.863-0.586,1.716-1.172,2.598-1.739l0.326-0.202C28.984,16.454,27.239,15.599,25.312,15.33z M32.627,28.02	c-1.045-0.067-2.081-0.163-3.126-0.259c-0.451-0.038-0.892-0.086-1.342-0.135c-0.288-0.038-0.518,0.25-0.412,0.528	c0.163,0.432,0.316,0.865,0.47,1.307c0.336,0.98,0.681,1.969,0.997,2.968l0.105,0.346c1.668-1.143,2.963-2.795,3.643-4.736	L32.627,28.02z M32.119,19.835l-0.259,0.279c-0.719,0.769-1.457,1.508-2.196,2.248c-0.47,0.48-0.978,0.941-1.467,1.412	c0.652,0.163,1.304,0.336,1.956,0.528c1.007,0.288,2.004,0.567,3.001,0.893l0.355,0.115c0.01-0.154,0.01-0.317,0.01-0.48	C33.519,22.996,33.011,21.286,32.119,19.835z M32.119,19.835l-0.259,0.279c-0.719,0.769-1.457,1.508-2.196,2.248	c-0.47,0.48-0.978,0.941-1.467,1.412c0.652,0.163,1.304,0.336,1.956,0.528c1.007,0.288,2.004,0.567,3.001,0.893l0.355,0.115	c0.01-0.154,0.01-0.317,0.01-0.48C33.519,22.996,33.011,21.286,32.119,19.835z M29.501,27.761c-0.451-0.038-0.892-0.086-1.342-0.135	c-0.288-0.038-0.518,0.25-0.412,0.528c0.163,0.432,0.316,0.865,0.47,1.307c0.336,0.98,0.681,1.969,0.997,2.968l0.105,0.346	c1.668-1.143,2.963-2.795,3.643-4.736l-0.336-0.019C31.582,27.953,30.547,27.857,29.501,27.761z M30.355,17.703	c-1.371-1.249-3.116-2.104-5.043-2.373l0.048,0.375c0.134,1.037,0.23,2.085,0.326,3.122c0.038,0.413,0.077,0.817,0.105,1.23	c0.019,0.317,0.374,0.48,0.633,0.298c0.326-0.24,0.662-0.48,1.007-0.711c0.863-0.586,1.716-1.172,2.598-1.739L30.355,17.703z M25.014,30.921c-0.23-0.394-0.451-0.788-0.662-1.191c-0.153-0.279-0.547-0.279-0.7,0c-0.221,0.413-0.451,0.817-0.69,1.21	c-0.527,0.903-1.055,1.806-1.611,2.69l-0.24,0.384c0.892,0.279,1.841,0.423,2.819,0.423c1.007,0,1.985-0.154,2.896-0.452	l-0.221-0.365C26.05,32.737,25.532,31.824,25.014,30.921z M19.875,27.492c-0.451,0.058-0.892,0.125-1.342,0.173	c-1.045,0.125-2.071,0.25-3.116,0.346l-0.518,0.048c0.7,1.96,2.023,3.631,3.72,4.765l0.134-0.404	c0.326-0.999,0.671-1.979,1.026-2.968c0.163-0.48,0.336-0.951,0.518-1.431C20.412,27.741,20.172,27.444,19.875,27.492z M19.185,23.783c0.297-0.086,0.384-0.461,0.153-0.672c-0.326-0.298-0.642-0.596-0.959-0.913c-0.748-0.74-1.486-1.47-2.215-2.229	l-0.307-0.317c-0.959,1.489-1.515,3.266-1.515,5.178c0,0.183,0.01,0.355,0.01,0.528l0.451-0.154	c0.988-0.355,1.985-0.663,2.972-0.989C18.245,24.062,18.715,23.928,19.185,23.783z M44.766,28.174l-3.663-16.12	c-0.163-0.72-0.642-1.316-1.304-1.643L24.976,3.245c-0.662-0.327-1.429-0.327-2.09,0L8.063,10.411	c-0.662,0.327-1.141,0.922-1.304,1.643l-3.663,16.12c-0.163,0.72,0.01,1.47,0.46,2.037l10.259,12.93	c0.46,0.576,1.16,0.913,1.889,0.913h16.453c0.729,0,1.429-0.336,1.889-0.913l10.259-12.93	C44.756,29.643,44.929,28.894,44.766,28.174z M39.646,28.846c-0.288,0.067-0.575,0-0.805-0.144c-0.47-0.317-0.968-0.49-1.467-0.634	c-0.249-0.067-0.508-0.125-0.757-0.163c-0.249-0.077-0.537,0-0.825,0.134c-0.288,0.163-0.547,0.135-0.815,0.115h-0.029	c-0.825,2.738-2.637,5.053-5.034,6.523v0.01c0.077,0.25,0.163,0.49,0.086,0.817c-0.067,0.317-0.077,0.605,0.058,0.836	c0.105,0.231,0.221,0.471,0.345,0.692c0.259,0.451,0.547,0.903,0.968,1.278c0.422,0.394,0.451,1.047,0.067,1.479	c-0.393,0.423-1.045,0.451-1.477,0.067c-0.221-0.202-0.336-0.471-0.336-0.749c-0.019-0.567-0.163-1.066-0.336-1.566	c-0.086-0.24-0.182-0.48-0.297-0.72c-0.086-0.25-0.316-0.423-0.595-0.586c-0.268-0.144-0.403-0.346-0.537-0.567	c-1.227,0.452-2.55,0.692-3.931,0.692c-1.361,0-2.665-0.24-3.874-0.672c-0.115,0.211-0.249,0.403-0.518,0.548	c-0.278,0.154-0.508,0.336-0.594,0.586c-0.115,0.231-0.221,0.471-0.307,0.711c-0.173,0.5-0.326,0.999-0.336,1.566	c-0.019,0.576-0.508,1.028-1.083,1.009c-0.575-0.019-1.026-0.499-1.007-1.076c0.01-0.298,0.144-0.557,0.345-0.74	c0.422-0.384,0.71-0.826,0.978-1.268c0.125-0.231,0.24-0.461,0.345-0.701c0.134-0.221,0.125-0.519,0.067-0.836	c-0.067-0.298,0-0.538,0.077-0.759c-2.407-1.451-4.248-3.756-5.091-6.494c-0.221,0.019-0.431,0.019-0.681-0.106	c-0.297-0.125-0.575-0.202-0.825-0.115c-0.259,0.048-0.508,0.115-0.757,0.192c-0.499,0.163-0.988,0.346-1.448,0.672	c-0.47,0.336-1.122,0.221-1.457-0.25c-0.326-0.471-0.221-1.124,0.249-1.451c0.24-0.173,0.537-0.231,0.805-0.183	c0.547,0.115,1.074,0.077,1.592,0.01c0.259-0.029,0.518-0.077,0.767-0.144c0.259-0.019,0.489-0.211,0.7-0.451	c0.182-0.211,0.393-0.298,0.604-0.375c-0.038-0.394-0.058-0.797-0.058-1.201c0-2.459,0.767-4.736,2.081-6.609	c-0.173-0.173-0.336-0.346-0.403-0.653c-0.086-0.307-0.201-0.576-0.422-0.72c-0.201-0.173-0.403-0.327-0.614-0.471	c-0.441-0.288-0.892-0.557-1.429-0.72c-0.556-0.154-0.882-0.74-0.719-1.287c0.163-0.557,0.738-0.874,1.294-0.72	c0.278,0.086,0.508,0.279,0.633,0.519c0.259,0.5,0.614,0.893,0.988,1.258c0.182,0.183,0.384,0.355,0.585,0.509	c0.182,0.192,0.47,0.25,0.786,0.269c0.336,0.01,0.546,0.154,0.767,0.298l0.01,0.01c1.803-1.748,4.18-2.901,6.817-3.151	c0.029-0.259,0.048-0.519,0.249-0.778c0.192-0.259,0.326-0.519,0.297-0.778c0.01-0.259,0-0.519-0.019-0.788	c-0.058-0.519-0.134-1.038-0.355-1.556c-0.23-0.528,0.019-1.143,0.547-1.374c0.527-0.221,1.141,0.019,1.371,0.548	c0.115,0.279,0.105,0.576,0,0.826c-0.221,0.519-0.297,1.037-0.355,1.556c-0.019,0.269-0.029,0.528-0.019,0.788	c-0.029,0.259,0.105,0.519,0.297,0.778c0.201,0.259,0.221,0.519,0.249,0.778c2.704,0.259,5.139,1.46,6.961,3.285	c0.221-0.144,0.431-0.298,0.767-0.307c0.316-0.019,0.604-0.077,0.786-0.269c0.201-0.163,0.393-0.336,0.585-0.519	c0.364-0.365,0.719-0.759,0.978-1.258c0.259-0.519,0.892-0.72,1.4-0.451c0.518,0.259,0.719,0.893,0.451,1.403	c-0.134,0.269-0.364,0.452-0.633,0.528c-0.537,0.154-0.988,0.432-1.419,0.72c-0.211,0.154-0.422,0.307-0.614,0.48	c-0.221,0.144-0.336,0.413-0.422,0.72c-0.067,0.327-0.249,0.509-0.431,0.701c1.246,1.835,1.966,4.054,1.966,6.436	c0,0.365-0.019,0.73-0.048,1.086h0.01c0.249,0.077,0.499,0.144,0.719,0.403c0.221,0.231,0.451,0.403,0.71,0.423	c0.259,0.058,0.508,0.096,0.767,0.125c0.527,0.048,1.045,0.067,1.601-0.058c0.566-0.125,1.122,0.231,1.246,0.797	C40.566,28.164,40.211,28.721,39.646,28.846z M31.86,20.114c-0.719,0.769-1.457,1.508-2.196,2.248	c-0.47,0.48-0.978,0.941-1.467,1.412c0.652,0.163,1.304,0.336,1.956,0.528c1.007,0.288,2.004,0.567,3.001,0.893l0.355,0.115	c0.01-0.154,0.01-0.317,0.01-0.48c0-1.835-0.508-3.545-1.4-4.995L31.86,20.114z M29.501,27.761	c-0.451-0.038-0.892-0.086-1.342-0.135c-0.288-0.038-0.518,0.25-0.412,0.528c0.163,0.432,0.316,0.865,0.47,1.307	c0.336,0.98,0.681,1.969,0.997,2.968l0.105,0.346c1.668-1.143,2.963-2.795,3.643-4.736l-0.336-0.019	C31.582,27.953,30.547,27.857,29.501,27.761z M30.355,17.703c-1.371-1.249-3.116-2.104-5.043-2.373l0.048,0.375	c0.134,1.037,0.23,2.085,0.326,3.122c0.038,0.413,0.077,0.817,0.105,1.23c0.019,0.317,0.374,0.48,0.633,0.298	c0.326-0.24,0.662-0.48,1.007-0.711c0.863-0.586,1.716-1.172,2.598-1.739L30.355,17.703z M25.014,30.921	c-0.23-0.394-0.451-0.788-0.662-1.191c-0.153-0.279-0.547-0.279-0.7,0c-0.221,0.413-0.451,0.817-0.69,1.21	c-0.527,0.903-1.055,1.806-1.611,2.69l-0.24,0.384c0.892,0.279,1.841,0.423,2.819,0.423c1.007,0,1.985-0.154,2.896-0.452	l-0.221-0.365C26.05,32.737,25.532,31.824,25.014,30.921z M22.176,18.827c0.096-1.038,0.192-2.085,0.326-3.122l0.048-0.375	c-1.85,0.259-3.528,1.057-4.871,2.229l0.297,0.183c0.892,0.557,1.755,1.143,2.618,1.729c0.499,0.317,0.968,0.672,1.438,1.009	C22.071,19.931,22.119,19.374,22.176,18.827z M19.875,27.492c-0.451,0.058-0.892,0.125-1.342,0.173	c-1.045,0.125-2.071,0.25-3.116,0.346l-0.518,0.048c0.7,1.96,2.023,3.631,3.72,4.765l0.134-0.404	c0.326-0.999,0.671-1.979,1.026-2.968c0.163-0.48,0.336-0.951,0.518-1.431C20.412,27.741,20.172,27.444,19.875,27.492z M19.185,23.783c0.297-0.086,0.384-0.461,0.153-0.672c-0.326-0.298-0.642-0.596-0.959-0.913c-0.748-0.74-1.486-1.47-2.215-2.229	l-0.307-0.317c-0.959,1.489-1.515,3.266-1.515,5.178c0,0.183,0.01,0.355,0.01,0.528l0.451-0.154	c0.988-0.355,1.985-0.663,2.972-0.989C18.245,24.062,18.715,23.928,19.185,23.783z M19.338,23.111	c-0.326-0.298-0.642-0.596-0.959-0.913c-0.748-0.74-1.486-1.47-2.215-2.229l-0.307-0.317c-0.959,1.489-1.515,3.266-1.515,5.178	c0,0.183,0.01,0.355,0.01,0.528l0.451-0.154c0.988-0.355,1.985-0.663,2.972-0.989c0.47-0.154,0.94-0.288,1.409-0.432	C19.482,23.697,19.568,23.322,19.338,23.111z M19.875,27.492c-0.451,0.058-0.892,0.125-1.342,0.173	c-1.045,0.125-2.071,0.25-3.116,0.346l-0.518,0.048c0.7,1.96,2.023,3.631,3.72,4.765l0.134-0.404	c0.326-0.999,0.671-1.979,1.026-2.968c0.163-0.48,0.336-0.951,0.518-1.431C20.412,27.741,20.172,27.444,19.875,27.492z M26.606,33.62c-0.556-0.884-1.074-1.796-1.592-2.699c-0.23-0.394-0.451-0.788-0.662-1.191c-0.153-0.279-0.547-0.279-0.7,0	c-0.221,0.413-0.451,0.817-0.69,1.21c-0.527,0.903-1.055,1.806-1.611,2.69l-0.24,0.384c0.892,0.279,1.841,0.423,2.819,0.423	c1.007,0,1.985-0.154,2.896-0.452L26.606,33.62z M25.312,15.33l0.048,0.375c0.134,1.037,0.23,2.085,0.326,3.122	c0.038,0.413,0.077,0.817,0.105,1.23c0.019,0.317,0.374,0.48,0.633,0.298c0.326-0.24,0.662-0.48,1.007-0.711	c0.863-0.586,1.716-1.172,2.598-1.739l0.326-0.202C28.984,16.454,27.239,15.599,25.312,15.33z M32.627,28.02	c-1.045-0.067-2.081-0.163-3.126-0.259c-0.451-0.038-0.892-0.086-1.342-0.135c-0.288-0.038-0.518,0.25-0.412,0.528	c0.163,0.432,0.316,0.865,0.47,1.307c0.336,0.98,0.681,1.969,0.997,2.968l0.105,0.346c1.668-1.143,2.963-2.795,3.643-4.736	L32.627,28.02z M32.119,19.835l-0.259,0.279c-0.719,0.769-1.457,1.508-2.196,2.248c-0.47,0.48-0.978,0.941-1.467,1.412	c0.652,0.163,1.304,0.336,1.956,0.528c1.007,0.288,2.004,0.567,3.001,0.893l0.355,0.115c0.01-0.154,0.01-0.317,0.01-0.48	C33.519,22.996,33.011,21.286,32.119,19.835z M32.119,19.835l-0.259,0.279c-0.719,0.769-1.457,1.508-2.196,2.248	c-0.47,0.48-0.978,0.941-1.467,1.412c0.652,0.163,1.304,0.336,1.956,0.528c1.007,0.288,2.004,0.567,3.001,0.893l0.355,0.115	c0.01-0.154,0.01-0.317,0.01-0.48C33.519,22.996,33.011,21.286,32.119,19.835z M32.627,28.02c-1.045-0.067-2.081-0.163-3.126-0.259	c-0.451-0.038-0.892-0.086-1.342-0.135c-0.288-0.038-0.518,0.25-0.412,0.528c0.163,0.432,0.316,0.865,0.47,1.307	c0.336,0.98,0.681,1.969,0.997,2.968l0.105,0.346c1.668-1.143,2.963-2.795,3.643-4.736L32.627,28.02z M25.312,15.33l0.048,0.375	c0.134,1.037,0.23,2.085,0.326,3.122c0.038,0.413,0.077,0.817,0.105,1.23c0.019,0.317,0.374,0.48,0.633,0.298	c0.326-0.24,0.662-0.48,1.007-0.711c0.863-0.586,1.716-1.172,2.598-1.739l0.326-0.202C28.984,16.454,27.239,15.599,25.312,15.33z M26.606,33.62c-0.556-0.884-1.074-1.796-1.592-2.699c-0.23-0.394-0.451-0.788-0.662-1.191c-0.153-0.279-0.547-0.279-0.7,0	c-0.221,0.413-0.451,0.817-0.69,1.21c-0.527,0.903-1.055,1.806-1.611,2.69l-0.24,0.384c0.892,0.279,1.841,0.423,2.819,0.423	c1.007,0,1.985-0.154,2.896-0.452L26.606,33.62z M19.875,27.492c-0.451,0.058-0.892,0.125-1.342,0.173	c-1.045,0.125-2.071,0.25-3.116,0.346l-0.518,0.048c0.7,1.96,2.023,3.631,3.72,4.765l0.134-0.404	c0.326-0.999,0.671-1.979,1.026-2.968c0.163-0.48,0.336-0.951,0.518-1.431C20.412,27.741,20.172,27.444,19.875,27.492z M19.338,23.111c-0.326-0.298-0.642-0.596-0.959-0.913c-0.748-0.74-1.486-1.47-2.215-2.229l-0.307-0.317	c-0.959,1.489-1.515,3.266-1.515,5.178c0,0.183,0.01,0.355,0.01,0.528l0.451-0.154c0.988-0.355,1.985-0.663,2.972-0.989	c0.47-0.154,0.94-0.288,1.409-0.432C19.482,23.697,19.568,23.322,19.338,23.111z M19.875,27.492	c-0.451,0.058-0.892,0.125-1.342,0.173c-1.045,0.125-2.071,0.25-3.116,0.346l-0.518,0.048c0.7,1.96,2.023,3.631,3.72,4.765	l0.134-0.404c0.326-0.999,0.671-1.979,1.026-2.968c0.163-0.48,0.336-0.951,0.518-1.431C20.412,27.741,20.172,27.444,19.875,27.492z M26.606,33.62c-0.556-0.884-1.074-1.796-1.592-2.699c-0.23-0.394-0.451-0.788-0.662-1.191c-0.153-0.279-0.547-0.279-0.7,0	c-0.221,0.413-0.451,0.817-0.69,1.21c-0.527,0.903-1.055,1.806-1.611,2.69l-0.24,0.384c0.892,0.279,1.841,0.423,2.819,0.423	c1.007,0,1.985-0.154,2.896-0.452L26.606,33.62z M25.312,15.33l0.048,0.375c0.134,1.037,0.23,2.085,0.326,3.122	c0.038,0.413,0.077,0.817,0.105,1.23c0.019,0.317,0.374,0.48,0.633,0.298c0.326-0.24,0.662-0.48,1.007-0.711	c0.863-0.586,1.716-1.172,2.598-1.739l0.326-0.202C28.984,16.454,27.239,15.599,25.312,15.33z M32.627,28.02	c-1.045-0.067-2.081-0.163-3.126-0.259c-0.451-0.038-0.892-0.086-1.342-0.135c-0.288-0.038-0.518,0.25-0.412,0.528	c0.163,0.432,0.316,0.865,0.47,1.307c0.336,0.98,0.681,1.969,0.997,2.968l0.105,0.346c1.668-1.143,2.963-2.795,3.643-4.736	L32.627,28.02z M32.119,19.835l-0.259,0.279c-0.719,0.769-1.457,1.508-2.196,2.248c-0.47,0.48-0.978,0.941-1.467,1.412	c0.652,0.163,1.304,0.336,1.956,0.528c1.007,0.288,2.004,0.567,3.001,0.893l0.355,0.115c0.01-0.154,0.01-0.317,0.01-0.48	C33.519,22.996,33.011,21.286,32.119,19.835z M32.119,19.835l-0.259,0.279c-0.719,0.769-1.457,1.508-2.196,2.248	c-0.47,0.48-0.978,0.941-1.467,1.412c0.652,0.163,1.304,0.336,1.956,0.528c1.007,0.288,2.004,0.567,3.001,0.893l0.355,0.115	c0.01-0.154,0.01-0.317,0.01-0.48C33.519,22.996,33.011,21.286,32.119,19.835z M32.627,28.02c-1.045-0.067-2.081-0.163-3.126-0.259	c-0.451-0.038-0.892-0.086-1.342-0.135c-0.288-0.038-0.518,0.25-0.412,0.528c0.163,0.432,0.316,0.865,0.47,1.307	c0.336,0.98,0.681,1.969,0.997,2.968l0.105,0.346c1.668-1.143,2.963-2.795,3.643-4.736L32.627,28.02z M25.312,15.33l0.048,0.375	c0.134,1.037,0.23,2.085,0.326,3.122c0.038,0.413,0.077,0.817,0.105,1.23c0.019,0.317,0.374,0.48,0.633,0.298	c0.326-0.24,0.662-0.48,1.007-0.711c0.863-0.586,1.716-1.172,2.598-1.739l0.326-0.202C28.984,16.454,27.239,15.599,25.312,15.33z M26.606,33.62c-0.556-0.884-1.074-1.796-1.592-2.699c-0.23-0.394-0.451-0.788-0.662-1.191c-0.153-0.279-0.547-0.279-0.7,0	c-0.221,0.413-0.451,0.817-0.69,1.21c-0.527,0.903-1.055,1.806-1.611,2.69l-0.24,0.384c0.892,0.279,1.841,0.423,2.819,0.423	c1.007,0,1.985-0.154,2.896-0.452L26.606,33.62z M19.875,27.492c-0.451,0.058-0.892,0.125-1.342,0.173	c-1.045,0.125-2.071,0.25-3.116,0.346l-0.518,0.048c0.7,1.96,2.023,3.631,3.72,4.765l0.134-0.404	c0.326-0.999,0.671-1.979,1.026-2.968c0.163-0.48,0.336-0.951,0.518-1.431C20.412,27.741,20.172,27.444,19.875,27.492z M26.606,33.62c-0.556-0.884-1.074-1.796-1.592-2.699c-0.23-0.394-0.451-0.788-0.662-1.191c-0.153-0.279-0.547-0.279-0.7,0	c-0.221,0.413-0.451,0.817-0.69,1.21c-0.527,0.903-1.055,1.806-1.611,2.69l-0.24,0.384c0.892,0.279,1.841,0.423,2.819,0.423	c1.007,0,1.985-0.154,2.896-0.452L26.606,33.62z M25.312,15.33l0.048,0.375c0.134,1.037,0.23,2.085,0.326,3.122	c0.038,0.413,0.077,0.817,0.105,1.23c0.019,0.317,0.374,0.48,0.633,0.298c0.326-0.24,0.662-0.48,1.007-0.711	c0.863-0.586,1.716-1.172,2.598-1.739l0.326-0.202C28.984,16.454,27.239,15.599,25.312,15.33z M32.627,28.02	c-1.045-0.067-2.081-0.163-3.126-0.259c-0.451-0.038-0.892-0.086-1.342-0.135c-0.288-0.038-0.518,0.25-0.412,0.528	c0.163,0.432,0.316,0.865,0.47,1.307c0.336,0.98,0.681,1.969,0.997,2.968l0.105,0.346c1.668-1.143,2.963-2.795,3.643-4.736	L32.627,28.02z M32.119,19.835l-0.259,0.279c-0.719,0.769-1.457,1.508-2.196,2.248c-0.47,0.48-0.978,0.941-1.467,1.412	c0.652,0.163,1.304,0.336,1.956,0.528c1.007,0.288,2.004,0.567,3.001,0.893l0.355,0.115c0.01-0.154,0.01-0.317,0.01-0.48	C33.519,22.996,33.011,21.286,32.119,19.835z M32.119,19.835l-0.259,0.279c-0.719,0.769-1.457,1.508-2.196,2.248	c-0.47,0.48-0.978,0.941-1.467,1.412c0.652,0.163,1.304,0.336,1.956,0.528c1.007,0.288,2.004,0.567,3.001,0.893l0.355,0.115	c0.01-0.154,0.01-0.317,0.01-0.48C33.519,22.996,33.011,21.286,32.119,19.835z M32.627,28.02c-1.045-0.067-2.081-0.163-3.126-0.259	c-0.451-0.038-0.892-0.086-1.342-0.135c-0.288-0.038-0.518,0.25-0.412,0.528c0.163,0.432,0.316,0.865,0.47,1.307	c0.336,0.98,0.681,1.969,0.997,2.968l0.105,0.346c1.668-1.143,2.963-2.795,3.643-4.736L32.627,28.02z M25.312,15.33l0.048,0.375	c0.134,1.037,0.23,2.085,0.326,3.122c0.038,0.413,0.077,0.817,0.105,1.23c0.019,0.317,0.374,0.48,0.633,0.298	c0.326-0.24,0.662-0.48,1.007-0.711c0.863-0.586,1.716-1.172,2.598-1.739l0.326-0.202C28.984,16.454,27.239,15.599,25.312,15.33z M26.606,33.62c-0.556-0.884-1.074-1.796-1.592-2.699c-0.23-0.394-0.451-0.788-0.662-1.191c-0.153-0.279-0.547-0.279-0.7,0	c-0.221,0.413-0.451,0.817-0.69,1.21c-0.527,0.903-1.055,1.806-1.611,2.69l-0.24,0.384c0.892,0.279,1.841,0.423,2.819,0.423	c1.007,0,1.985-0.154,2.896-0.452L26.606,33.62z M26.606,33.62c-0.556-0.884-1.074-1.796-1.592-2.699	c-0.23-0.394-0.451-0.788-0.662-1.191c-0.153-0.279-0.547-0.279-0.7,0c-0.221,0.413-0.451,0.817-0.69,1.21	c-0.527,0.903-1.055,1.806-1.611,2.69l-0.24,0.384c0.892,0.279,1.841,0.423,2.819,0.423c1.007,0,1.985-0.154,2.896-0.452	L26.606,33.62z M25.312,15.33l0.048,0.375c0.134,1.037,0.23,2.085,0.326,3.122c0.038,0.413,0.077,0.817,0.105,1.23	c0.019,0.317,0.374,0.48,0.633,0.298c0.326-0.24,0.662-0.48,1.007-0.711c0.863-0.586,1.716-1.172,2.598-1.739l0.326-0.202	C28.984,16.454,27.239,15.599,25.312,15.33z M32.627,28.02c-1.045-0.067-2.081-0.163-3.126-0.259	c-0.451-0.038-0.892-0.086-1.342-0.135c-0.288-0.038-0.518,0.25-0.412,0.528c0.163,0.432,0.316,0.865,0.47,1.307	c0.336,0.98,0.681,1.969,0.997,2.968l0.105,0.346c1.668-1.143,2.963-2.795,3.643-4.736L32.627,28.02z M32.119,19.835l-0.259,0.279	c-0.719,0.769-1.457,1.508-2.196,2.248c-0.47,0.48-0.978,0.941-1.467,1.412c0.652,0.163,1.304,0.336,1.956,0.528	c1.007,0.288,2.004,0.567,3.001,0.893l0.355,0.115c0.01-0.154,0.01-0.317,0.01-0.48C33.519,22.996,33.011,21.286,32.119,19.835z M32.119,19.835l-0.259,0.279c-0.719,0.769-1.457,1.508-2.196,2.248c-0.47,0.48-0.978,0.941-1.467,1.412	c0.652,0.163,1.304,0.336,1.956,0.528c1.007,0.288,2.004,0.567,3.001,0.893l0.355,0.115c0.01-0.154,0.01-0.317,0.01-0.48	C33.519,22.996,33.011,21.286,32.119,19.835z M32.627,28.02c-1.045-0.067-2.081-0.163-3.126-0.259	c-0.451-0.038-0.892-0.086-1.342-0.135c-0.288-0.038-0.518,0.25-0.412,0.528c0.163,0.432,0.316,0.865,0.47,1.307	c0.336,0.98,0.681,1.969,0.997,2.968l0.105,0.346c1.668-1.143,2.963-2.795,3.643-4.736L32.627,28.02z M25.312,15.33l0.048,0.375	c0.134,1.037,0.23,2.085,0.326,3.122c0.038,0.413,0.077,0.817,0.105,1.23c0.019,0.317,0.374,0.48,0.633,0.298	c0.326-0.24,0.662-0.48,1.007-0.711c0.863-0.586,1.716-1.172,2.598-1.739l0.326-0.202C28.984,16.454,27.239,15.599,25.312,15.33z M26.606,33.62c-0.556-0.884-1.074-1.796-1.592-2.699c-0.23-0.394-0.451-0.788-0.662-1.191c-0.153-0.279-0.547-0.279-0.7,0	c-0.221,0.413-0.451,0.817-0.69,1.21c-0.527,0.903-1.055,1.806-1.611,2.69l-0.24,0.384c0.892,0.279,1.841,0.423,2.819,0.423	c1.007,0,1.985-0.154,2.896-0.452L26.606,33.62z M25.312,15.33l0.048,0.375c0.134,1.037,0.23,2.085,0.326,3.122	c0.038,0.413,0.077,0.817,0.105,1.23c0.019,0.317,0.374,0.48,0.633,0.298c0.326-0.24,0.662-0.48,1.007-0.711	c0.863-0.586,1.716-1.172,2.598-1.739l0.326-0.202C28.984,16.454,27.239,15.599,25.312,15.33z M32.627,28.02	c-1.045-0.067-2.081-0.163-3.126-0.259c-0.451-0.038-0.892-0.086-1.342-0.135c-0.288-0.038-0.518,0.25-0.412,0.528	c0.163,0.432,0.316,0.865,0.47,1.307c0.336,0.98,0.681,1.969,0.997,2.968l0.105,0.346c1.668-1.143,2.963-2.795,3.643-4.736	L32.627,28.02z M32.119,19.835l-0.259,0.279c-0.719,0.769-1.457,1.508-2.196,2.248c-0.47,0.48-0.978,0.941-1.467,1.412	c0.652,0.163,1.304,0.336,1.956,0.528c1.007,0.288,2.004,0.567,3.001,0.893l0.355,0.115c0.01-0.154,0.01-0.317,0.01-0.48	C33.519,22.996,33.011,21.286,32.119,19.835z M32.119,19.835l-0.259,0.279c-0.719,0.769-1.457,1.508-2.196,2.248	c-0.47,0.48-0.978,0.941-1.467,1.412c0.652,0.163,1.304,0.336,1.956,0.528c1.007,0.288,2.004,0.567,3.001,0.893l0.355,0.115	c0.01-0.154,0.01-0.317,0.01-0.48C33.519,22.996,33.011,21.286,32.119,19.835z M32.627,28.02c-1.045-0.067-2.081-0.163-3.126-0.259	c-0.451-0.038-0.892-0.086-1.342-0.135c-0.288-0.038-0.518,0.25-0.412,0.528c0.163,0.432,0.316,0.865,0.47,1.307	c0.336,0.98,0.681,1.969,0.997,2.968l0.105,0.346c1.668-1.143,2.963-2.795,3.643-4.736L32.627,28.02z M25.312,15.33l0.048,0.375	c0.134,1.037,0.23,2.085,0.326,3.122c0.038,0.413,0.077,0.817,0.105,1.23c0.019,0.317,0.374,0.48,0.633,0.298	c0.326-0.24,0.662-0.48,1.007-0.711c0.863-0.586,1.716-1.172,2.598-1.739l0.326-0.202C28.984,16.454,27.239,15.599,25.312,15.33z M25.312,15.33l0.048,0.375c0.134,1.037,0.23,2.085,0.326,3.122c0.038,0.413,0.077,0.817,0.105,1.23	c0.019,0.317,0.374,0.48,0.633,0.298c0.326-0.24,0.662-0.48,1.007-0.711c0.863-0.586,1.716-1.172,2.598-1.739l0.326-0.202	C28.984,16.454,27.239,15.599,25.312,15.33z M32.119,19.835l-0.259,0.279c-0.719,0.769-1.457,1.508-2.196,2.248	c-0.47,0.48-0.978,0.941-1.467,1.412c0.652,0.163,1.304,0.336,1.956,0.528c1.007,0.288,2.004,0.567,3.001,0.893l0.355,0.115	c0.01-0.154,0.01-0.317,0.01-0.48C33.519,22.996,33.011,21.286,32.119,19.835z M32.119,19.835l-0.259,0.279	c-0.719,0.769-1.457,1.508-2.196,2.248c-0.47,0.48-0.978,0.941-1.467,1.412c0.652,0.163,1.304,0.336,1.956,0.528	c1.007,0.288,2.004,0.567,3.001,0.893l0.355,0.115c0.01-0.154,0.01-0.317,0.01-0.48C33.519,22.996,33.011,21.286,32.119,19.835z M25.312,15.33l0.048,0.375c0.134,1.037,0.23,2.085,0.326,3.122c0.038,0.413,0.077,0.817,0.105,1.23	c0.019,0.317,0.374,0.48,0.633,0.298c0.326-0.24,0.662-0.48,1.007-0.711c0.863-0.586,1.716-1.172,2.598-1.739l0.326-0.202	C28.984,16.454,27.239,15.599,25.312,15.33z M25.312,15.33l0.048,0.375c0.134,1.037,0.23,2.085,0.326,3.122	c0.038,0.413,0.077,0.817,0.105,1.23c0.019,0.317,0.374,0.48,0.633,0.298c0.326-0.24,0.662-0.48,1.007-0.711	c0.863-0.586,1.716-1.172,2.598-1.739l0.326-0.202C28.984,16.454,27.239,15.599,25.312,15.33z M32.119,19.835l-0.259,0.279	c-0.719,0.769-1.457,1.508-2.196,2.248c-0.47,0.48-0.978,0.941-1.467,1.412c0.652,0.163,1.304,0.336,1.956,0.528	c1.007,0.288,2.004,0.567,3.001,0.893l0.355,0.115c0.01-0.154,0.01-0.317,0.01-0.48C33.519,22.996,33.011,21.286,32.119,19.835z M32.119,19.835l-0.259,0.279c-0.719,0.769-1.457,1.508-2.196,2.248c-0.47,0.48-0.978,0.941-1.467,1.412	c0.652,0.163,1.304,0.336,1.956,0.528c1.007,0.288,2.004,0.567,3.001,0.893l0.355,0.115c0.01-0.154,0.01-0.317,0.01-0.48	C33.519,22.996,33.011,21.286,32.119,19.835z M25.312,15.33l0.048,0.375c0.134,1.037,0.23,2.085,0.326,3.122	c0.038,0.413,0.077,0.817,0.105,1.23c0.019,0.317,0.374,0.48,0.633,0.298c0.326-0.24,0.662-0.48,1.007-0.711	c0.863-0.586,1.716-1.172,2.598-1.739l0.326-0.202C28.984,16.454,27.239,15.599,25.312,15.33z M25.312,15.33l0.048,0.375	c0.134,1.037,0.23,2.085,0.326,3.122c0.038,0.413,0.077,0.817,0.105,1.23c0.019,0.317,0.374,0.48,0.633,0.298	c0.326-0.24,0.662-0.48,1.007-0.711c0.863-0.586,1.716-1.172,2.598-1.739l0.326-0.202C28.984,16.454,27.239,15.599,25.312,15.33z M25.312,15.33l0.048,0.375c0.134,1.037,0.23,2.085,0.326,3.122c0.038,0.413,0.077,0.817,0.105,1.23	c0.019,0.317,0.374,0.48,0.633,0.298c0.326-0.24,0.662-0.48,1.007-0.711c0.863-0.586,1.716-1.172,2.598-1.739l0.326-0.202	C28.984,16.454,27.239,15.599,25.312,15.33z"></path><path fill="none" d="M12.933,28.231c-0.221,0.019-0.431,0.019-0.681-0.106c-0.297-0.125-0.575-0.202-0.825-0.115	c-0.259,0.048-0.508,0.115-0.757,0.192c-0.499,0.163-0.988,0.346-1.448,0.672c-0.47,0.336-1.122,0.221-1.457-0.25	c-0.326-0.471-0.221-1.124,0.249-1.451c0.24-0.173,0.537-0.231,0.805-0.183c0.547,0.115,1.074,0.077,1.592,0.01	c0.259-0.029,0.518-0.077,0.767-0.144c0.259-0.019,0.489-0.211,0.7-0.451c0.182-0.211,0.393-0.298,0.604-0.375	C12.569,26.781,12.713,27.52,12.933,28.231z"></path><path fill="none" d="M20.057,35.686c-0.115,0.211-0.249,0.403-0.518,0.548c-0.278,0.154-0.508,0.336-0.594,0.586	c-0.115,0.231-0.221,0.471-0.307,0.711c-0.173,0.5-0.326,0.999-0.336,1.566c-0.019,0.576-0.508,1.028-1.083,1.009	c-0.575-0.019-1.026-0.499-1.007-1.076c0.01-0.298,0.144-0.557,0.345-0.74c0.422-0.384,0.71-0.826,0.978-1.268	c0.125-0.231,0.24-0.461,0.345-0.701c0.134-0.221,0.125-0.519,0.067-0.836c-0.067-0.298,0-0.538,0.077-0.759	C18.667,35.11,19.348,35.436,20.057,35.686z"></path><path fill="none" d="M31.438,39.788c-0.393,0.423-1.045,0.451-1.477,0.067c-0.221-0.202-0.336-0.471-0.336-0.749	c-0.019-0.567-0.163-1.066-0.336-1.566c-0.086-0.24-0.182-0.48-0.297-0.72c-0.086-0.25-0.316-0.423-0.595-0.586	c-0.268-0.144-0.403-0.346-0.537-0.567c0.719-0.259,1.409-0.596,2.052-0.989v0.01c0.077,0.25,0.163,0.49,0.086,0.817	c-0.067,0.317-0.077,0.605,0.058,0.836c0.105,0.231,0.221,0.471,0.345,0.692c0.259,0.451,0.547,0.903,0.968,1.278	C31.793,38.702,31.822,39.356,31.438,39.788z"></path><path fill="none" d="M39.646,28.846c-0.288,0.067-0.575,0-0.805-0.144c-0.47-0.317-0.968-0.49-1.467-0.634	c-0.249-0.067-0.508-0.125-0.757-0.163c-0.249-0.077-0.537,0-0.825,0.134c-0.288,0.163-0.547,0.135-0.815,0.115h-0.029	c0.221-0.72,0.364-1.47,0.441-2.238h0.01c0.249,0.077,0.499,0.144,0.719,0.403c0.221,0.231,0.451,0.403,0.71,0.423	c0.259,0.058,0.508,0.096,0.767,0.125c0.527,0.048,1.045,0.067,1.601-0.058c0.566-0.125,1.122,0.231,1.246,0.797	C40.566,28.164,40.211,28.721,39.646,28.846z"></path>
    </symbol>
  </defs>
</svg>